<svg xmlns="http://www.w3.org/2000/svg" width="46" height="46" viewBox="0 0 46 46">
  <g id="Group_15980" data-name="Group 15980" transform="translate(-2668 -12448)">
    <g id="Animation_-_Social_Icons" data-name="Animation - Social Icons" transform="translate(2668 12448)">
      <circle id="Ellipse_17" data-name="Ellipse 17" cx="23" cy="23" r="23" fill="#191818"/>
      <circle id="Ellipse_13" data-name="Ellipse 13" cx="23" cy="23" r="23" fill="#565440"/>
    </g>
    <g id="Group_1420" data-name="Group 1420" transform="translate(2678.935 12459)">
      <g id="Group_1419" data-name="Group 1419" transform="translate(0 0)">
        <path id="Path_2109" data-name="Path 2109" d="M1096.33,105.945a1.415,1.415,0,1,0,1.414,1.415A1.414,1.414,0,0,0,1096.33,105.945Z" transform="translate(-1077.878 -101.637)" fill="#fff"/>
        <path id="Path_2110" data-name="Path 2110" d="M1085,108.605a5.942,5.942,0,1,0,5.943,5.943A5.949,5.949,0,0,0,1085,108.605Zm0,9.749a3.806,3.806,0,1,1,3.806-3.806A3.81,3.81,0,0,1,1085,118.354Z" transform="translate(-1072.833 -102.483)" fill="#fff"/>
        <path id="Path_2111" data-name="Path 2111" d="M1086.813,123.757h-9.634a7.256,7.256,0,0,1-7.248-7.248v-9.634a7.256,7.256,0,0,1,7.248-7.247h9.634a7.256,7.256,0,0,1,7.248,7.247v9.634A7.256,7.256,0,0,1,1086.813,123.757ZM1077.18,101.9a4.983,4.983,0,0,0-4.978,4.977v9.634a4.983,4.983,0,0,0,4.978,4.978h9.634a4.983,4.983,0,0,0,4.978-4.978v-9.634a4.983,4.983,0,0,0-4.978-4.977Z" transform="translate(-1069.932 -99.628)" fill="#fff"/>
      </g>
    </g>
  </g>
</svg>
