<svg xmlns="http://www.w3.org/2000/svg" width="182.769" height="70.062" viewBox="0 0 182.769 70.062">
  <g id="Mask_Group_22062" data-name="Mask Group 22062" transform="translate(-167.692 -27.497)">
    <g id="Group_22051" data-name="Group 22051" transform="translate(98 10)">
      <g id="ALL_LOGO_1_-01" data-name="ALL LOGO (1)-01" transform="translate(70 17.72)">
        <path id="Path_8313" data-name="Path 8313" d="M22.485,27.994a41.287,41.287,0,0,0-1.191-5.805,11.718,11.718,0,0,0-4.83-.922c-4.991,0-8.247,3.222-8.247,7,0,4.177,3.531,5.966,6.78,7.48C17.689,37,19.29,38.305,19.29,40.687a3.787,3.787,0,0,1-3.854,3.8c-3.256,0-5.7-3.148-6.673-6.727L7.35,38.03a25.716,25.716,0,0,0,.868,6.4,10.9,10.9,0,0,0,6.242,1.843c4.339,0,8.946-2.549,8.946-7.487,0-3.74-2.765-5.7-6.834-7.4-2.442-1.029-4.608-2.334-4.608-4.709a3.538,3.538,0,0,1,3.525-3.747c2.657,0,4.554,2.173,5.59,5.381l1.406-.33Zm30.162,17.63V44.218c-3.2-.276-3.579-.6-3.579-4.177v-9.5c0-6.511-3.094-9.33-7.487-9.276-2.926,0-5.859,2.018-7.756,3.962V7a58.917,58.917,0,0,1-7.978,1.9v1.251c3.585.323,3.693.6,3.693,4.036V40.041c0,3.579-.437,3.9-3.693,4.177l-.054,1.406H37.3V44.218c-3.2-.33-3.471-.673-3.471-4.177V27.126a7.648,7.648,0,0,1,5.644-2.765c3.632,0,5.314,2.226,5.314,6.673v9.007c0,3.525-.437,3.848-3.579,4.177v1.406Zm21.485-5.751a8.845,8.845,0,0,1-6.182,2.691c-3.8,0-8.031-3.04-8.072-10.419,6.457-.215,13.238-.76,14.126-.922s1.244-.673,1.244-1.735a8.4,8.4,0,0,0-8.132-8.247h-.054A11,11,0,0,0,59.138,25.2a13.958,13.958,0,0,0-3.579,9.491c0,6.135,3.908,11.556,10.581,11.556,1.682,0,5.422-.975,8.839-5.26l-.868-1.144Zm-8.3-16.594c2.987,0,4.83,2.6,4.776,5.422,0,.76-.33,1.083-1.3,1.083-3.141.108-6.128.168-9.168.168.814-4.4,3.2-6.673,5.644-6.673Zm37.157-1.345H93.174v1.345c3.087.43,3.471,1.029,2.818,3.087C94.856,29.783,92.521,36.186,91,39.873L86.064,26.258c-.706-2.018-.43-2.549,2.065-2.98V21.933H77.118v1.345c2.98.43,3.525,1.137,4.661,4.123C83.407,31.249,85.815,37.814,88.021,44a3.478,3.478,0,0,1,.054,2.442,21.349,21.349,0,0,1-1.682,3.747,10.972,10.972,0,0,1-4.036,4.823c-.922.6-1.413,1.09-1.413,1.957,0,1.3,1.574,2.6,3.094,2.6a1.635,1.635,0,0,0,1.776-1.3c.76-2.926,1.951-6.02,5.59-14.7,3.74-8.953,5.422-13.453,6.78-16.332,1.46-3.087,1.951-3.525,4.823-3.955Z" transform="translate(-2.406 -2.2)" fill="#fff" fill-rule="evenodd"/>
        <line id="Line_17501" data-name="Line 17501" x2="102.445" transform="translate(0 0.737)" fill="none" stroke="#fff" stroke-miterlimit="2.61" stroke-width="1.92"/>
        <line id="Line_17502" data-name="Line 17502" y1="61.777" transform="translate(0.652 0.28)" fill="none" stroke="#fff" stroke-miterlimit="2.61" stroke-width="1.92"/>
        <line id="Line_17503" data-name="Line 17503" x2="102.634" transform="translate(0 61.431)" fill="none" stroke="#fff" stroke-miterlimit="2.61" stroke-width="1.92"/>
        <path id="Path_8314" data-name="Path 8314" d="M175.561,50.933a11.536,11.536,0,0,1-.868,4.5,10.641,10.641,0,0,1-2.4,3.579,11.059,11.059,0,0,1-3.7,2.341,12.693,12.693,0,0,1-4.709.848,12.457,12.457,0,0,1-4.036-.632,11.159,11.159,0,0,1-3.363-1.83l.848-.848a11.267,11.267,0,0,0,2.906,1.675,9.747,9.747,0,0,0,3.632.673,10.763,10.763,0,0,0,4.15-.78,10.453,10.453,0,0,0,3.363-2.179,10.15,10.15,0,0,0,3.081-7.352l-.04-6.269a10.245,10.245,0,0,1-2.173,3.2,11.435,11.435,0,0,1-5.637,3.161,12.444,12.444,0,0,1-2.691.323,11.4,11.4,0,0,1-4.561-.922,12.155,12.155,0,0,1-3.72-2.475,11.859,11.859,0,0,1-2.5-3.632,10.984,10.984,0,0,1,0-8.839,11.529,11.529,0,0,1,2.5-3.612,11.664,11.664,0,0,1,3.72-2.422,11.845,11.845,0,0,1,4.561-.881,12.175,12.175,0,0,1,2.637.323,12.7,12.7,0,0,1,2.865,1.043,11.711,11.711,0,0,1,2.691,1.9,10.81,10.81,0,0,1,2.213,2.926V29.172h1.157v21.76ZM174.6,39.894a9.874,9.874,0,0,0-.848-4.09,10.453,10.453,0,0,0-5.644-5.5,11.146,11.146,0,0,0-8.227,0,10.567,10.567,0,0,0-3.363,2.2,10.258,10.258,0,0,0-2.267,3.3,10.09,10.09,0,0,0-.834,4.09,10.211,10.211,0,0,0,.827,4.1,10.433,10.433,0,0,0,2.267,3.363,10.675,10.675,0,0,0,3.363,2.24,10.884,10.884,0,0,0,8.227,0,10.594,10.594,0,0,0,5.644-5.576,10,10,0,0,0,.848-4.1Zm29.18,13.567h-1.157l.04-5.233a11.543,11.543,0,0,1-1.924,2.462,12.168,12.168,0,0,1-2.448,1.83,12.438,12.438,0,0,1-2.771,1.15,10.608,10.608,0,0,1-2.865.41,12.605,12.605,0,0,1-4.466-.774,9.841,9.841,0,0,1-5.832-5.718,12.229,12.229,0,0,1-.827-4.621V29.1h1.157v13.87a10.09,10.09,0,0,0,.848,4.211,9.949,9.949,0,0,0,9.121,5.906,9.585,9.585,0,0,0,3.693-.7,10.366,10.366,0,0,0,5.428-5.119,8.61,8.61,0,0,0,.848-3.794V29.1h1.157Zm28.406-13.971V53.5h-1.157v-13.9a10.763,10.763,0,0,0-.787-4.218,9.605,9.605,0,0,0-2.159-3.182,9.471,9.471,0,0,0-3.135-2.018,10.144,10.144,0,0,0-3.774-.673,9.37,9.37,0,0,0-3.774.787,11.267,11.267,0,0,0-3.215,2.119,10.5,10.5,0,0,0-2.247,3.047,8.4,8.4,0,0,0-.848,3.713V53.5h-1.17V29.139h1.157v5.267a11.119,11.119,0,0,1,4.292-4.325,11.96,11.96,0,0,1,2.812-1.157,11.388,11.388,0,0,1,3.02-.4,11.664,11.664,0,0,1,4.366.807,10.191,10.191,0,0,1,3.484,2.274,10.493,10.493,0,0,1,2.294,3.464A11.435,11.435,0,0,1,232.185,39.491Z" transform="translate(-49.829 -9.244)" fill="#fff" fill-rule="evenodd"/>
        <path id="Path_8315" data-name="Path 8315" d="M169.514,90.691c0-.04,0-.054.034-.04a.109.109,0,0,0,.067,0,.2.2,0,0,1,.121-.081l.148-.067c.054.128.087.188.1.188s.047,0,0-.061v-.04a.437.437,0,0,1,.061-.087.081.081,0,0,0,.061-.081h.081a.114.114,0,0,1,.04.074v.121c0-.02,0,0,.047,0v.04a.074.074,0,0,1-.061-.061h0a.39.39,0,0,0,.094-.081l.067-.081a.182.182,0,0,0-.081,0h0a.135.135,0,0,0,.074,0h.074c.034,0,.054.04.04.121h0a.175.175,0,0,1,.128.054.37.37,0,0,0,.135.074h.04a.121.121,0,0,1-.054-.04h-.047c-.047,0-.061,0-.061-.04v-.04h.04a.114.114,0,0,1,.141,0s0,.04,0,.04h0a.074.074,0,0,0,.081-.081h.04v.04s-.034,0,0,.04a.061.061,0,0,0,.04,0h.061l.04.061c.04.061,0,0,.047,0h0a.148.148,0,0,1,0-.067s0-.047-.067-.074-.034-.047,0-.061,0,.047,0,.054.047,0,.047,0v-.04s-.047.04-.047,0h.168a.431.431,0,0,1,.094.141s0,.04.04,0h.04a.061.061,0,0,1,0,.04h0v-.04q-.081-.061,0-.121a1.224,1.224,0,0,0,.1-.081.061.061,0,0,0,.04,0,.114.114,0,0,1,.04.081h-.047a.249.249,0,0,1,0,.074H171.4l.04.04c.04.04,0,.04,0,.081v.061a.034.034,0,0,1-.04.04h0l.04.04h-.1a.188.188,0,0,0-.121-.1h-.04q.1.04,0,.081L171,90.94h-.087c0-.054,0-.081-.081-.061s0-.047-.04-.047v-.04a.061.061,0,0,1,.04,0s0,.047,0,.047a.04.04,0,0,0,.04.04h.04l-.188.067-.2.074a.06.06,0,0,0,0-.04h0v.04h0q-.081.081-.121,0a.081.081,0,0,0-.081.04v-.3h.04c0,.067-.054.094-.114.081a.3.3,0,0,0-.114,0h-.04v-.061h-.081v.054a.356.356,0,0,1,0,.074H169.9q-.061,0-.061.04h-.04c-.04,0-.087.081-.1.081a.1.1,0,0,0-.067,0h-.1a.182.182,0,0,1-.161.087.229.229,0,0,0-.182.1h-.061a.067.067,0,0,0-.061-.04h0c.061,0,.047,0,0,.054a.881.881,0,0,1-.276.108.451.451,0,0,0-.215.114.067.067,0,0,1-.081,0,.04.04,0,0,0-.061,0,.208.208,0,0,0-.074.061.054.054,0,0,1-.074,0,.04.04,0,0,0-.061,0,.135.135,0,0,1-.061.061,1.345,1.345,0,0,0-.242.114,1.151,1.151,0,0,1-.262.114.087.087,0,0,0-.074.04.208.208,0,0,1-.074.061,1.851,1.851,0,0,0-.242.1,1.244,1.244,0,0,0-.222.141.262.262,0,0,1-.188.061h0a1.117,1.117,0,0,0-.1.336,4.589,4.589,0,0,1-.141.565,4.373,4.373,0,0,1-.289.673,2.771,2.771,0,0,1-.525.713,1.433,1.433,0,0,1-.511.336,1.514,1.514,0,0,1-.491.087.841.841,0,0,1-.4-.087.626.626,0,0,1-.256-.235.188.188,0,0,0-.081-.054.141.141,0,0,1-.081-.067l-.04-.081a.155.155,0,0,1,0-.061.081.081,0,0,0,0-.108.054.054,0,0,1,0-.081,2.589,2.589,0,0,1,.061-.3,1.278,1.278,0,0,1,.35-.572l.04-.081h0v.061a.06.06,0,0,1,0-.04v.242q.081.04.141-.061a.055.055,0,0,1,.047-.054c.047-.007,0,0,0-.047s0-.061.054-.054.047,0,.047,0l.061-.047.061-.054V93.1a.054.054,0,0,0,.074,0,.106.106,0,0,1,.087-.114.155.155,0,0,0,.114-.067.282.282,0,0,0,.161-.094.4.4,0,0,1,.161-.108.175.175,0,0,0,.074-.067h.067l.108-.128a.153.153,0,0,1,.141,0h.04c0-.067,0-.108.074-.128l.108-.054a.209.209,0,0,0,.155-.256,2.152,2.152,0,0,1,0-.6.531.531,0,0,0,0-.289.673.673,0,0,1,0-.283v-.1a.276.276,0,0,1,0-.121v-.256a1.574,1.574,0,0,0,0-.256.4.4,0,0,1,0-.155.417.417,0,0,0,0-.155.161.161,0,0,0,0-.168.2.2,0,0,1,0-.175.094.094,0,0,1,0-.114.168.168,0,0,0,.04-.114v-.121a.141.141,0,0,1,.047-.1,1.1,1.1,0,0,1,.242-.451,1.184,1.184,0,0,1,.43-.343.175.175,0,0,1,.128,0,.108.108,0,0,0,.114-.047.135.135,0,0,0,.121,0,.383.383,0,0,1,.121,0,.249.249,0,0,0,.121,0,.269.269,0,0,1,.128,0h0c0,.04,0,.054.081.047s.087,0,.1.094h-.04q.061,0,.061.04.081.182.222.182s.04,0,0,.04h0a.1.1,0,0,0-.081.047h-.04a.034.034,0,0,0-.04.04h-.04v-.04h0a.081.081,0,0,1-.061,0h0a.081.081,0,0,0,.081.061h0v-.04a.081.081,0,0,0,.061,0c.067,0,.1,0,.094.067a.148.148,0,0,0,0,.094s.04,0,.034-.054h0s.054.054,0,.081l-.054.061c-.054,0-.054.047,0,.054s.04.034,0,.087h0s0-.081-.04,0,0,.047-.04,0a.5.5,0,0,0-.047-.081.074.074,0,0,1,0-.081q0-.081-.061-.081s-.047,0-.054-.034,0-.04-.047,0h-.37a.545.545,0,0,0-.2,0,.417.417,0,0,0-.128.094,1.42,1.42,0,0,1-.209.161,1.2,1.2,0,0,0-.081.256,2.017,2.017,0,0,0,0,.673v.915a1.258,1.258,0,0,0,0,.357.807.807,0,0,1,0,.336.1.1,0,0,1,0,.121q-.04.061,0,.1a.365.365,0,0,0,.256-.108.5.5,0,0,1,.357-.114l.155-.121a.2.2,0,0,1,.175-.04h.04a.09.09,0,0,1,.074-.094.175.175,0,0,0,.087-.054.182.182,0,0,1,.155-.047.128.128,0,0,0,.135-.094h.108c.02,0,.054-.047.094,0s0-.061.061-.061a.182.182,0,0,0,.081,0,1.2,1.2,0,0,1,.242-.094,1.554,1.554,0,0,0,.565-.242.081.081,0,0,0,.061,0l.061-.061Zm1.836-.41v.04h0Zm-1.406.471h0v.081h0v-.067h.04Zm-.821.262h0a.061.061,0,0,0,0,.04h-.04v.04Zm1.244-.249h0a.06.06,0,0,0,0-.04h0Zm-1.957.552h0v-.061h0Q168.37,91.317,168.411,91.317Zm-.283-2.859h0v-.04h.04q-.061.04-.061,0h.061Zm-2.509,4.406h.04l.04-.04q-.061-.04-.081.04a.061.061,0,0,1-.04,0h0Zm4.567-2.26.04.04h-.04a.37.37,0,0,0,0-.108c-.067,0-.094.054-.081.074a.074.074,0,0,0,.061,0ZM166,93.133h0q0,.061-.04.061a.2.2,0,0,0-.1.04.262.262,0,0,1-.087.087.316.316,0,0,0-.081.061l-.552.478a1.641,1.641,0,0,0-.424.558.054.054,0,0,1-.034.054v.087a.121.121,0,0,0,.054.04.451.451,0,0,0,.39-.04,1.439,1.439,0,0,0,.545-.417,2.569,2.569,0,0,0,.316-.484c.074-.161.128-.3.168-.41s.054-.188.067-.215H166.1a.316.316,0,0,1-.168.087Zm3.848-2.462s-.034,0,0,.04a.047.047,0,0,0,.047.04h0a.054.054,0,0,0-.054-.047Zm-.121.161-.04-.061h-.04v.04a.034.034,0,0,1,.04.04h0Zm.289.141h.04a.081.081,0,0,0-.061,0v.061Zm-2.59.915a.061.061,0,0,0-.074,0h.054Zm3.047-1.123c.074-.04.087-.061.054-.061a.074.074,0,0,0-.074.04h0Zm-.975.1h-.02Zm1.244-.2v0Zm.222,0a.061.061,0,0,1-.04,0v.047h0v-.081Zm-.854.1h-.074v.04h.04Zm.383-.121V90.6q-.061.061,0,.061h0Zm-6.316,3.928h0v-.04h0Zm.289-.794c-.034,0-.034.04,0,.04h0Zm7.621-3.525a.094.094,0,0,1-.034-.161h-.04v-.04l-.074.04h-.094a.162.162,0,0,0,0,.1h0q-.04.061,0,.1a.04.04,0,0,0-.04.04.06.06,0,0,1,0,.04q.061.04.081,0a.317.317,0,0,1,.061-.081.061.061,0,0,0,.061-.047c0-.04.04,0,.067.047s0,0,.04,0l.121-.081Zm-.121,0h0s.054,0,.04.04Zm-1.285.04h.087a.161.161,0,0,0,.114,0H171a.135.135,0,0,1,0-.061l-.034-.04a.081.081,0,0,0-.081.04h-.121c-.027,0-.074.047-.1,0v.061Zm1.487-.061q0,.061-.081,0a.168.168,0,0,0-.034-.141h0l-.04.061a.061.061,0,0,0-.04,0,.168.168,0,0,1,0-.074l.114-.047h0a.525.525,0,0,0,.121.222Zm.2-.121a.067.067,0,0,1-.047,0h-.054q-.121.081-.1.161a.182.182,0,0,1,.081,0s.04,0,.04-.081a.061.061,0,0,1,.04,0l.04-.04Zm-1.2-.04v.04c0-.04-.04-.047-.054,0a.239.239,0,0,0,0,.1h0l.054-.04v-.061h0Zm-2.691-.861-.061.067a.034.034,0,0,0,.04.04h.128c.061,0,0-.04-.04,0s-.04,0-.067-.054Zm.067-.222a.787.787,0,0,0,0,.155h.047c.047,0,.034,0,0-.047s0-.04,0-.054l-.061-.04Zm-.168.814s.034,0,.061-.047,0-.061,0-.074h-.04a.04.04,0,0,0,0,.054l-.034.047Zm-.444-.081h0l-.054.04v.061h.061V89.77h-.04Zm3.908.182h.108a.067.067,0,0,1-.067.047A.042.042,0,0,1,171.835,89.9Zm-1.426.572a.081.081,0,0,0,0-.061h-.081a.108.108,0,0,0,.034.074h.067Zm-2.1-1.117h0a.067.067,0,0,0-.081,0v.04a.081.081,0,0,0,.081-.04Zm.161-.188-.04-.061v.081h.034Zm4.251.787V89.9h0Zm-2.852.545a.081.081,0,0,1,.061,0h.04q-.1-.04-.121,0Zm-1.978-.363h-.034c-.034,0,0,.04.034.04Zm.464-.673V89.42h-.04c-.04,0-.04,0,.04.04Zm2.98.592A.067.067,0,0,0,171.3,90h0s.04.047.04.061ZM172.581,90a.034.034,0,0,1,.04.04h-.04v-.067Zm-4.668-.289h0q-.155,0,0,.061Zm.565-.753h0a.047.047,0,0,0-.04-.081q0,.081.061.081Zm1.715,1.487h.04v0ZM168.37,89.42V89.5a.094.094,0,0,1,0-.04l-.054-.04Zm-.161.3h0v.061h0Zm-.061.168v0Zm3.283.081h-.04l.034-.047Zm.814-.33h.02Zm-.41.121h.02Zm-3.256-1.117a.061.061,0,0,1-.04,0v-.02Zm0,.484h0q-.061.061,0,.061v-.04Zm-.081-.565v-.02c-.047,0-.054,0,0,.067h0Zm3.989,1.446Zm-1.076-.04.061-.04h-.061Zm-3.363-.04v.04h0v-.04Z" transform="translate(-53.663 -28.79)" fill="#fff" fill-rule="evenodd"/>
        <path id="Path_8316" data-name="Path 8316" d="M180.51,91.655h0v-.02Zm.061,0h0v.081h.04a.06.06,0,0,1,0-.04v-.04Zm-.161.1Zm-.283.121a.08.08,0,0,0-.061.04v.04a.061.061,0,0,1,.04,0v-.04h0Zm1.345-.363h-.04v.04h0Zm-.531.161v.04h.081l-.061-.04h0Zm-.309.222Zm0-.242h0v0Zm0,0v0Zm.067.222h0v-.04h0Zm-3.511-2.691h0v-.04l-.04.04Zm.289-.121Zm-2.428,2.078v0Zm.552-.464a.081.081,0,0,0,0,.061h0V90.7h0Zm2.408-.43v.04h0Zm4.668-.04a.081.081,0,0,1,0,.061h0v-.04Zm.121.04h.04a.081.081,0,0,0,0-.061h-.061l.04.061Zm-1.063.915q-.081,0-.081.061a.114.114,0,0,0,.081,0,.061.061,0,0,0,0-.04Zm-.531.35h0v.04h0a.034.034,0,0,0-.04-.04Zm.41-.269V91.2h0Zm-.37.209Zm.962-.861h0a.1.1,0,0,0,0,.047.08.08,0,0,1-.04.061.081.081,0,0,0,0,.061q.04.161-.061.222h0q-.061-.061-.061,0V91.1s-.094,0-.108-.04a.067.067,0,0,0-.081,0V91.2l-.141.148h-.061a.054.054,0,0,0-.061,0,.047.047,0,0,1-.061,0h-.04l-.094.074a.182.182,0,0,0-.074.114.074.074,0,0,0,.067,0,.067.067,0,0,1,.061,0h.121a.121.121,0,0,1-.054-.034.5.5,0,0,0-.108.081.221.221,0,0,1-.074.054H181.2a.162.162,0,0,0-.074.067q-.04.1-.182.061a.107.107,0,0,0,0,.054h-.04a.182.182,0,0,1-.114.108.444.444,0,0,0-.128.061l-.249.121a.854.854,0,0,1-.262.081.1.1,0,0,0-.054,0h-.108c-.034,0-.061.04-.087,0a.081.081,0,0,0-.081,0h-.04a.827.827,0,0,1-.363,0,.726.726,0,0,1-.188-.04,1.009,1.009,0,0,1-.323-.3l-.081-.215a.672.672,0,0,1-.04-.235,1.392,1.392,0,0,0,0-.2.874.874,0,0,1,.094-.316l.061-.141a2.538,2.538,0,0,0,.175-.323,1.514,1.514,0,0,1,.168-.309,3.915,3.915,0,0,0,.256-.4l.235-.4a.081.081,0,0,0,0-.061h-.04a.114.114,0,0,0-.081.04.114.114,0,0,1-.081.04.04.04,0,0,0-.061,0,.134.134,0,0,1-.061.061l-.1.074a.4.4,0,0,1-.108.047.094.094,0,0,0-.067,0l-.054.047a.417.417,0,0,1-.128.094.209.209,0,0,0-.114.114.074.074,0,0,1-.074.061c-.034,0-.054,0-.067.061a.067.067,0,0,1-.061.04.034.034,0,0,0-.04.04c0,.04,0,.054-.047,0s-.04,0-.04.054,0,.04-.081.081a.242.242,0,0,0-.047.061l-.034.04q-.081.121-.141.1a.182.182,0,0,1-.061.114l-.027.4a.572.572,0,0,1-.1.121v.094a.375.375,0,0,0-.087,0c-.013,0,0,.067,0,.081l-.074.061a.283.283,0,0,0-.061.094.209.209,0,0,1-.081.094.262.262,0,0,0-.121.121,1.063,1.063,0,0,1-.1.161.2.2,0,0,1-.141.061h-.128q-.061,0-.04-.081A.283.283,0,0,1,177,91.5a.034.034,0,0,1-.04-.04,1.157,1.157,0,0,1,.074-.309,1.515,1.515,0,0,1,.087-.283l.074-.182a.58.58,0,0,1,.067-.188.41.41,0,0,0,.034-.081.168.168,0,0,1,.047-.081.087.087,0,0,0,0-.081.087.087,0,0,1,.034-.081.323.323,0,0,0,.047-.135.336.336,0,0,1,.054-.135l.067-.141a.672.672,0,0,0,.054-.141v-.135h-.04l-.061.04-.04-.061h0v.047h-.04l-.209.155a1.486,1.486,0,0,0-.2.168l-.182.148a1.224,1.224,0,0,0-.168.161.9.9,0,0,1-.128.175.511.511,0,0,1-.175.108.5.5,0,0,0-.081.108l-.081.1-.114.161a.329.329,0,0,1-.135.121.282.282,0,0,0-.061.094.121.121,0,0,1-.061.067.625.625,0,0,1-.1.175.767.767,0,0,0-.1.155.182.182,0,0,0-.054.108c0,.054-.04.061-.108,0v.061a.155.155,0,0,0,0,.061l-.04.04c-.04.04-.04,0-.04.061a.558.558,0,0,1-.135.209.794.794,0,0,0-.155.182l-.1.081-.1.081a.229.229,0,0,1-.209.081,1.15,1.15,0,0,1-.2-.061h0a.087.087,0,0,0-.054,0h0v-.04h0l-.04-.2a.182.182,0,0,1,0-.135.141.141,0,0,0,0-.135.128.128,0,0,1,0-.128c0-.047.04-.094.054-.135a.794.794,0,0,0,0-.135.31.31,0,0,1,.054-.128l.2-.431c.061-.135.135-.283.215-.43s.168-.323.262-.484a3.792,3.792,0,0,1,.309-.471l.242-.309.242-.3.309-.309a.175.175,0,0,1,.1-.047.323.323,0,0,0,.121-.054.08.08,0,0,1,.061.04c.027.04.034,0,0,.04s0,0,0,.04h.081c.054,0,.074.067.061.108a.37.37,0,0,0,0,.2q.04.1,0,.121a.673.673,0,0,1-.2.2.343.343,0,0,0-.061.087.316.316,0,0,1-.061.081,2.09,2.09,0,0,0-.2.222l-.2.242-.121.188-.161.235a1.265,1.265,0,0,0-.141.249c-.054.1-.114.188-.168.276a1.056,1.056,0,0,0-.121.3.182.182,0,0,0,.1-.1.605.605,0,0,1,.229-.283v-.04a.78.78,0,0,1,.161-.229l.054-.061a.094.094,0,0,1,.047-.04.067.067,0,0,0,.04-.061.034.034,0,0,1,.04-.04q.081-.161.161-.161v-.04c0-.04,0-.081.061-.081a.236.236,0,0,0,.061-.047.081.081,0,0,1,.061,0,.134.134,0,0,1,.061-.121.188.188,0,0,0,.121-.1l.061-.047.061-.054a.363.363,0,0,1,.1-.1l.209-.161.2-.168a.471.471,0,0,1,.121-.081.222.222,0,0,0,.1,0,.269.269,0,0,1,.188-.121l.182-.061q.061-.061.1,0t.081,0q.04-.061.141.04a.249.249,0,0,0,.148.121.33.33,0,0,1,.1.309s0,.04,0,.047v.054a1.1,1.1,0,0,1-.04.3l-.081.289h0a.451.451,0,0,0,.1-.094l.081-.094a1.729,1.729,0,0,1,.222-.222.242.242,0,0,0,.114-.074l.094-.087a1.4,1.4,0,0,0,.148-.135.612.612,0,0,1,.155-.114l.155-.081.148-.1a.343.343,0,0,1,.188-.1l.2-.094a.774.774,0,0,1,.222-.067l.128-.04a.081.081,0,0,1,.061,0h.02l.061.061a.8.8,0,0,0,.1.121.538.538,0,0,1,.1.141.437.437,0,0,1,0,.161,1.657,1.657,0,0,0,0,.188.444.444,0,0,1,0,.141,1.108,1.108,0,0,1-.061.141,1.9,1.9,0,0,1-.155.309l-.188.283-.256.451c-.087.148-.175.3-.256.444a1.272,1.272,0,0,0-.114.35.357.357,0,0,0,0,.182.175.175,0,0,0,.074.081.182.182,0,0,0,.081,0,.437.437,0,0,0,.161,0l.141-.034.33-.121.2-.074a.424.424,0,0,0,.168-.108h.148a.215.215,0,0,0,.061-.087q.081-.04.1,0v.04a.148.148,0,0,0,0,.061h-.081a.222.222,0,0,1,0,.1h.04a.061.061,0,0,1,.04,0l.04-.04.061-.04-.04-.074v-.094a.114.114,0,0,1,.081,0,.087.087,0,0,1-.054.054v.054c0,.054.054.047.081,0s.047,0,0-.04v-.067a.276.276,0,0,1,.081.108h0a.451.451,0,0,1,.081-.094l.108-.054h.215v-.1c0-.04-.054,0-.04-.04h0a.125.125,0,0,1,.081.04h.04v-.04h.1v.081a.114.114,0,0,0,.081-.04.081.081,0,0,0,0-.061h.061c.013,0,0,0,0,.054a.061.061,0,0,0,.04,0h.04s.047,0,.047-.04h-.04v-.04c0-.04,0,0,.04-.034a.054.054,0,0,1,.067,0h.04l.061-.061V90.7h0a.034.034,0,0,0-.04.04q0,.061,0,.061h-.108v-.04s.067,0,.108-.108Zm-7.137.531h0v0Zm.552-.424v.04h0a.081.081,0,0,1,0-.061h0Zm1.608-1.554v.04h0l.04-.04Zm.269-.061Zm.531,1.2v-.04h.04s0,.047-.04,0Zm2.018,1.648V91.9s.047-.04.061-.04h0v.04a.061.061,0,0,0-.04,0Zm.323-.182Zm.081-.081h0v.061q-.061,0,0-.04Zm.1,0a.06.06,0,0,0,0,.04h-.04v-.081h0v.04Zm.04-.061v0Zm0,.283Zm0-.182v0Zm.108.121v.04h0v-.04Zm.262-.141h-.081v-.04h0l.061.04Zm.43-.182h.02Zm-.209.061h0q-.061,0,0-.04h0a.034.034,0,0,1,.04.04h0Zm.04-.1Zm.39-.249h0v-.04h0Zm.081,0a.114.114,0,0,1-.081,0q0-.081.081-.061h0a.061.061,0,0,1,0,.04Zm.942-1a.081.081,0,0,1,0,.061h.04q.04.1.081,0h.034c.034,0,0,0,0-.04v-.1c0-.04-.061,0-.061,0h.04a.114.114,0,0,0,.04-.081.343.343,0,0,0-.242.2Zm.229-.067a.081.081,0,0,1,0,.061h-.04c-.04,0-.04-.047-.04-.061s0,0,.061,0Zm-1,.673h0a.094.094,0,0,0-.047.04.121.121,0,0,1-.054.04v.04s.04.047.04.061h.061v-.1h.04Zm.552-.309q.04.081.121,0v.087a.148.148,0,0,0-.061.047.074.074,0,0,1-.061,0,.034.034,0,0,1-.04-.04h.081s0-.047-.04-.047,0-.04,0-.081Zm-1.1.572a.182.182,0,0,0,0,.141.087.087,0,0,0,.074-.04h.074c.027,0,0-.054-.034-.047a.108.108,0,0,1-.074,0v-.04l-.047-.04q0-.081-.061,0,.061,0,0,.061Zm1.345-.794a.081.081,0,0,0,0,.061h0a.1.1,0,0,0-.121,0c-.054.047,0-.047,0-.061v-.04c0-.04.04-.047.04,0s0,0,.034,0h0Zm-.121.242a.1.1,0,0,0,.074,0h.067c0-.04,0-.054-.047-.047s-.054,0-.054-.054h-.04v.1Zm-.794.188h.04l.04-.04a.1.1,0,0,0-.1,0v.04h0Zm.673-.309h-.04c-.04,0,0,0,0,.04l.04.04v-.1Zm-.774.451Zm.283.061h.04V90.9q0-.061-.04,0Zm.922-1.063.061-.04v.04a.081.081,0,0,1-.061,0Zm-.39.471h0v.04h0Zm.592-.242q.061,0,0,.04h0a.081.081,0,0,1,0-.061Zm-.673.673v.04h0v-.061Zm-.471-.1h-.061l.061.04v-.061Zm1.265-.632v.04l-.04.04v-.081Zm-.161-.41s-.04-.047-.04-.061h.04v.04Zm-1,.915Zm-.04.081H182v-.04h-.04Zm.188-.061h0v-.04Zm-.673.39V91h.04Zm-.309.262h0v.04c0,.04.04,0,.04-.061Zm-.121.04h0v-.04h0Zm0,.04h.061v-.04h-.061Zm1.7-1.218v-.04h.04v.04h0Zm-.612.323v-.04h0Zm.915-.424a.061.061,0,0,1-.04,0v-.047h0v.047Zm-.3.383H182.7l.047-.04h0Zm0-.121Zm-1.816,1.224v.04a.06.06,0,0,0,0-.04Zm1.628-1a.081.081,0,0,0,0-.061S182.554,90.4,182.554,90.465Zm-1.345.774v.02h0v-.141q-.121,0-.081.121Z" transform="translate(-57.078 -28.859)" fill="#fff" fill-rule="evenodd"/>
        <path id="Path_8317" data-name="Path 8317" d="M189.6,88.152s.047.04.061.04h.061a.182.182,0,0,1,.081,0v.081a.114.114,0,0,0,0,.094l.04.094a.128.128,0,0,1,0,.1l-.081.108-.081.114a1.568,1.568,0,0,0-.249.309l-.2.323a3.25,3.25,0,0,0-.182.336c-.054.114-.108.229-.168.336a2.019,2.019,0,0,0-.161.37q-.061.182-.121.343a.336.336,0,0,0,0,.155.148.148,0,0,1,0,.128.188.188,0,0,1,0,.188.188.188,0,0,0,0,.182.929.929,0,0,0,.074.161.229.229,0,0,0,.128.1h.175a.269.269,0,0,0,.155,0,.061.061,0,0,1,.067,0,.074.074,0,0,0,.074,0,.275.275,0,0,0,.074-.047h.067c.027,0,.04-.067.074-.04s.054,0,.067,0a.114.114,0,0,1,.081-.04.121.121,0,0,0,.087-.04.114.114,0,0,1,.081-.04.114.114,0,0,0,.081-.04.3.3,0,0,1,.141-.081.3.3,0,0,0,.141-.081c.054,0,.081,0,.081-.034a.067.067,0,0,1,.04-.067.672.672,0,0,0,.175-.094l.155-.114c.135-.081.269-.168.4-.262a3.128,3.128,0,0,0,.357-.3.162.162,0,0,1,.1,0v.047h-.04a.3.3,0,0,1,.121-.148,1.235,1.235,0,0,0,.148-.114h.034c.034,0,0,.04,0,.04a.061.061,0,0,1,.04,0q.04.081.081.061l.081-.081h0a.067.067,0,0,1-.1,0h-.04a.047.047,0,0,1-.04,0,.114.114,0,0,1,0-.081.673.673,0,0,0,.141-.141q.04-.081.081,0a.114.114,0,0,1,.081-.04s.034,0,0-.081,0-.04,0,0l.054.061a.14.14,0,0,0,0,.04q0,.061.061,0h-.047l-.061-.061c0-.061,0-.094.04-.108v.04h0V89.8a.114.114,0,0,1,.04-.074.309.309,0,0,0,.114-.061.376.376,0,0,1,.114-.061h.04v.04a.316.316,0,0,0-.061.081h-.1v.034c0-.007,0,0,.034,0s.1.047.141,0a.087.087,0,0,1,.061-.047.094.094,0,0,0,.061-.054l.04-.04a.571.571,0,0,0,.121-.1s.034-.047,0-.054-.034,0-.034,0h-.04v-.1h0l.081.061.034.04h.047c.047,0,0-.034,0-.1h0v-.04h-.047c-.054,0-.061,0,0-.067s0,0,0-.04h0l.108.04h.04a.074.074,0,0,0,0,.047s.067,0,.121-.108a.081.081,0,0,1,.061,0,.054.054,0,0,1,0,.054h0s.047-.054,0-.081,0-.121.04-.121h.034a.034.034,0,0,0,.04.04v.061s.047.04.061.04h0q0-.061-.04-.061h-.04a.034.034,0,0,0-.04-.04.356.356,0,0,0,.034-.1c0-.04,0-.067.087-.081a.081.081,0,0,0,.04.081q-.04.1.061.061v.04h-.047c0-.067,0-.087-.081-.061,0-.04.054-.054.074-.047h.074l.061-.061h-.128V88.8h.047l.1-.04v-.1h.034a.135.135,0,0,1,.061-.061.316.316,0,0,0,.081-.061h.054c.054,0,.047.04,0,.081s0,.074.061.061h.04a.081.081,0,0,1,0,.061h-.121V88.8a.074.074,0,0,0-.094,0s-.04.047-.067.047-.061,0-.061-.04v-.061h0v.04q-.061,0-.061.04a.158.158,0,0,0,.04.1c.04.04.054.04.047.04h-.047v.061c0,.061,0,.054-.04,0s-.074,0-.087,0,0,.061,0,.061h-.061v.04h0s-.04.047-.04.061h0a.034.034,0,0,0-.034,0h-.04a.249.249,0,0,0,0,.121c0,.04-.034.047-.114,0a.081.081,0,0,0,0,.094s0,.047-.081.047a.114.114,0,0,0-.081.054.1.1,0,0,1-.081.047c-.047,0-.061,0-.047.054s0,.047,0,.074a.431.431,0,0,0-.1.087.134.134,0,0,1-.141,0h.054c.054,0,0,0-.034.04s0,0,0,.047,0,0-.034,0v-.04h.04l-.182.121c-.054.094-.114.135-.188.121v.04a.094.094,0,0,1-.047.094l-.094.074-.081.081-.081.081a.511.511,0,0,0-.074.094.092.092,0,0,1-.108,0l-.04.04a1.345,1.345,0,0,1-.235.249l-.276.2a.276.276,0,0,0-.161.087.673.673,0,0,1-.148.135,1.1,1.1,0,0,0-.148.094,1.153,1.153,0,0,1-.155.087,1.951,1.951,0,0,1-.471.249l-.061.04a.794.794,0,0,1-.3.121l-.215.074-.215.047a1.89,1.89,0,0,1-.43.034,1,1,0,0,1-.424-.135l-.161-.081a.558.558,0,0,1-.168-.121.734.734,0,0,1-.121-.209l-.081-.2a.1.1,0,0,1,0-.087.114.114,0,0,0,0-.094.148.148,0,0,1,0-.094.524.524,0,0,0,0-.108.921.921,0,0,0,0-.108.162.162,0,0,1,0-.1.168.168,0,0,0,.034-.121.229.229,0,0,1,0-.141.114.114,0,0,0,.034-.1.162.162,0,0,1,0-.1.1.1,0,0,0-.087.04l-.074.081h-.054c-.054,0-.034,0-.047.04a.161.161,0,0,1-.054.061l-.047.04a.383.383,0,0,1-.108.1l-.1.081a3.236,3.236,0,0,0-.269.726l-.094.081a.182.182,0,0,1-.114.04h-.034a.558.558,0,0,1-.222.242l-.283.168a3.063,3.063,0,0,1-.33.168.673.673,0,0,1-.343.054.2.2,0,0,1-.148-.04.2.2,0,0,0-.141-.061q-.121-.04-.141-.081a.411.411,0,0,1-.081-.209v-.188q0-.1,0-.2a1.171,1.171,0,0,1,.161-.417c.081-.135.161-.256.242-.377a4.231,4.231,0,0,1,.592-.8l.309-.343.4-.41a5.59,5.59,0,0,1,.673-.5,3.9,3.9,0,0,1,.72-.39,1.271,1.271,0,0,1,.229-.061,1.07,1.07,0,0,0,.222-.061.4.4,0,0,1,.43.161l.081.061q.081.04.1,0a.128.128,0,0,1,.121-.081.249.249,0,0,0,.141-.04c.047,0,.067,0,.067.061h-.047v-.04Zm3.686,1.063h0a.09.09,0,0,1,.072-.049.034.034,0,0,0,.009-.031h0v.04a.034.034,0,0,0-.04.04Zm-5.22.592V89.76h0v.047Zm5.771-1.1Zm-6.424,1.749h-.04Zm3.814.309h0v-.04h0Zm-2.913-1.2h0v-.081a.134.134,0,0,1,.04-.1.316.316,0,0,0,.047-.047.061.061,0,0,0,.04,0h-.04l.363-.39a.209.209,0,0,0,.054-.067.507.507,0,0,1,0-.074v-.061h-.074a.155.155,0,0,0-.121,0l-.121.074a2.926,2.926,0,0,0-.713.4l-.2.135a2.167,2.167,0,0,0-.2.175l-.525.531a2.5,2.5,0,0,0-.289.323l-.242.33-.249.336a2.1,2.1,0,0,0-.2.357.121.121,0,0,1-.054.061v.061c0,.061,0,0,.04,0l.04-.047.276-.2.276-.2.121-.121.141-.121.289-.2.182-.168a.767.767,0,0,1,.2-.141h0a.363.363,0,0,0,.1-.1.208.208,0,0,1,.128-.081h.047a.1.1,0,0,1,.074,0h0L187.732,90a.081.081,0,0,1-.067,0l.148-.161a.619.619,0,0,1,.175-.148.484.484,0,0,0,.2-.2h.108c.054,0,0,.081.04.081Zm4.46.161v-.04h-.04a.081.081,0,0,1,0,.061h0l-.061-.04Zm-.854.39v-.04h0l.04.04q.061.04.121-.04a.074.074,0,0,0,.081-.081.034.034,0,0,0-.04-.04q-.061,0,0,.04v.081l-.121.04Zm-3.733-.39a.034.034,0,0,0,.04-.04.115.115,0,0,0,0-.081h-.04v.121h0Zm3.511.673-.04-.04h-.067a.087.087,0,0,0-.047.054v.074h.04l.148-.108Zm1.413-1a.054.054,0,0,0,.061-.061l-.061-.007v.061a.034.034,0,0,0,.04.04Zm-.37.451h0a.114.114,0,0,0-.081,0v.1a.215.215,0,0,1,.081-.1Zm-.363.141v.061h0a.114.114,0,0,0,.081,0l-.02-.047h-.067Zm-4.709.161h-.04a.034.034,0,0,0-.04.04h0l.061-.061Zm4.359.04h.04l-.04-.04Zm1.2-.861v.04h0Zm-5.28.612v0Zm5.482-.713h0v.04h0Zm-5.442.545h0v0Zm4.446.047Zm-.081,0h-.02Zm-.128.444h.047c0-.04,0-.047-.047,0Zm-.525,0Zm-.471.982h0v0Zm-.35-.229v0Zm2.61-2.462a.484.484,0,0,0-.168.108c-.054.047-.094.094-.135.135l.04.04h.04q.081.04.04-.04a.04.04,0,0,1,0-.061h0a.067.067,0,0,0,.081,0l.04-.081a.181.181,0,0,0,0-.081Zm.612,0v-.1q.04-.141-.081-.141H194l.054.04v.061c0,.061.04,0,.034.054h0Zm.04,0a.054.054,0,0,1,.034-.054v-.054c0-.054,0-.054.061-.081h.087a.128.128,0,0,0,0,.087q0,.061-.04.061Zm-1.507.895V89.4c0-.054,0,0-.061,0h.02Zm1.527-1.244h.061l.04.04-.04.04-.061-.04h.04Zm-.673.35h.04a.067.067,0,0,0,.061,0V88.5h-.04a.067.067,0,0,1-.061,0Zm-.424.363a.114.114,0,0,0-.081.04v.061l.1-.04v-.061Zm0,0h-.027Zm-.43.673a.034.034,0,0,1,.04-.04v-.04l-.034-.04-.04.061.04.061Zm1.083-1.2q-.061,0,0,.061h.04v-.04h0Zm.121-.161s-.04,0-.04.061h0l.04-.04h0Zm.04-.061h.04a.034.034,0,0,0-.04-.04Z" transform="translate(-60.6 -28.699)" fill="#fff" fill-rule="evenodd"/>
        <path id="Path_8318" data-name="Path 8318" d="M196.814,89.9c0,.067-.034.094-.061.087s-.04,0-.04.054a.4.4,0,0,1-.04.182c-.067.067-.1.108-.094.121s0,0,0,.061a.054.054,0,0,1-.081,0h0c.034,0,0,.074,0,.061s-.04,0,0,0h-.054l-.1.121-.081.1h-.175a.054.054,0,0,0-.054,0h.074v.04a.081.081,0,0,1-.054.081c-.034,0-.04.04,0,.081h-.061c-.054,0-.081.047-.061.1s0,.074,0,.135-.074.094-.1.094a.444.444,0,0,1-.121.061v-.04h0v.081c0-.067-.047-.087-.067-.061a.282.282,0,0,0-.054.081h.061q0,.1-.061.1t-.04.061c-.094.094-.135.161-.121.188s0,.047,0,.061a.558.558,0,0,1-.061.161h-.034a.148.148,0,0,1,0-.061v.121a.046.046,0,0,0-.047.047.061.061,0,0,1-.04.054.135.135,0,0,0,0,.121c-.067,0-.081.054-.047.074s0,0-.054,0-.04,0,0,.061h-.034a.148.148,0,0,0-.108,0,.141.141,0,0,0-.047.094.551.551,0,0,1-.04.128.417.417,0,0,1-.128.155l-.081.04-.108.04a.067.067,0,0,1-.061-.04h-.081a.094.094,0,0,0-.081-.054c0-.054-.054-.061-.074,0s-.04,0-.067-.04a.263.263,0,0,1,0-.094.276.276,0,0,0,0-.108.121.121,0,0,1,0-.148,9.567,9.567,0,0,0,.478-.955,14.292,14.292,0,0,1,.827-1.527,6.408,6.408,0,0,1,.417-.733,9.778,9.778,0,0,1,.706-.982.3.3,0,0,1,.1-.121.9.9,0,0,1,.161-.081q.121,0,.141.061a.2.2,0,0,0,.1.081.053.053,0,0,1,.061.061v.04a.141.141,0,0,0,0,.121l.04.081a.377.377,0,0,0-.1.188,1.036,1.036,0,0,0-.168.215l-.155.229a.43.43,0,0,0-.074.108.376.376,0,0,1-.067.1l-.155.2a.807.807,0,0,0-.114.242s-.04,0-.04.087-.067,0-.04.061a.054.054,0,0,0,.054,0s0,0,0-.047h.04q.04.061.1,0,0,.1-.061.1h-.141v.161c0,.04-.04,0-.04,0v.061c0,.1-.054.067,0,.121a.377.377,0,0,0-.114.061c-.034,0-.04.054,0,.081s0,.047.061,0,.04,0,.047,0a.1.1,0,0,1,.054-.074q0,.1.061.04l.04-.04v0h-.1v-.081q.141,0,.121-.121a.054.054,0,0,1,.074,0,.188.188,0,0,0,.067.061l.04.04c.067-.067.087-.108.061-.114a.087.087,0,0,1-.061-.047q-.1,0-.061-.04c.054-.067.1-.087.135-.061a.161.161,0,0,0,.074.04h0V89.8l-.128-.067h.108a.061.061,0,0,0,.04,0,.148.148,0,0,1,.061-.047q.081,0,0-.1v-.047a.04.04,0,0,1,.054,0h0s.04-.04.054-.04h0s.047,0,0-.04h0q-.061,0-.061-.04h.04c.04,0,.054,0,.04-.081a.034.034,0,0,0,.04-.04h.054v-.04h.04q.1.061.161-.061h.061c0-.04.061-.061.128-.04h-.04s0-.047.061-.047h0v-.04a.053.053,0,0,1-.047-.04h.1a.155.155,0,0,0,0-.061.04.04,0,0,0-.061,0,.162.162,0,0,0,0,.1.06.06,0,0,0-.04,0h-.04c-.04,0,0-.04-.047-.047h-.081a.06.06,0,0,0,0-.04h.04c.04,0,.054.04.067,0s0,0,0-.054,0,0,.04,0,.067,0,.081-.1,0,0,.061,0,.04,0,0-.04.047-.04.067-.04h.114c.04,0,.04.067.081.047s.054-.04.04-.067l-.047-.04H197.8a.081.081,0,0,1,0,.061h0a.608.608,0,0,1,.114-.141,1.7,1.7,0,0,1,.262-.209,3.267,3.267,0,0,0,.276-.2.377.377,0,0,1,.161-.087.054.054,0,0,0,.061-.061.121.121,0,0,1,.128-.074.141.141,0,0,0,.121,0,.067.067,0,0,1,.081,0,.094.094,0,0,0,.081-.067.087.087,0,0,0,.121,0,.2.2,0,0,1,.121-.054h.04s.047,0,.061-.061h.148a.673.673,0,0,1,.2.209c.04,0,.067,0,.074.04a.507.507,0,0,1,0,.1v-.215a.2.2,0,0,0,.054.121s0,.047,0,.1a1.3,1.3,0,0,1-.061.316q-.061.209-.262.747a1.716,1.716,0,0,0-.074.222.447.447,0,0,1-.047.242c-.047.081,0,.108.04.108a.148.148,0,0,1,.108,0,.168.168,0,0,0,.135,0l.094-.04.108-.047.309-.061h0a.114.114,0,0,1,0-.081h.061a.081.081,0,0,1,.061,0,.222.222,0,0,0,.2-.081c0-.04.061-.061.148-.061l.128-.054.188-.067.161-.061h.067a.04.04,0,0,1-.04.04.161.161,0,0,0-.121.081v.054a.222.222,0,0,1,0,.067v.081c0,.04.067-.034.081,0s.034,0,.061,0h.061c.013,0,.047,0,.047.04a.054.054,0,0,0,.067,0h0c-.04,0-.061.121-.1.121a.148.148,0,0,0-.114.067.141.141,0,0,1-.094.061.06.06,0,0,1-.04,0h-.04a.558.558,0,0,1-.283.141,4.318,4.318,0,0,0-.632.222,1.567,1.567,0,0,1-.336.141,1.165,1.165,0,0,0-.215.04.155.155,0,0,1-.121,0,.114.114,0,0,0-.121,0h-.067a2.617,2.617,0,0,0-.343-.141q-.182-.061-.2-.4a2.42,2.42,0,0,1,0-.289,2.253,2.253,0,0,1,.081-.363,2.166,2.166,0,0,1,.235-.673c.087-.155.121-.242.108-.269s-.047,0-.148.054l-.565.336-.222.161a1.628,1.628,0,0,1-.309.182.255.255,0,0,0-.061.087.3.3,0,0,1-.121.061h0a.175.175,0,0,0-.047.067.189.189,0,0,1-.074.074h0a.067.067,0,0,1,0,.061q-.04.121-.141.1h0c0-.04-.054-.04-.128,0s-.054,0,0,.04l.04.04v.061a.087.087,0,0,1-.067,0,.04.04,0,0,0-.054,0,.1.1,0,0,1-.061.108.124.124,0,0,0-.087.04c-.034.04-.074,0-.114-.04a.067.067,0,0,0-.04-.047h-.081c-.027,0,.067.04.04.081s0,.061,0,.061Zm.242-.531v.04l-.067.04h.081a.094.094,0,0,1,0-.04v-.04h.04Zm-.444.673h0v.04h.034a.31.31,0,0,1-.034.094h.034v-.04Zm-.39.43v-.04h0a.081.081,0,0,0,.061,0v.04a.061.061,0,0,0,0-.04h0a.067.067,0,0,0-.061-.04Zm-.874,1.1.081-.04v.04h0q0-.061-.04,0a.034.034,0,0,0-.04.04h0a.061.061,0,0,0,.04,0h0Zm1.036-1.386h-.061v-.047c0,.034,0,.047.047.047Zm.673-.592c0-.04-.047-.047-.067,0s0,0,.067,0,0,.061.04.061v-.061Zm-1.345,1.554h.081a.06.06,0,0,0,.04,0h-.067s-.034,0-.034.054l-.061.04h0v-.061Zm2.327-2.738h.067v-.081c0-.081.081,0,.04,0s-.054,0-.04.047-.074,0-.1.061l-.061.047h.04v-.047ZM196.3,90.343h0v.04h.04c0,.047,0,.061.04.047h.04Zm-.511.632a.067.067,0,0,0,.061-.04h.067c0-.067,0-.087-.067-.061h-.121v.04l.047.04h-.061v.061a.081.081,0,0,0,.061-.081Zm.148-.363c.067-.081.1-.121.108-.114h-.054a.061.061,0,0,0,0-.074s-.034,0-.054.047a.4.4,0,0,0,0,.141v.04Zm1.789-1.8a.148.148,0,0,0-.047-.061l-.054-.04v.04c0,.04,0,.04-.034.04h-.061q-.061,0-.04.04c.04.054.074.061.1,0s.061-.054.1,0h0Zm-1.608,1.857c0-.067-.034-.094-.054-.074a.081.081,0,0,0,0,.054l.04.04h.04Zm-.289,0h0v-.047l-.061.04h.04Zm4.406-.854h0l-.04-.067h0a.034.034,0,0,0,.04.04Zm-1.715-1.776-.04.081h.04v-.04h0Zm-1.345,1.224h-.047Zm.188,0h0v0Zm-1.594,2.018h0c.034,0,0,.034,0,.034v-.04Zm2.549-3.02a.06.06,0,0,0,0-.04h0Zm-1.937,2.018h0v.034c0,.034,0,0,.047,0Zm.161,0v-.04h0v.04Zm4.8-.915a.168.168,0,0,0-.128.04s-.047.04-.067.04-.034,0-.034.04.034,0,.1,0h.061c0-.067,0-.087.047-.067s.034,0,0-.074Zm-4.224-.262h.081v-.067s.04-.067,0-.087l-.061-.074a.477.477,0,0,0-.067.094.1.1,0,0,0,0,.114Zm5.321-.168q.141,0,.141.04a.175.175,0,0,1-.081.074.108.108,0,0,1-.1,0h-.04a.081.081,0,0,1,0-.061h.061a.081.081,0,0,0,0-.061Zm-5.543.249h0a.067.067,0,0,1,0,.061v.04l.04-.04a.168.168,0,0,0,0-.054v-.047a.114.114,0,0,1,.074-.04l.047-.04c.047-.04-.047,0-.067,0s-.034-.04-.034,0-.047.061-.061.061,0,0-.061.04Zm4.574.094a.061.061,0,0,1,.047-.061c.034,0,.047,0,.034-.061h0v.047a.1.1,0,0,1,.074,0v.074h-.074s-.034,0-.047.054,0,0-.04,0H201.4Zm-5.079.363v.087a.087.087,0,0,0,.061,0l.061-.04a.06.06,0,0,0,.04,0v-.04c0-.04-.047-.061-.067,0a.054.054,0,0,1-.074,0Zm5.2-.262q.1,0,.04.061a.269.269,0,0,1-.121.1h0a.162.162,0,0,1,.067-.067s.047-.047,0-.074Zm-4.91.182a.081.081,0,0,0-.054-.081h-.054a.188.188,0,0,0,0,.081.04.04,0,0,0,.04.04h0a.06.06,0,0,1,0-.034Zm5.422-.4a.056.056,0,0,0-.054.061.067.067,0,0,1,0,.061h-.04v-.121l.087-.04v.04Zm.343-.289q-.081-.121.061-.081h0a.276.276,0,0,1-.074.047Zm-.081.249a.35.35,0,0,1-.141-.148v.148a.094.094,0,0,0,.114,0Zm-.673.081a.135.135,0,0,0,.074,0,.114.114,0,0,1,.067,0h.04q-.141-.04-.182.04Zm.41-.04v.081a.047.047,0,0,0,.047,0,.121.121,0,0,1,.034-.047h-.1Zm-5.28.713.061.04a.04.04,0,0,0,.047,0s0,0,0-.047a.06.06,0,0,0,0-.04h-.04l-.04.04Zm5.112-.612a.034.034,0,0,1-.04.04s-.034,0,0-.04,0,0,0-.034,0,0,.047.034Zm-.585.081.081-.081h0v.04c0,.04-.04,0-.04.061Zm.565-.35s0,.04-.061.04S201.9,88.977,201.913,88.991Zm-5.233.39v.081h0l-.04-.061Zm5.765-.471v-.04q-.061-.061-.061,0ZM195.6,91.459h.034l-.04-.04h0Zm1.238-2.179v0Zm5.179-.249a.087.087,0,0,1-.067,0Zm-.33.269h.061q0-.061-.061-.04v.02Zm.572-.451h.02Zm.41-.061h0v0Zm-1.063.161Zm1.2-.1h0Zm-.733.141V88.93c0-.061.013.054,0,.067Z" transform="translate(-63.575 -28.649)" fill="#fff" fill-rule="evenodd"/>
        <path id="Path_8319" data-name="Path 8319" d="M210.629,86.848v.04h0Zm.04.182v-.04h0Zm.081-.283h-.081a.114.114,0,0,0,.081,0Zm-.121.1q-.141.04-.141-.1h0a.316.316,0,0,0,.155,0l-.04.081Zm-.451.33h.061Q210.239,87.117,210.178,87.178Zm.242-.148h0v.04Zm-.161.209a.1.1,0,0,0,.121.061c0-.04,0-.067-.04-.074a.168.168,0,0,1-.081-.047v.094Zm.081-.161h-.04a.04.04,0,0,1,0-.054h.081l-.04.047Zm.168-.128a.081.081,0,0,0,0-.061h0a.042.042,0,0,0,.047.04Zm.464-.363a.175.175,0,0,0,0-.074h.081c.081,0-.061-.094-.1-.061s-.074.074,0,.141h0Zm.229-.35a.054.054,0,0,1,.081,0h.081a.834.834,0,0,0-.135-.067c-.047,0-.061,0-.047.047s0,.054,0,.04Zm.242,0a.081.081,0,0,1,.061,0,.06.06,0,0,0,.04,0,.114.114,0,0,0,0-.081.081.081,0,0,0-.081.04Zm0-.161h.04a.158.158,0,0,0-.04-.1c-.04-.04-.061,0-.061,0s0,.081.04.081Zm-.451.572h0a.035.035,0,0,0-.034.04c0,.04.061,0,.061,0Zm-.834.774h0v-.04l-.04.04h0Zm-1.776,1.487h0v-.04a.155.155,0,0,0,0,.061Zm.531-.753a.155.155,0,0,0,0,.061S208.948,88.166,208.914,88.153Zm-.511.471c.074,0,.087,0,.054-.034l-.074-.047h0q0,.061.04.061Zm1.244-.794h.04v-.04l-.04.04Zm.081-.35h.02Zm.148-.04h0V87.4a.2.2,0,0,0,0-.141h-.04a.081.081,0,0,1,0,.081.329.329,0,0,0,0,.081Zm-3.1-5.771V81.8h0a.074.074,0,0,0,.04-.074.121.121,0,0,0,0-.074Zm-.182.222Zm.081-.209v-.061h-.054v.087q.061-.061.04.04h.04Zm0,.188h0v0Zm-.081-.168c0,.074,0,.108-.04.108V81.7Zm.531-.121h.047v-.04Zm-.128.309V81.9h0Zm-.182,0Zm4.89,3.955q0-.081.04-.081T211.705,85.846Zm-.182.141v0Zm0-.081h.04v-.04a.034.034,0,0,0-.04.04Zm.061.04v-.04h.04v.04Zm-5.052-3.915s.04,0,.04-.061S206.533,81.971,206.533,82.032Zm-.128-.141c0-.067.074-.1.128-.1l-.061.081s-.034,0,0,.04,0,0-.054,0Zm5.2,3.787v.04a.034.034,0,0,0,.04-.04Zm-.141.168s.034-.04.054,0,0,0,.047.054a.034.034,0,0,1,.04.04.094.094,0,0,0,.081-.061.182.182,0,0,1-.121-.128.161.161,0,0,0-.141,0V85.8h0a.034.034,0,0,1-.04-.04H211.3v.061l.1.061a.094.094,0,0,0,.081-.061Zm-3.915-4.036Zm-.161-.289v.121h0a.235.235,0,0,0-.04-.061V81.5Zm2.22,6.2-.04-.061v-.04q-.081,0,0,.1t.061,0Zm2.691-6.094h.121l-.081-.061Zm-.081.269h-.04v.04h.061Zm.43,0,.04-.04Q212.607,81.81,212.647,81.891Zm-.1-.289h0a.06.06,0,0,0,0-.04h-.034a.088.088,0,0,0,0,.04Zm-.41.229v0Zm-.161-.229Zm1,0h0Zm.37.188v0Zm-.121.04h-.04s.087.054.1.04a.135.135,0,0,0-.061-.061Zm-.289.081h.04v.04Zm-.242-.04q0-.081.061,0h-.04Zm.141-.289v.02h0Zm-1.547.229v0Zm-.161.061v-.04a.054.054,0,0,0,0,.061h.034Zm-.047-.289a.034.034,0,0,0-.04.04h0l.04-.04Zm.471,4.137a.182.182,0,0,0,.121.128q0-.081.04-.081a.108.108,0,0,0,0-.054h.04c.04,0,0,0,0-.061h.067v-.1c0-.054-.04-.081-.128-.081h-.047a.208.208,0,0,1,0,.067.182.182,0,0,0-.081,0l-.081.04v.054c0-.02-.061,0-.061,0V85.7a.161.161,0,0,1,.141,0Zm.04-.04a.034.034,0,0,1-.04.04v-.04Zm.41-.182v-.061q.04-.1.081-.081v.061l-.04.04h0q0,.061-.04,0Zm-.161-.141h.081c.027,0,0,.067-.04.081a.061.061,0,0,0,0-.04q-.081,0,0-.061Zm.525-.1s-.04.047-.04.067a.061.061,0,0,1-.04.054v-.121c0-.027.054,0,.067,0Zm-.283-.081a.292.292,0,0,1,.04.047.41.41,0,0,1-.061.094l-.04-.04Zm-1.164.915c0-.04.054-.061.074-.061s0,0,0,.04a.034.034,0,0,1-.04.04.081.081,0,0,1-.061,0Zm1.345-.673.04-.061q-.1,0-.121.061Zm0-.323h0a.034.034,0,0,1-.04-.04h0l.04.047Zm-.3.4v.1a.042.042,0,0,1-.04-.047V85.5Zm-.572.309a.034.034,0,0,1-.04-.04l.061-.04v.081Zm.531-.572q0,.061-.04.061h-.04l.061-.061h0Zm-1.1.975.04-.04h0q0,.061-.061,0Zm1.446-.713v-.061h.04l-.04.04Zm-.935.2v.067h-.02v-.04h0Zm.471.249h0v-.02Zm-.531-.121q0-.061.04-.061v.061Zm-.04.04h.02c.061,0,0,.04,0,.04Zm2.26-4.3V81.7a.175.175,0,0,0-.067.074v.121h.061s-.094.094-.081.121,0,.04-.04.04-.081,0-.074-.04,0-.054,0-.04h0q0,.061-.04.061a.081.081,0,0,1-.067-.04h-.04s-.047.061-.061.054h-.222a.437.437,0,0,1-.161,0h-.141a5.133,5.133,0,0,1-.673,0l-1.345-.061h-.168a.612.612,0,0,0-.182,0h-.471c-.215.3-.5.733-.854,1.291s-.673,1.164-1.049,1.8a15.709,15.709,0,0,0-.928,1.836,5.811,5.811,0,0,0-.491,1.433,2.017,2.017,0,0,0-.04.552.249.249,0,0,1,0,.121.928.928,0,0,0,0,.108v.061a1.25,1.25,0,0,0,.081.283h.249l.087-.047a.283.283,0,0,1,.135,0,.094.094,0,0,0,.074-.054h.087c0-.067,0-.1.087-.1a.094.094,0,0,0,.1-.081v.04c0,.04,0,0,.04,0h0v-.04a.114.114,0,0,0,.081-.04.1.1,0,0,1,.081-.047.181.181,0,0,0,.081,0c0-.054,0-.074.034-.067a.094.094,0,0,0,.087-.034h.087s.034,0,0-.074,0,0,.04,0a.875.875,0,0,0,.188-.1l.155-.141a.141.141,0,0,1,.161-.081h0a.04.04,0,0,1,0-.047.289.289,0,0,1,.114-.135.5.5,0,0,1,.175-.094q.061-.061.061-.04a.235.235,0,0,0,.114-.094l.067-.108q.04-.081.081,0v.04a.053.053,0,0,0,.047-.04c.013-.04.04-.087,0-.094s-.054,0,0-.047.114-.074.128-.108,0-.04.061,0,.047,0,.1,0a.114.114,0,0,1,0-.182,1.116,1.116,0,0,0,.182-.175.451.451,0,0,1,.2-.128s.047-.047.047-.061.034-.047.061,0a.034.034,0,0,0,.04.04.04.04,0,0,1,0,.047.033.033,0,0,0,.034.034c.034,0,0,0,0-.04v-.061a.094.094,0,0,1,0-.114.114.114,0,0,0,0-.114.047.047,0,0,1,0-.04s.04,0,.054.061h0s.047-.087.061-.061a.067.067,0,0,0,.061.04h0V87.03c0-.007-.047,0-.034-.054a.04.04,0,0,1,.054,0,.087.087,0,0,0,.067,0l.094-.067.067-.074c0-.04-.034-.067,0-.074h.067a.128.128,0,0,1,.1,0q.141.04.081-.061V86.64a.087.087,0,0,0,0-.067h.1c.054,0,.067,0,.04-.047s0-.04.081,0,0,0,0,.04h0l.121-.061h-.061c-.061,0-.04-.04,0-.081s0-.04.034-.04a.06.06,0,0,0,.047,0,.071.071,0,0,0,.067-.061.5.5,0,0,0-.047-.1c.087-.054.121-.061.108,0s0,.074,0,.074v-.061a.231.231,0,0,1,.343-.309v-.047l.081.04a.094.094,0,0,0,.081-.061c.027-.061.034-.04.054,0s0,0,.047.054a.034.034,0,0,1,.04.04.094.094,0,0,0,.081-.061c.027-.061.04,0,.04-.081a.134.134,0,0,0,.074,0l.175-.135h0a.128.128,0,0,1,.061-.081.316.316,0,0,0,.081-.061v.04a.182.182,0,0,1,0,.175c-.04.061-.081.094-.135.094s-.087,0-.054.04,0,.061,0,.061,0-.054-.04,0a.141.141,0,0,1-.081,0h-.067a.135.135,0,0,1,0,.074.042.042,0,0,0,.047.04c.047,0-.074.061-.087.061a.4.4,0,0,1-.121-.081h.04a.034.034,0,0,0-.04-.04v-.04h-.04v.081h-.061v-.114h.04v-.04a.034.034,0,0,0-.04.04q-.061.04,0,.081a.081.081,0,0,0,.04.081q.081,0,0,.081v.04c0,.04.061.047,0,.1h-.04q0,.061-.061.04a.087.087,0,0,0-.081,0h-.081l.04.067c.04.067.054.047,0,.067h-.141c-.007,0,0,0,0-.047V86.33a.155.155,0,0,1-.108-.04.04.04,0,0,0-.04.04.114.114,0,0,0,.087.067q.061,0,0,.182a.141.141,0,0,1-.135.1c-.061,0-.074,0-.034.1h0a.087.087,0,0,1-.081,0v.061a.061.061,0,0,0-.04,0s-.04.047-.04.061a.4.4,0,0,1-.242.168.155.155,0,0,0-.034.108c.007.061-.04.087-.155.074s-.04,0-.04,0a.157.157,0,0,1-.061.121l-.222.2h-.04a.565.565,0,0,1-.215.249,2.206,2.206,0,0,0-.256.182.034.034,0,0,1-.04.04.034.034,0,0,0-.04.04s0,.04,0,.04h0a.289.289,0,0,1-.141.155.457.457,0,0,0-.161.135h-.108v.04l-.1.081a.95.95,0,0,1-.161.135.43.43,0,0,0-.141.148l-.054.054a.054.054,0,0,1-.067,0h-.04c-.04,0-.04.054-.067.054a.081.081,0,0,0-.047.047.1.1,0,0,1-.054.054.4.4,0,0,0-.161.108.357.357,0,0,1-.161.114,1.036,1.036,0,0,0-.2.155.35.35,0,0,1-.256.094h0a.054.054,0,0,1,0,.054,2.015,2.015,0,0,0-.242.121,2.165,2.165,0,0,1-.309.141h0a1.016,1.016,0,0,1-.5-.054.518.518,0,0,1-.336-.229,1.251,1.251,0,0,0-.2-.256.168.168,0,0,1-.047-.2h-.034c-.034,0,0,0,0-.04a.128.128,0,0,0,0-.1l-.047-.1c.047,0,.047-.047,0-.054s-.047,0,0-.054a.336.336,0,0,0,0-.161.06.06,0,0,1,0-.067.074.074,0,0,0,0-.074.243.243,0,0,1,0-.074.208.208,0,0,0,0-.067,1.057,1.057,0,0,0,0-.188.5.5,0,0,1,.04-.182.532.532,0,0,0,.04-.2.5.5,0,0,1,.04-.188c.054-.141.108-.316.168-.531a7.87,7.87,0,0,1,.377-.942,2.689,2.689,0,0,0,.188-.323,1.494,1.494,0,0,0,.121-.33l.074-.141a1.091,1.091,0,0,1,.067-.121.188.188,0,0,0,.054-.081A.087.087,0,0,1,207.01,85a.047.047,0,0,0,.034-.074c-.02-.02,0-.04,0-.067l.188-.309q.04-.1.081-.182l.1-.182a.283.283,0,0,0,.061-.108.256.256,0,0,1,.061-.1.188.188,0,0,0,.054-.1.148.148,0,0,1,.067-.1,4.712,4.712,0,0,1,.235-.431c.114-.188.249-.383.39-.592l.4-.565.242-.37h-.2a.135.135,0,0,0-.074,0,.053.053,0,0,1-.047-.04h0s-.074.081-.148.04a.182.182,0,0,0-.182,0,.39.39,0,0,1-.235,0,.4.4,0,0,0-.235,0h0q-.061-.061-.1,0a.276.276,0,0,0-.148,0,.175.175,0,0,1-.155-.04h0a.094.094,0,0,1-.094.054h-.175q-.061.04-.081,0v-.1h0v.04h0a.066.066,0,0,1-.04.061.245.245,0,0,1-.1,0c-.013,0-.067-.054-.121,0a.114.114,0,0,1-.081,0v-.061h-.168a.148.148,0,0,0-.061-.047v-.074a.1.1,0,0,1-.054,0h-.047c-.007,0,0,0,0-.04l.081-.04.04-.061c-.04,0-.061-.067-.061-.168h.209a.222.222,0,0,0,0-.1q-.04-.081,0-.04h-.047q.061,0,.04.081a.081.081,0,0,0,.081-.04h.1v.061a.061.061,0,0,0,.04,0q.04-.1.1-.04h.114a.225.225,0,0,1,.148.04c.054.04.047-.04.1-.04s0,0,0,.04h.04a.168.168,0,0,1,.161,0h.034v-.081h0a.067.067,0,0,1,.061-.04.3.3,0,0,1,.128,0c0-.054.04-.067.047-.04a.128.128,0,0,0,.034.061h0a.424.424,0,0,1,.235,0h.188a.088.088,0,0,1,.067,0h.128a.081.081,0,0,1,.094,0h0a.047.047,0,0,1,.081,0h.094a.054.054,0,0,1,.067,0q.061.04.061,0s.047-.034.061,0h.054a.053.053,0,0,1,.054-.054l.121-.2.121-.2a.72.72,0,0,1,.135-.148.4.4,0,0,0,.108-.161,1.123,1.123,0,0,1,.168-.256.855.855,0,0,0,.161-.276,3.6,3.6,0,0,0,.242-.316c.141-.182.283-.383.43-.612l.417-.619c.128-.188.2-.3.215-.33a.437.437,0,0,1,.094-.148l.141-.175a.868.868,0,0,1,.141-.135.148.148,0,0,1,.135,0l.067.04a.135.135,0,0,0,.074,0c.081,0,.108,0,.081.067a.094.094,0,0,0,0,.114.242.242,0,0,1,.034.161,1.689,1.689,0,0,1-.215.43c-.141.215-.35.538-.673.969s-.706,1.029-1.251,1.8h.2a.229.229,0,0,1,.161,0h0a.2.2,0,0,1,.087-.061s.04,0,.081.061l.444.04a.125.125,0,0,0,.081-.04h.034q.061.061.04.061h.074a.114.114,0,0,0,.081,0h.141v0c0,.04.087,0,.1,0s0-.04,0-.04v.04a.087.087,0,0,1,.128.04h0a.054.054,0,0,1,0-.054h.04a.034.034,0,0,0,.034,0h.081v.04a.042.042,0,0,0,.04-.047h0c0,.04.047,0,.061,0h.121c.013,0,.034.04.061,0s.067-.087.114-.067a.1.1,0,0,0,.114,0h.572q0,.061.04.04a.061.061,0,0,1,.04,0h.067a.074.074,0,0,1,.074,0h.061a.061.061,0,0,1,.04,0h.04q0-.061.1,0a.061.061,0,0,0,.04,0l.047.04c.047.04.047,0,.061,0V81.13h.04q.04.061.061,0c0-.04.04-.047.047,0a.121.121,0,0,0,0,.047q0,.081.081.04Zm-7,.33s-.034,0,0,.04,0,0-.054,0,.074-.1.128-.1l-.061.081Zm.061.161q0-.061.04-.061T206.546,82.052Zm0-.242V81.7h.047c0,.074,0,.108-.04.108Zm.081.161h-.067q.061.061.061.081Zm0-.289h-.04q0-.1-.04-.04v-.087h.054v.061h0Zm.04.249v-.04h0Zm.061-.081h0v-.128a.121.121,0,0,1,0,.074.074.074,0,0,1-.04.074Zm.121.081h-.04Zm.141-.081v.04h0v-.047Zm.081-.249h0v.04h-.047Zm.309.081h0v-.121h-.04q-.04.061,0,.081a.236.236,0,0,1,.04.061Zm.161.148Zm3.975,4.4a.114.114,0,0,1,0,.081.061.061,0,0,1-.04,0,.081.081,0,0,0-.061,0,.081.081,0,0,1,.081-.04Zm-.081-.222q.061.061.04.1t-.04,0h0s-.04,0-.04-.081,0-.061.061,0Zm-.081.242h-.081a.054.054,0,0,0-.081,0v-.04c0-.04,0-.067.047-.047a.835.835,0,0,1,.135.067Zm-.39.209a.089.089,0,0,1,.1.061c.027.061-.081,0-.081,0a.175.175,0,0,1,0,.074h0q-.081-.1,0-.141Zm0,.222H210.9c-.061,0,0-.04.034-.04h0Zm-.323.242h0v0Zm.1-.141a.114.114,0,0,1-.081,0Zm-.1.242h0v0Zm0-.222-.04.081q-.141.04-.141-.1h0a.316.316,0,0,0,.155,0Zm-.209.141h0a.081.081,0,0,1,0,.061s-.047,0-.047-.04Zm0,.1h-.04V87h0Zm-.061,0-.04.047h-.04a.04.04,0,0,1,0-.054h.081Zm0,.249q-.081.061-.121-.04v-.061a.168.168,0,0,0,.081.047A.054.054,0,0,1,210.374,87.292Zm-.141-.1h-.061Q210.212,87.131,210.232,87.191Zm-.1.242h0l.04-.04v.04h0Zm-.3-.141h0q.081.081.04.141v.04h0a.331.331,0,0,1,0-.081.081.081,0,0,0,0-.081Zm-.128.182Zm-.061.309v.04h-.04Zm-.081-.168v.04s.04.047.04.061-.061.04-.061,0-.054-.087,0-.1Zm-.673.552v.061A.155.155,0,0,1,208.887,88.166Zm-.511.733h0a.155.155,0,0,1,0-.061v.04Zm-.04-.323h0l.074.047c.034,0,0,.034-.054.034s-.04,0-.04-.061Zm2.731-6.955a.034.034,0,0,1,.04-.04h0a.04.04,0,0,1-.04.04Zm.067.209v.04H211.1a.054.054,0,0,1,0-.061Zm.2,0v-.04Q211.4,81.79,211.335,81.83Zm.673-.249Zm.182.249v0Zm.061.081v-.04c0-.04,0,0,.04,0h-.061Zm.141-.289h-.04l.081.061Zm.229,0h0a.088.088,0,0,1,0-.04h.034a.06.06,0,0,1,0,.04Zm.081.269q-.04-.081.04-.04Zm.081,0h-.04q0-.081.061,0Zm.1-.309h0v-.02Zm.1.33v-.04h0q0,.061-.04,0Zm.081-.309h.04Zm.168.249h.04a.134.134,0,0,1,.047.04.185.185,0,0,1-.1-.04Zm.161-.209v.148s-.034,0,0-.094S213.394,81.615,213.394,81.642Zm-7.056.35h-.061a.06.06,0,0,0,0,.04s.04,0,.04-.061Zm-.121-.161h0a.054.054,0,0,0,0,.081q.061.04,0-.061Zm0,.061a.081.081,0,0,0-.061,0q0,.061,0,.04a.061.061,0,0,0,.047-.061Zm.141-.43h0v.04h0a.135.135,0,0,1,0-.054Zm-.121.182h0v.04h.04Zm.592-.182v0Zm-.37.121h0c-.054,0-.04-.054-.04-.013Z" transform="translate(-67.354 -25.296)" fill="#fff" fill-rule="evenodd"/>
        <path id="Path_8320" data-name="Path 8320" d="M229.011,79.688s0,.034.04,0h.155a.155.155,0,0,1,.074,0,.067.067,0,0,1,.04.061h.061c.061,0,0,0,0,.04a.188.188,0,0,0,.054.081.43.43,0,0,1,.081.1q.061.061,0,.061s-.04,0,0,.04v.04h.04v-.061h.04v.04a.074.074,0,0,1,0,.081.114.114,0,0,0-.034.087h-.04a.162.162,0,0,0,0,.1.128.128,0,0,1,0,.1q0,.141-.1.161h.04V80.7h0q0,.081-.061.081t-.04.061a.168.168,0,0,1-.1.209.081.081,0,0,0,0,.1h.013c.007,0,0,0,0,.04s0,.04-.047.04a.061.061,0,0,0-.054.04h0q0,.081-.061.081v-.04h0v.04q-.081,0-.081.061v.04l.04-.081h.04a.222.222,0,0,0,0,.1c0,.047-.034.074-.1.087a.034.034,0,0,0-.04-.04h.04q.061.061.04.061s-.054,0-.081.1a.34.34,0,0,1,0,.061s0,.034-.067,0-.061-.047-.061,0-.034.047,0,.061h0a.034.034,0,0,1,.034,0,.108.108,0,0,1-.034.114.47.47,0,0,0-.087.128q-.061,0-.1.1c-.034.061-.081.067-.148,0h0a.377.377,0,0,1-.061.269.4.4,0,0,0-.1.141H228.3a.141.141,0,0,1,0,.121q0,.061-.04,0h-.047c.013,0,0,.04,0,.067l-.054.067a.242.242,0,0,1-.047.061l-.074.067a.3.3,0,0,0-.054.074.034.034,0,0,1-.04.04h-.081v.094a.222.222,0,0,0-.121.074l-.081.087a.081.081,0,0,1-.081.04h.04c0,.067,0,.087-.034.054s-.04-.04-.067,0,0,.054,0,.067.04,0,0,.061a.175.175,0,0,1-.128.061h0c0,.094,0,.121-.081.081s-.034,0,0,0,0,.034,0,.061a.081.081,0,0,1-.061,0h0v.04c0,.04,0,0-.04,0s0,0,0,.04.04.108.034.114l-.094.047q-.061,0-.061.04a.075.075,0,0,1-.121.061c-.054-.034,0,0,0-.04v-.061h-.061a.134.134,0,0,1,0,.114.1.1,0,0,0,0,.114h-.081c-.04,0-.114-.061-.128,0s-.04.061,0,.1h0v-.121a.054.054,0,0,0,.054,0h0l.108.061c-.034.067-.074.094-.128.081v.081a.061.061,0,0,1-.04,0,.114.114,0,0,0-.1,0,.162.162,0,0,1-.1,0h.141v.081h0v.04a.034.034,0,0,1-.04.04h0V84.49h-.04c-.04,0,0,0,0,.061h0q.081.04,0,.1h-.061a.249.249,0,0,1-.121.128.04.04,0,0,1-.061,0h-.047v.1h-.04l-.04.04a.034.034,0,0,1-.04.04.034.034,0,0,0-.04.04h-.061c-.061,0-.047-.04-.061-.04a.114.114,0,0,0,0,.081.128.128,0,0,1-.061.081q-.182.04-.161.121c0,.061,0,.087-.04.087h-.061s0,.054-.04.054v-.04h0v.04h0a.121.121,0,0,0-.067.061h-.081c-.04,0-.034.094-.067.087h-.114q.061,0,0,.081t-.081,0h-.1v-.04h.1a.081.081,0,0,1-.04.081.135.135,0,0,0-.061.061h-.061v-.061h-.054a.094.094,0,0,0-.054-.04h-.081v-.061a.074.074,0,0,0-.081-.081.2.2,0,0,1,.061-.141q0,.061.04.061h.047c.013,0,0,.054.047.047h.061a.209.209,0,0,1,0-.067h-.39l-.04-.081h.1V85.2h0v.067h.04a.04.04,0,0,1,0,.047h0a.107.107,0,0,1,0,.047v-.047c0-.047,0-.04.054,0s.047,0,.047-.054h0q.04.094.081,0h0a.276.276,0,0,1-.081-.2h.081c.04,0,.04,0,.087.04s.067.047.081,0l.081-.081v-.061l-.04-.04a.081.081,0,0,0,0,.061.081.081,0,0,1,0,.061h-.067a.141.141,0,0,0,.108-.04h.1c.04,0,0,0,.04-.1h.04v.3l.04-.04.161.04h.034a.1.1,0,0,1,0-.04h.04a.088.088,0,0,1,0-.054h0a.074.074,0,0,0-.081.047l-.04.04h-.04v-.108a.067.067,0,0,0,.061,0l.061-.074h.061v-.04h.1a.081.081,0,0,0,.067-.081q.04-.1-.04-.04v-.061h.188l-.04-.04h0q.061,0,0-.04l.054-.141h.081a.04.04,0,0,0,0-.054.136.136,0,0,1,0-.047h.061q.081-.04.04.04l-.04.1h0a.042.042,0,0,1,.047-.04.067.067,0,0,0,.054,0,.081.081,0,0,0,.061-.081h-.054c-.054,0,0,0,0-.04a.155.155,0,0,0,0-.128h-.007a.061.061,0,0,1,.047,0l.04.081h0v-.081h.108v.04s0,.04.04,0h0a.034.034,0,0,0-.04-.04h0q.061,0,0-.04h0q0-.061-.081,0h0v-.04s.047,0,.054-.061,0-.061.087,0h0s.047-.04.047-.047a.182.182,0,0,1,0-.054c0-.067,0-.108.047-.121a.457.457,0,0,1,.135-.04h0a.087.087,0,0,0,.047-.054.054.054,0,0,1,.054,0q.04.061.061,0h.04v.081h-.061q-.061,0,0,.061V83.9h-.04a.094.094,0,0,0,.061-.1h.04v.04h0v-.081c.081,0,.087-.081,0-.148s0,0-.04,0,0-.04,0-.04h0l-.04.04h.04a.148.148,0,0,1,0,.108h0a.061.061,0,0,0-.04,0c-.04-.074-.087-.1-.141-.087h-.04v-.04l.04-.04q.061.04.061,0a.116.116,0,0,1,.04-.081s.04,0,.04-.061h0c0,.047,0,0,.04,0v.04h-.04v0h0a.067.067,0,0,1,.061,0h0v.04H226.8s0-.047.034-.061a.061.061,0,0,0,.047-.061h0a.114.114,0,0,0,.081.04.042.042,0,0,0,.047.04v.061h0v-.04h-.02a.087.087,0,0,1,0-.061v-.061a.121.121,0,0,1,.047-.034.087.087,0,0,0,.054-.047h-.061v-.128c0,.013.047,0,.061,0h.061c.061,0-.087.087-.061.128v-.128h0v.047h0c0-.074,0-.114.04-.128s0-.04,0-.04h-.1a.3.3,0,0,1,.1-.121v.04h.061c-.034,0,0-.04,0-.04h0a.108.108,0,0,0,.081-.121q-.04-.061-.081-.061v-.061c0-.061,0-.081.061-.04h.04v-.061h-.04v-.04h.04c.04,0,.114,0,.128-.081l.04-.047h-.04v.067c-.04,0-.047-.054,0-.108s.067,0,.121,0h.04v.04h0V82.2c0-.081.034,0,0,0h0l.04-.061c.04-.061.047,0,.061,0s0,.04,0,.04h0v-.04l.061-.074a.067.067,0,0,1,.061,0q0,.081.04.081v.1a.081.081,0,0,1-.061,0h-.02q.081.04.1,0l.04-.081h-.061c-.061,0,0-.061-.04-.061s-.054-.087-.121-.061-.054,0-.04-.04h.04v-.054h.061q.061,0,0-.061v-.04h0a.052.052,0,0,0,.081.047.134.134,0,0,1,.087,0h0a.139.139,0,0,1-.135-.074c-.007-.02,0-.067.067-.135l.047-.04h-.047a.128.128,0,0,1,.108-.081v-.061c0-.061.04,0,.047,0h.054c.054,0,.087,0,.061-.1a.094.094,0,0,1,.081-.121l.04-.04s0-.047-.04-.047h0q-.04-.061.04-.061v.04h.04a.282.282,0,0,0,0-.121v-.067a.061.061,0,0,0,0-.074h0v.04l.04-.061v-.054a.047.047,0,0,1-.04-.047h0a.061.061,0,0,0,0,.04q-.1,0-.04-.061c.067-.067.1-.114.1-.148h0v-.04h-.061a.478.478,0,0,0-.3.108l-.161.081-.168.081q-.065.173-.121.35a6.205,6.205,0,0,0-.592.531,2.311,2.311,0,0,1-.222.182l-.316.323c-.1.114-.209.222-.316.33l-.592.673a.6.6,0,0,0-.094.114.411.411,0,0,1-.108.108.135.135,0,0,0-.061.074.432.432,0,0,1-.067.087l-.484.612-.43.552c-.081.108-.161.215-.235.33l-.215.323-.2.33-.2.323-.182.309-.034.04v.04a1.1,1.1,0,0,1-.222.4.114.114,0,0,0-.04.081v.061l.04.047a.222.222,0,0,1-.094.067h-.04a.808.808,0,0,1,0,.094c-.054.161-.1.33-.141.5s-.074.343-.108.518a1.137,1.137,0,0,0,.128.673.578.578,0,0,0,.464.289.114.114,0,0,1,.081,0,.276.276,0,0,0,.148,0,.209.209,0,0,1,.108,0h.4a.384.384,0,0,0,.087-.054h.262c.067,0,0,.061,0,.061h.04a.081.081,0,0,0-.061,0v-.067q.04-.1.1-.061t.061-.061a.081.081,0,0,0,.061,0,.1.1,0,0,1,.067,0q.081,0,.081-.061h.141l.081-.074a.1.1,0,0,1,.054,0h-.054a.255.255,0,0,1-.061.087v.034c0,.034,0,0,.04,0a.074.074,0,0,0,.054,0s0,0,0-.04a.114.114,0,0,1,.034-.087.1.1,0,0,0,0-.074.323.323,0,0,1,.141.04h.047a.056.056,0,0,1-.047-.081h-.1a.081.081,0,0,0-.1.04q.04-.161.182-.121h.108q.04.061.121,0h0a.108.108,0,0,0,.1,0l.081-.047h-.161a.114.114,0,0,1,.121-.047.121.121,0,0,0-.087.04h0v-.04l.081-.094a.108.108,0,0,1,.121,0h.081a.074.074,0,0,1,.081-.081h.2a.067.067,0,0,1,.047,0,.135.135,0,0,0,0,.141h.04s.061-.074.087-.047h.027v-.04h-.074a.054.054,0,0,0-.054-.04v-.081c0-.04,0-.061.067-.061s0,.047,0,.054v.047a.108.108,0,0,0,.108,0h.054c.054,0,0,0,.061-.04a.148.148,0,0,1,0-.061.134.134,0,0,0,0-.061h-.1a.094.094,0,0,1,.141.061h0l.061-.04q0,.061.081,0v.061h0q.081-.081.061-.121h0s.04.047.04.061,0,0,.04.04v.04a.088.088,0,0,0,.067.1.034.034,0,0,1-.04.04s-.034.034-.054,0-.04,0-.054,0,0,.081-.061.081h0a.055.055,0,0,1-.047.054.1.1,0,0,0-.054.054q-.04.061-.081,0h0v.04h-.141l-.02-.108v.061c0,.061,0,0-.04,0s-.074,0-.061.081v.04H225.9q-.061-.061-.061,0t-.061,0q-.061-.061-.061,0-.04.161-.161.182l-.121.061-.141.108a.323.323,0,0,1-.148.081h-.128a.222.222,0,0,0-.074.054l-.061.067H224.8c-.04,0-.04,0-.04.04s0,0-.04.061-.061,0-.061,0h0l-.081.061h0a.042.042,0,0,1-.047.04c-.047,0,0,0,0,.04s-.054,0-.081,0-.047.034-.067,0-.047,0-.074,0a.074.074,0,0,0-.061,0,.067.067,0,0,1-.061,0,.081.081,0,0,0-.061,0h-.061a.248.248,0,0,0-.148.047.444.444,0,0,0-.141,0,.249.249,0,0,1-.141,0,.357.357,0,0,0-.141,0h-.121a.377.377,0,0,1-.135,0,.518.518,0,0,0-.135-.047,1.345,1.345,0,0,1-.572-.242l-.188-.182a.793.793,0,0,1-.155-.182.262.262,0,0,1-.04-.135.135.135,0,0,0-.061-.114v-.141c0-.04-.054-.047-.034-.061a.04.04,0,0,0,0-.061q-.061-.04,0-.141a.061.061,0,0,0,0-.067.06.06,0,0,1,0-.04.714.714,0,0,0,0-.209.458.458,0,0,1,.034-.215.672.672,0,0,0,.04-.209.451.451,0,0,1,.04-.2l.363-.908a6.055,6.055,0,0,1,.491-.928l.511-.794.276-.383c.087-.128.175-.249.276-.37s.3-.4.444-.578l.471-.565a7.6,7.6,0,0,1,.632-.673l.323-.343c.114-.121.222-.242.336-.357a4.61,4.61,0,0,1,.377-.336l.552-.511A4.493,4.493,0,0,1,229.1,79.58Zm-2.966,5.092v.04a.08.08,0,0,0-.061.04h.061a.081.081,0,0,0,0-.061h0Zm-.471,3.854h.04v-.027Zm2.731-6.4h0Zm.39-.525Zm.383-1.877h0v.04h0Zm-1.527,3.363Zm-.161.081ZM225,89.058a.081.081,0,0,0,.061,0h0a.034.034,0,0,0-.04.04h0Zm4.265-7.984h.04v0h0Zm-.168-.229h0V80.8h.04q0,.061.081,0v-.04h-.061Zm-.121.511v-.04h0v.04h0Zm-.673,1.022h-.061v-.067c0,.04,0,.067.04.067s0,.061.04.061a.034.034,0,0,0,.04.04h0v-.04H228.3v-.081h0Zm-4.278,6.949h0v-.081h-.04l.04.061Zm3.215-5.711h.067a.128.128,0,0,0,0,.061h0s-.034.04,0,.04h0v-.04Zm-1.648,5.159a.114.114,0,0,0,.081,0v-.04h0l-.04.04h0v-.04Zm.572-.323h0s-.047-.04-.061,0h.061Zm-1.413.827h0a.054.054,0,0,0-.061-.061h0a.114.114,0,0,0,.081,0Zm3.814-7.668a.081.081,0,0,0,.081-.04v-.04h-.04a.094.094,0,0,0-.04.081Zm-.9,1.554h0a.061.061,0,0,0-.04,0,.114.114,0,0,0-.04-.081h0v.04q.061.061.081.061Zm-.121.2v.04h0s0-.04-.081-.04h-.04s0,.067.061.04S227.517,83.407,227.544,83.367ZM224.7,89h-.081c-.04,0,0,.047,0,.061s.04,0,.081-.04v-.04l.061.04a.034.034,0,0,0,.04-.04v-.04q-.081,0-.081.04Zm1.527-.673v.04h-.04v-.081h-.04v.121h.04l.04-.04Zm-.491.269a.094.094,0,0,0,.061.1h0v-.054a.047.047,0,0,1,0-.047h0q0-.061-.061,0t0,.061Zm.982-4.648h0a.585.585,0,0,0,0,.094l.04.047h0v.081c0,.04.04,0,.04,0a.074.074,0,0,1,0-.054.155.155,0,0,0,0-.061.061.061,0,0,1,0-.04q.04-.081-.061-.081h-.061Zm-1.776,2.018a.178.178,0,0,0,.04-.1v-.04h-.061l-.1.061v.054c0,.013,0,0,.04,0h0s.061,0,.061.04h0Zm3.713-4.527h-.04v.04h.141q-.04-.081-.1-.061Zm-2.946,3.807a.114.114,0,0,0-.081.04h.1Zm2.388-2.731h.061a.061.061,0,0,0-.04,0,.067.067,0,0,1-.081,0v.04a.114.114,0,0,0,.081,0Zm-.249.424h-.061v0Zm-2.751,2.98v-.04l-.04-.061c-.04-.061,0,0,0,.04h0Zm3.491-3.693h-.047v.04h0l.067-.04Zm.04-.081h0a.034.034,0,0,0-.04-.04Zm-3.256,6.774v-.04l-.04.061h.04Zm1.547-4.83-.04.04h.04v-.04Zm1.769-2.206h.04l-.061-.04h0v.04ZM226.421,88.1v.061a.06.06,0,0,0,0,.04v-.04a.067.067,0,0,0-.04-.061Zm-.632.35h-.061a.034.034,0,0,0,.04.04v-.04Zm1.7-5.22-.04.04h0q.061,0,0-.04h0Zm-2.691,2.691v-.04A.061.061,0,0,0,224.793,85.916Zm4.419-5.139Zm-2.933,7.4v.04h0Zm-1.735,1.043ZM229.3,80.7h0v0Zm-3.363,4.379Zm3.276-4.359v-.04q-.061,0,0,.04Zm-5.072,8.926Zm5.112-9.209h0v-.04Zm-4.1,8.536h0v.04h0Zm-.222.121h.04Zm-.121-3.034Zm3.814-4.036Zm-.76.874Zm.289-.242Zm.794-1.1a.061.061,0,0,0-.04,0h.04ZM227.665,83h.02Zm-.04.081v-.04h0ZM224.5,86.4v-.04c0-.04,0,0,.04,0s.1,0,.087-.081a.2.2,0,0,0-.168,0l-.121.087h-.04v-.1a.034.034,0,0,1-.04-.04q-.061.04-.061.061h-.061c-.061,0-.04,0-.04.081s-.061.074-.1.047-.094-.054-.128,0a.094.094,0,0,1-.04.047.121.121,0,0,0-.04.054h0v.04h0s.061,0,.061-.04.074-.081.087-.081,0,0,.061.061a.034.034,0,0,1,.04-.04q0-.061.1-.061h0a.178.178,0,0,1,.1-.04c.054,0,.04,0,.04.04a.061.061,0,0,1,0,.04v.04c0,.04.047,0,.054,0h.034c-.007,0,0,0,0-.047a.1.1,0,0,1,.081-.047Zm2.388,1.534a.114.114,0,0,1,0-.161.04.04,0,0,0,0-.054h-.121c-.061,0-.034,0,0-.054s0-.054-.061-.081-.061,0-.061,0v.04h.047v.04l-.061.04v.047q-.054.061,0,.061a.152.152,0,0,0,.1-.04h.04v.054l.081.061h.1Zm-3.464-1.022v.04h.1s.047,0,0-.04l-.04-.061v-.04h.04c0,.04.034.054.054,0a.054.054,0,0,1,.067,0s0-.034-.047,0-.04,0-.054,0v-.04h.054c.007,0,0,0,0-.04v-.074q.061-.061,0-.061v.04c0,.04,0,.054-.081.081a.141.141,0,0,1-.121,0h0v.094a.169.169,0,0,1,0,.047q.04.081,0,.081Zm-.471.229a.034.034,0,0,1,.04.04h.04c.04,0,.1,0,.1-.061h.074a.054.054,0,0,1,.074,0h.067a.294.294,0,0,1-.04-.067c0-.013,0,0-.04-.04h-.108v.061c0,.013-.047.04,0,.067s0,.04,0,.04v-.04q0-.087-.081,0v.04Zm.733-.289a.108.108,0,0,0,.1,0,.141.141,0,0,1,.087,0,.114.114,0,0,0,.081,0v-.1h0v-.04c0-.04-.04.047-.04.061s-.034.04-.087.04-.081,0-.081.061v.061Zm.33-.323h-.04v.141a.034.034,0,0,0,.04.04.114.114,0,0,1,0-.081.182.182,0,0,0,.081,0,.087.087,0,0,1,.081,0h-.121c0,.054-.047.061-.054,0s0-.04-.047,0Zm2.57,1.547v.141h.074q.081-.04,0-.1v-.061c0-.061,0-.054-.061-.04h0a.034.034,0,0,1,0,.034s0,.047,0,.061l-.061.04Zm.444-.43a.181.181,0,0,0-.047.094.161.161,0,0,1-.074.094q-.061,0,0,.04a.283.283,0,0,0,.121,0s0,0,0-.061,0,0,.061,0,.061,0,.061-.067v-.04a.06.06,0,0,0-.04,0h-.04Zm.1,0c.114,0,.168-.061.168-.141a.162.162,0,0,1,.04-.121h0a.114.114,0,0,0-.04.081.067.067,0,0,1,0,.061.047.047,0,0,1-.04,0c.04.054.047.074,0,.061a.123.123,0,0,0-.074,0v.061Zm-.874.37h.081l.081-.061c.081-.061-.047-.067-.1-.04h-.04q-.04-.081-.04,0v.061Zm1.285-.753h-.04s-.074,0-.061.061v.121h0v-.061c0-.013,0-.074.061-.061s.04,0,.04,0Zm-4.258-.37a.159.159,0,0,0,.081.121h0s-.04-.047-.04-.067a.176.176,0,0,0,0-.074h-.04v.04Zm1.917-1.648h.04a.114.114,0,0,0,.04-.074.148.148,0,0,1,0-.067h0l-.061.067a.134.134,0,0,0-.047.074v.04Zm.242-.161-.1.1v.061h.081q0-.061.04-.061v-.1ZM224.2,86.159v.04c0,.04.067,0,.081,0a.135.135,0,0,1,.061-.061v-.061h0a.188.188,0,0,1-.081.054.168.168,0,0,0-.081.047Zm2.321-2.2h-.04l-.061.061v.04a.034.034,0,0,0,.04.04q.061,0,.061-.121Zm-1.487,1.507v-.081h-.074s0,.061.04.061h.061Zm-.1.141h-.081v.04h0q-.04.061,0,.061h.061a.081.081,0,0,0,0-.061Zm-.323.1-.108.047h.128v-.067Zm-.673.491a.138.138,0,0,0-.108.081h0s.047-.04.061-.04,0,0,.04-.04h0Zm2.105,1.944a.121.121,0,0,0-.034-.074h0v.121a.034.034,0,0,0,.04-.04Zm.343-.383.081-.047v-.04h-.04c-.04,0-.054.074-.04.108Zm1.3-.572a.1.1,0,0,0-.141.04.2.2,0,0,0,.141-.04Zm-.592.343.061-.04a.06.06,0,0,0,0-.04h-.081v.1Zm-.061.1v-.04s.04,0,.04-.061l-.081.04q-.061.04,0,.061Zm-3.363-1.238a.061.061,0,0,0,.054,0h-.054a.087.087,0,0,0,0,.067Zm.673-.269v.04h.081c.081,0,0-.04,0-.04h-.081Zm2.152,1.809h.067a.117.117,0,0,0-.047-.081h0v.081Zm.148-3.464h.02Zm.141-.612h.04a.1.1,0,0,1,0-.074h0s-.04.074,0,.1Zm-3.1,2.549h-.081q.04.061.081-.04Zm.592-.471a.081.081,0,0,0-.081.04.081.081,0,0,1,.061,0h.061l-.04-.061Zm1.762-1.5H226V84.5h.04Zm-.229.3h-.04q-.061-.04-.061,0V84.8a.094.094,0,0,1,.074,0h0Zm-.1.04h-.034v.04s.04,0,.04-.061Zm2.448-2.57v-.1H228.1l.04.081Zm-.592,4.809-.04.047h0l.04-.047Zm.552-.262q.061,0,0-.04h0l-.04.061Zm-.39,0h0v.04h0Zm-3.1-.841h-.061q.061.061.081,0Zm0-.188h.061v-.04h0v.061Zm.323-.1.061-.04h-.04v.061Zm-.161-.061h-.054a.034.034,0,0,0,.04.04l.04-.081Zm.323-.222h0v.04h.04v-.04Zm.673-.632v.04h.081v-.061l-.061.04Zm1.473-1.487v-.061h0c0,.04,0,.061.047.061Zm.3-.451a.081.081,0,0,0,.061,0v-.04h0v.04Zm.161-.121h-.04v.04h0s.04-.047.04-.061Zm-.814,4.85h0v.04h.04Zm-2.469-1.668v.081h.04a.034.034,0,0,0-.04-.04Zm2.166,1.978Zm.283.1v.02h0a.061.061,0,0,0,0-.04Zm-1,.2h.04v0h0Zm-1.1-2.59.04-.04h0v.04Zm.895-.4q0-.061-.04-.061T225.688,85.123Zm-.242-.04h0v.047Zm.121-.128h.04v-.04Zm1.857,2.428v0Zm-.451.04a.061.061,0,0,1,.04,0,.034.034,0,0,0-.04-.04v.061Zm.1-.081Zm.316-.081h0Zm.121,0v0Zm-.121-.061Zm-.188,0h0Zm.592-.188v.04h0l-.04-.04Zm-.061.04h0v.04h0Zm.209-.1h-.007Zm-1.345.814v-.04h0v.04Zm.975-.854v.02h0Zm.471-.04v0Zm.222-.242Zm-5.3.552v.04h0v-.094Zm.121-.148Zm.168-.1h-.02Zm1.217-.424Zm-.343-.41h0v-.04Zm2.792-2.28H227v-.04A.081.081,0,0,0,226.919,83.818Zm-.834.673v-.04a.034.034,0,0,0-.04.04Z" transform="translate(-72.679 -25.959)" fill="#fff" fill-rule="evenodd"/>
        <path id="Path_8321" data-name="Path 8321" d="M233.241,86.528a.088.088,0,0,1-.047.087v.04a.242.242,0,0,1,0,.141.229.229,0,0,1-.081.081,1.231,1.231,0,0,0-.182.141l-.155.2a2.324,2.324,0,0,1-.148.209h-.067a.5.5,0,0,0-.161-.054.148.148,0,0,1-.121-.108.128.128,0,0,0-.04-.087h-.054l.054-.04h0a.1.1,0,0,1,0-.161q.121-.182.242-.343a1.157,1.157,0,0,1,.309-.289.269.269,0,0,1,.175-.047h.148a.121.121,0,0,0,.1.141V86.5Zm-.982,4.036q-.04-.121.081-.121v.141h0v-.02h-.081Zm0,0h0a.04.04,0,0,1,0,.047s.04,0,.04-.067Zm.491-.323h0Zm.1-.141h0v-.04a.1.1,0,0,1,.1,0,.04.04,0,0,1-.04.04h-.04Zm.141-.081h-.061l.061.04V90Zm.081.3h-.04v-.04h.04Zm.289-.363h-.1c-.047.067-.081.1-.108.1s0,0,0,.04h.1V90.04a.034.034,0,0,1,.04-.04h0v.135c0,.04-.047.061-.067.061h-.141c-.04,0,0,.04,0,.04a.06.06,0,0,1,.04,0h0a.034.034,0,0,1-.04.04h-.04a.06.06,0,0,1-.04,0h0v-.047h-.061a.081.081,0,0,1,0,.061.114.114,0,0,1-.081.04v-.081h-.1v.04h-.04q-.061-.061-.081-.04h0a.04.04,0,0,0,.04.04c.04,0,0,0,0,.04v.061h-.121l-.1.047a.451.451,0,0,0-.081.094h0s-.054-.1-.081-.1v.1h-.081c-.027,0-.034-.047,0-.054a.087.087,0,0,0,.054-.047.114.114,0,0,0-.081,0c0,.04-.034.067,0,.087l.04.074-.061.04a.04.04,0,0,1-.04.04.06.06,0,0,0-.04,0h-.04a.222.222,0,0,0,0-.1h.081a.148.148,0,0,1,0-.061s0,0,0-.04-.047,0-.108,0a.215.215,0,0,1-.061.087h-.141a.417.417,0,0,1-.175.114l-.188.067-.33.121h-.141a.437.437,0,0,1-.161,0,.182.182,0,0,1-.081,0,.175.175,0,0,1-.074-.081.356.356,0,0,1,0-.182,1.272,1.272,0,0,1,.114-.35c.094-.148.148-.242.168-.283l.054-.1.121-.222c.054-.087.1-.161.141-.235a1.116,1.116,0,0,1,.148-.215,6.419,6.419,0,0,0,.437-.673c.087-.161.161-.309.235-.43a.391.391,0,0,0,.061-.336,1.528,1.528,0,0,0-.289-.256q-.061-.061-.1,0a4.362,4.362,0,0,0-.363.5c-.141.209-.235.363-.289.457a1.822,1.822,0,0,1-.161.242c-.121.215-.256.43-.4.673a2.455,2.455,0,0,0-.316.673l-.061.141a.909.909,0,0,0-.094.316,1.387,1.387,0,0,1,0,.2.672.672,0,0,0,.04.235l.081.215a1.009,1.009,0,0,0,.323.3.633.633,0,0,0,.188.04.827.827,0,0,0,.363,0h.04a.081.081,0,0,1,.081,0,.087.087,0,0,0,.081,0h.114a.1.1,0,0,1,.054,0,.854.854,0,0,0,.262-.081l.242-.121a.484.484,0,0,1,.135-.061.188.188,0,0,0,.114-.1h.04a.108.108,0,0,1,0-.054q.141.04.182-.061a.162.162,0,0,1,.074-.067h.141a.208.208,0,0,0,.067-.054l.114-.081a.121.121,0,0,0,.054-.141h-.121a.074.074,0,0,0-.067,0,.074.074,0,0,1-.061.034.182.182,0,0,1,.074-.114.477.477,0,0,0,.094-.067.061.061,0,0,1,.04,0,.047.047,0,0,0,.061,0,.054.054,0,0,1,.061,0h.061l.141-.148q.061,0,0-.1t0-.04a.067.067,0,0,1,.081,0,.178.178,0,0,0,.1.04c.054,0,0,0,0-.04v-.081c0-.04,0-.061.067,0h0q.1-.061.061-.222a.081.081,0,0,1,0-.061s.04-.047.04-.061a.088.088,0,0,1,0-.04h0Zm-.821.848a.047.047,0,0,1,0,.04h-.047Zm.982-1.123h0q-.061,0,0-.04Zm.161-.061q0-.1-.04,0v.1c0,.061.094,0,.121,0h0a.081.081,0,0,1,0-.061h-.034Zm.33-.2h-.04v.034c0,.034,0,0,.061,0s0,.04,0,.04-.034.047,0,.061,0,0,0,.04,0,0-.034,0h0s-.061.047-.087,0h-.04a.357.357,0,0,1,.249-.2.114.114,0,0,1-.04.081Zm.1-.141h0v.04h-.04v-.04Zm.121.081v.04l-.04.04v-.02Zm-1.776,1.117a.1.1,0,0,0,.074,0s.034,0,.034.047-.054,0-.074,0a.094.094,0,0,1-.074.04.182.182,0,0,1,0-.141s0-.047,0-.061.061-.034.061,0l.04.04v.04Zm.471-.262v.1h-.061l-.04-.061v-.04l.1-.081h-.04Zm.572-.35q.04.094.121,0v.087a.148.148,0,0,0-.061.047.074.074,0,0,1-.061,0,.034.034,0,0,1-.04-.04h.081a.034.034,0,0,0-.04-.04v-.087Zm0-.1h-.04c-.04,0,0,0,0,.04l.04.04v-.1Zm.161,0h-.04v.1a.1.1,0,0,0,.074,0h.067c0-.04,0-.054-.047-.047s-.054.034-.054-.007Z" transform="translate(-75.316 -28.158)" fill="#fff" fill-rule="evenodd"/>
        <path id="Path_8322" data-name="Path 8322" d="M241.767,86.16h-.04l.061-.061a.034.034,0,0,1,.04.04s0,.04-.061.04Zm-.4-.04Zm.343.2h.04a.061.061,0,0,1,.04,0,.081.081,0,0,0-.081.061v.128l-.04-.047-.061-.04a.067.067,0,0,0,.061.04s0,.047.04.047-.061.081-.1.04-.047,0-.054,0h-.061a.074.074,0,0,0,0,.074h.081v.04a.538.538,0,0,1-.141.1.061.061,0,0,0-.04,0h.04c.04,0-.067.108-.128.081s-.047,0-.061,0h.054v.04l-.128.081a.2.2,0,0,0-.094.148h0a.074.074,0,0,1-.074,0h-.067a.06.06,0,0,0,0,.067.074.074,0,0,1,0,.074h-.081c-.04,0,0,0,0,.04a.067.067,0,0,1,0,.061.04.04,0,0,0-.04.04c0,.04,0,0-.04.04a.121.121,0,0,0-.067.061.081.081,0,0,1-.081.04.067.067,0,0,0,0,.061l-.054.067a.067.067,0,0,0-.04.061.114.114,0,0,1-.04.081l-.061.081a.121.121,0,0,0-.081.067.229.229,0,0,1-.061.094h0a.067.067,0,0,1-.04.061.067.067,0,0,0-.04.061s0,.047,0,.054a.047.047,0,0,0-.04.047H240.1a.673.673,0,0,1-.121.289l-.182.3h0a.061.061,0,0,0,.04,0l-.04.074h-.081a.1.1,0,0,0-.054,0,.087.087,0,0,0,0,.094.158.158,0,0,1-.04.1.8.8,0,0,0-.1.121l-.087.1a.161.161,0,0,0-.04.121.289.289,0,0,1-.121.188h0a.357.357,0,0,1-.114.161.4.4,0,0,0-.108.161.316.316,0,0,1-.061.081.134.134,0,0,0-.04.1h-.061c.027,0,0,.067,0,.067l-.33.43h0a1.076,1.076,0,0,1-.175.175.4.4,0,0,0-.128.2.471.471,0,0,0-.108.087.451.451,0,0,1-.1.094,1.406,1.406,0,0,0-.148.135.585.585,0,0,1-.175.108,1.15,1.15,0,0,0-.182.094.673.673,0,0,1-.188.074.034.034,0,0,0-.04.04h-.182s0-.04-.054,0-.047,0-.047-.047a.094.094,0,0,1-.114,0,.148.148,0,0,0-.114-.047.444.444,0,0,1-.3-.222,1.1,1.1,0,0,1-.074-.114.242.242,0,0,1,0-.128.188.188,0,0,0,0-.121.423.423,0,0,1,0-.128,3.142,3.142,0,0,1,0-.834c.047-.269.108-.545.175-.814s.148-.545.242-.814a8.21,8.21,0,0,1,.33-.794.175.175,0,0,0,0-.067.155.155,0,0,1,0-.061.626.626,0,0,1,.161-.262.377.377,0,0,1,.114-.074.37.37,0,0,0,.114-.067.081.081,0,0,1,.061,0q0,.081.121.121a.161.161,0,0,1,.061.2q0,.1.04.121a.108.108,0,0,1,0,.128,1.164,1.164,0,0,0-.161.316l-.121.336-.04.087-.047.094c-.04.148-.087.289-.141.43a2.193,2.193,0,0,0-.121.424,1.827,1.827,0,0,1-.081.39l-.081.363a2.287,2.287,0,0,0-.249.652v.336a.148.148,0,0,0,0,.061.135.135,0,0,1,0,.061.343.343,0,0,0,.081.175.355.355,0,0,0,.161-.047,1.069,1.069,0,0,0,.2-.1.619.619,0,0,0,.155-.168.309.309,0,0,1,.108-.1.283.283,0,0,0,.114-.121.734.734,0,0,1,.141-.175.619.619,0,0,0,.141-.175.484.484,0,0,1,.094-.128.772.772,0,0,0,.094-.114.3.3,0,0,0,.141-.2q.081-.182.2-.182v-.047h.04a.06.06,0,0,0,0-.04h-.04v.04c0,.04-.04,0-.047,0s0,0,0-.04a.155.155,0,0,0,.074-.1.148.148,0,0,1,.067-.1.161.161,0,0,0,.074-.094.175.175,0,0,1,.054-.087.633.633,0,0,0,.087-.161.37.37,0,0,1,.094-.148.2.2,0,0,1,.141-.061q.061,0,.061-.04h-.081v-.04a.673.673,0,0,0,.1-.2s0-.04.054-.04.04,0,0-.04,0-.04,0-.04a.061.061,0,0,0,.047,0l.061.04c.061.04.074,0,.047-.061a.087.087,0,0,1,0-.128l.04-.047h.061v-.1h-.04a.121.121,0,0,1,.081-.081l.061-.074h.081V88.05a.134.134,0,0,1,0-.182l.182-.209.188-.222a1.345,1.345,0,0,1,.161-.2v.081h0v-.081c0-.081.061-.047.061-.108s0-.04.061-.081l.04.168h0a.054.054,0,0,1,.061.061.061.061,0,0,0-.04,0h0v-.04c0-.04.061,0,.061,0a.243.243,0,0,1,0-.074.247.247,0,0,0,0-.074q0-.1-.081-.04h-.054a.094.094,0,0,1,.061-.1.256.256,0,0,0,.1-.061.061.061,0,0,1,0,.04q0,.081.04.1a.06.06,0,0,0,.04,0v-.04l-.04-.061a.081.081,0,0,1,0-.061.141.141,0,0,1,.087-.141.479.479,0,0,0,.067-.094.464.464,0,0,1,.074-.087.168.168,0,0,0,.081.047.094.094,0,0,1,.061.054l.081.061a.135.135,0,0,0-.061.061H240.7v.04h.04c-.013,0,0,0,0,.047s.054,0,.081-.061a.3.3,0,0,1,.067-.081l.135-.061a.081.081,0,0,0,.061,0,.034.034,0,0,1,0-.034h0s-.074,0-.1-.1a.1.1,0,0,1,0-.087.054.054,0,0,1,.054-.04.35.35,0,0,0,.121-.087l.081-.114a.081.081,0,0,1,.061,0q.061.061,0,.061a.04.04,0,0,0-.04.04.155.155,0,0,1,0,.061.06.06,0,0,0,0,.04.061.061,0,0,1,0,.04.144.144,0,0,0-.04.087h0v-.04a.148.148,0,0,0,.135-.054.478.478,0,0,1,.067-.094c.047-.04.074-.054.087-.04s.047.034.061,0,0-.04,0-.04a.081.081,0,0,1,.061,0,.061.061,0,0,0,0-.04v-.04a.081.081,0,0,1,.061,0,.161.161,0,0,1-.04.121.269.269,0,0,0-.04.074l.1.047c.1.047,0-.067,0-.081a.316.316,0,0,0,.081-.061Zm.182,0h-.061l.04.04h.04s.047,0,0-.04Zm-.814.121h-.04c-.054,0-.061,0,0,.067h0Zm-.262.108h.027l-.04.04Zm.484,0h.061Zm0,.141q.094,0,0-.061h-.1c.061,0,.054,0,.04.061s-.034.04,0,.04h.1v-.054h0Zm-.161.141h0l-.061-.081v.081h0Zm-.444.161h0a.061.061,0,0,0,0-.04h0Zm-.108.209h.04Zm-.262.061v.061a.08.08,0,0,0,.061-.04.081.081,0,0,0,0-.061Q240.321,87.223,240.321,87.263Zm-.222.222-.04.04h.108v-.04h.061a.034.034,0,0,0-.04.04Zm0,.161q0-.081-.04-.061a.121.121,0,0,0-.054.04.14.14,0,0,1,0,.04Zm.061.04v-.04a.081.081,0,0,0,0,.061h0Zm-.249.141a.108.108,0,0,0,.047-.1h-.047v.1Zm.269.047a.356.356,0,0,0,.081-.067h-.04c-.04,0-.04.067,0,.108h0Zm.2-.087ZM239.77,88h0a.06.06,0,0,0,0-.04h0Zm0,.061h-.04v.054a.1.1,0,0,0-.04.121c.04,0,.061,0,.054-.047a.288.288,0,0,1,0-.074h.04Zm-.141.283q.061-.04,0-.081a.067.067,0,0,0-.061.04q-.061,0,0,.04Zm-.1.1a.06.06,0,0,0,0-.04h0v.04Zm-.121.168q.061-.061.061-.04h-.1a.06.06,0,0,0,.04,0Zm-.04.061Zm-.471.673a.034.034,0,0,0,.04-.04h0v.04h-.04v0Zm.121.242h0a.061.061,0,0,1,0,.04Zm-.242,0h0v.04h0Zm-.1.121h0v.04c0,.04-.067,0-.067,0v.04h0s.047-.047.047-.061Zm-.525.814h-.04a.034.034,0,0,0,.04.04Z" transform="translate(-77.384 -28.092)" fill="#fff" fill-rule="evenodd"/>
        <path id="Path_8323" data-name="Path 8323" d="M247.439,86.528a.094.094,0,0,1-.04.087v.04a.242.242,0,0,1,0,.141.229.229,0,0,1-.081.081,1.036,1.036,0,0,0-.188.141l-.148.2-.155.209h-.061a.491.491,0,0,0-.168-.054.148.148,0,0,1-.121-.108.128.128,0,0,0-.04-.087h-.047l.047-.04h0a.1.1,0,0,1,0-.161c.081-.121.161-.235.249-.343a1.13,1.13,0,0,1,.3-.289.276.276,0,0,1,.175-.047h.155a.121.121,0,0,0,.1.141V86.5Zm-.982,4.036q-.04-.121.081-.121v.141h0v-.02h-.081Zm0,0h0a.04.04,0,0,1,0,.047s.04,0,.04-.067Zm.491-.323h0Zm.1-.141h0v-.04a.1.1,0,0,1,.1,0,.04.04,0,0,1-.04.04.06.06,0,0,0-.04,0Zm.141-.081h-.061l.061.04V90Zm.081.3h-.04v-.04h.04Zm.289-.363h-.121q-.061.1-.1.1v.04h.1V90.04a.034.034,0,0,1,.04-.04h0v.135q-.04.061-.061.061h-.141c-.04,0,0,.04,0,.04a.061.061,0,0,1,.04,0h0a.034.034,0,0,1-.04.04h-.087v-.047h-.061a.081.081,0,0,1,0,.061.114.114,0,0,1-.081.04v-.081h-.1v.04h-.04q-.061-.061-.081-.04h0a.04.04,0,0,0,.04.04c.04,0,0,0,0,.04v.061h-.141l-.1.047a.664.664,0,0,0-.087.094h0s-.054-.1-.081-.1v.1h-.081c-.027,0,0-.047,0-.054a.081.081,0,0,0,.047-.047.114.114,0,0,0-.081,0v.087l.04.074-.061.04a.04.04,0,0,1-.04.04.061.061,0,0,0-.04,0h-.04a.222.222,0,0,0,0-.1h.081a.148.148,0,0,1,0-.061v-.04c0-.04-.047,0-.1,0a.215.215,0,0,1-.061.087h-.148a.444.444,0,0,1-.168.114l-.2.067-.33.121h-.141a.437.437,0,0,1-.161,0,.182.182,0,0,1-.081,0,.175.175,0,0,1-.074-.081.356.356,0,0,1,0-.182,1.271,1.271,0,0,1,.114-.35c.094-.148.155-.242.175-.283l.047-.1.121-.222c.054-.087.108-.161.148-.235a1.479,1.479,0,0,1,.141-.215,6.422,6.422,0,0,0,.437-.673l.235-.43c.081-.161.1-.276.061-.336a1.345,1.345,0,0,0-.289-.256q-.061-.061-.1,0a4.36,4.36,0,0,0-.363.5c-.135.209-.235.363-.289.457a1.823,1.823,0,0,1-.161.242c-.121.215-.256.43-.4.673a2.455,2.455,0,0,0-.316.673l-.061.141a.908.908,0,0,0-.094.316,1.39,1.39,0,0,1,0,.2.673.673,0,0,0,.04.235l.081.215a.968.968,0,0,0,.33.3.673.673,0,0,0,.182.04.828.828,0,0,0,.363,0h.04a.087.087,0,0,1,.087,0,.087.087,0,0,0,.081,0h.108a.1.1,0,0,1,.054,0,.854.854,0,0,0,.262-.081l.249-.121a.444.444,0,0,1,.128-.061.188.188,0,0,0,.114-.1h.04a.108.108,0,0,1,0-.054q.141.04.182-.061a.161.161,0,0,1,.074-.067h.141a.222.222,0,0,0,.074-.054.5.5,0,0,1,.108-.081.121.121,0,0,0,.054-.141H246.9a.067.067,0,0,0-.061,0,.074.074,0,0,1-.061.034.175.175,0,0,1,.067-.114.478.478,0,0,0,.094-.067.061.061,0,0,1,.04,0,.047.047,0,0,0,.061,0,.054.054,0,0,1,.061,0h.061l.141-.148q.061,0,0-.1t0-.04a.067.067,0,0,1,.081,0,.121.121,0,0,0,.108.04v-.121c0-.04,0-.061.061,0h0q.1-.061.061-.222a.081.081,0,0,1,0-.061s.04-.047.04-.061a.088.088,0,0,1,0-.04h0Zm-.794.848a.061.061,0,0,1,0,.04h-.04Zm.975-1.123h0q-.061,0,0-.04Zm.161-.061q0-.1-.04,0s-.034,0,0,.04,0,0,0,.061.094,0,.121,0h0a.081.081,0,0,1,0-.061h-.034Zm.33-.2h-.04v.034c0,.034,0,0,.061,0s.034.04,0,.04,0,.047,0,.061v.04h0s-.054.047-.081,0h-.04a.343.343,0,0,1,.242-.2.114.114,0,0,1-.04.081Zm.1-.141h0v.04a.061.061,0,0,1-.04,0v-.04Zm.121.081v.04l-.04.04v-.02Zm-1.769,1.117a.087.087,0,0,0,.067,0s.034,0,.034.047-.054,0-.074,0a.081.081,0,0,1-.067.04.162.162,0,0,1,0-.141s0-.047,0-.061.067-.034.067,0l.04.04v.04Zm.464-.262v.1h-.061l-.04-.061v-.04l.1-.081h-.04Zm.572-.35q.04.094.121,0v.087a.148.148,0,0,0-.061.047.074.074,0,0,1-.061,0,.034.034,0,0,1-.04-.04h.081a.034.034,0,0,0-.04-.04.072.072,0,0,1,0-.087Zm0-.1h-.04c-.04,0,0,0,0,.04l.04.04v-.1Zm.161,0h-.04v.1a.1.1,0,0,0,.074,0h.074c0-.04,0-.054-.054-.047s-.061.034-.061-.007Z" transform="translate(-79.948 -28.158)" fill="#fff" fill-rule="evenodd"/>
        <path id="Path_8324" data-name="Path 8324" d="M251.756,89.7a.04.04,0,0,1,.04.04c0,.04,0,0,.04,0s0,.054-.061.04a.087.087,0,0,0-.081,0,.081.081,0,0,0,0-.061.081.081,0,0,1,0-.061.222.222,0,0,1,.1,0Zm-.161.04h0v.081q-.04-.081-.04-.061v-.04Zm-.269.269a.135.135,0,0,1-.04.1v.047h-.094a.135.135,0,0,0-.04-.1h0q-.061.061.04.1h.061v.054h-.094l-.067.061a.1.1,0,0,1-.081.094h-.148a.114.114,0,0,0-.081,0h.121a.087.087,0,0,0,0,.081.079.079,0,0,1-.04.067.047.047,0,0,0-.047.04.188.188,0,0,1-.054.081v-.074a.1.1,0,0,0-.04-.074.067.067,0,0,0-.04-.061H250.6a.034.034,0,0,0-.04.04q.1,0,.1-.04l.061.04v.148l-.061-.04q0,.121-.061.141a.135.135,0,0,0-.061.061.134.134,0,0,1-.061.061v-.02h0l-.094.081a.081.081,0,0,1-.108,0s-.047,0-.047.04h-.081V91h.04v.054c0,.007-.047,0,0,.047a.067.067,0,0,1-.047.067c-.034,0-.047,0-.034.061s0,.04,0,.047a.2.2,0,0,0-.094.054.159.159,0,0,1-.081.121c-.081.054-.061.067-.061.081h0s-.108.175-.155.242a1.25,1.25,0,0,1-.175.209l-.121.222q-.04.061-.182.061a.525.525,0,0,1-.161,0c-.04,0-.074-.061-.108-.141a.094.094,0,0,0-.061-.054A.087.087,0,0,1,248.85,92h0s.061-.222.094-.33a2.192,2.192,0,0,1,.135-.323,1.951,1.951,0,0,0,.141-.316,1.715,1.715,0,0,1,.161-.336l.061-.121.289-.491.262-.451.283-.383a2.019,2.019,0,0,1,.33-.41,7.135,7.135,0,0,1,.572-.632h.061l.242.04q.061,0,0,.1t.04.081q.1-.02.081,0v.128l-.1.182v.04l-.034.04a1.639,1.639,0,0,1-.182.2,1.251,1.251,0,0,0-.182.2c-.067.108-.141.2-.209.3l-.222.269-.121.175-.121.2v.121h.1c.054,0,.04-.04,0-.047s-.054,0-.04-.054.067,0,.081-.1h.061q.081-.04,0-.04s0-.04-.054-.04,0,0,0-.04a.06.06,0,0,1,.061-.061h.081l.081.04h.1s0-.04-.047,0H250.8v-.061h0a.067.067,0,0,1-.04-.061c0-.087.054-.128.161-.128h.108l.081-.094h.04a.047.047,0,0,0,.04,0v.04h-.034v.04l.04-.04h.081a.1.1,0,0,1,.054.081.175.175,0,0,0,.047.108.066.066,0,0,0,.04.061Zm-1.345.895v-.061h0Q249.9,90.847,249.98,90.907Zm.121-.323v-.067h0a.062.062,0,0,0-.061.067C250.041,90.652,250.041,90.584,250.1,90.584Zm0-.168h.04Zm.222.148Zm-.1.262v-.067h0v.04Zm0-.289Zm.04,0h0v.04Zm.081.229.04-.04H250.3a.061.061,0,0,0-.04,0h0a.061.061,0,0,0,.04,0Zm.04-.161Zm.3-.673q0,.061.04,0v-.081s-.04.047-.04.061Zm-.182.3.04-.04h0v.04Zm.061-.161Zm.04.161a.222.222,0,0,1,.074-.054v-.047c0-.047-.034,0-.1-.04h-.04v.141Zm.141.061Zm.047-.262v0q-.054.04,0,.04Zm0-.081.04-.04.04-.04h-.061c-.061,0-.04,0-.04.067v.04Zm.323-.04h-.04a.1.1,0,0,0,0-.067h-.04a.087.087,0,0,0,0,.054s-.054.034-.074,0h0s-.054,0-.04.061h.04V89.9a.182.182,0,0,0,.141,0h0Zm.612-.74h.081a.134.134,0,0,1,.061-.074v.108h-.081a.067.067,0,0,1-.081,0,.034.034,0,0,1-.04-.04h.04Zm-1.466,1.083v-.061h-.121v.081h.081Zm1.056-.323a.034.034,0,0,0-.04.04c.108,0,.175,0,.188-.1a.061.061,0,0,1,.061,0v-.054c0-.054-.087-.081-.108-.081h-.04v.04a.054.054,0,0,0,0,.054h-.04V89.7a.04.04,0,0,1,.04-.04h0a.06.06,0,0,0,.04,0h.04q-.061-.061.04-.121h-.04a.061.061,0,0,0-.04,0V89.6h-.047l.047.081v.04h-.108q0,.061-.081.061a.108.108,0,0,0,.034.074.1.1,0,0,1-.054.074c-.054.034,0,0,0,.061h.081Zm-.222-.39h.04l.081-.04h-.04l-.1.061Zm-1,1.507a.042.042,0,0,0-.047-.04v.081c.047,0,.067,0,.067-.04Zm1.016-1.345h0q-.121-.061-.121.04h.121Zm.814-.182a.067.067,0,0,0,0-.061v-.04l-.061-.061a.128.128,0,0,0-.081,0,.168.168,0,0,1-.1.034.256.256,0,0,0-.1.061l.1.081v-.04h0l.121.141q.061,0,0,.061a.121.121,0,0,0,.054-.04h.108v.027l-.081-.04h-.1V89.6h.061a.08.08,0,0,1,.061.04.067.067,0,0,1,.04.061q.081,0,.061-.1a.054.054,0,0,1-.061-.061Zm-.061,0h0s-.04,0-.04-.061h0s.034,0,.061.061h0Zm-.363-.182h-.02c.04,0,.054,0,.04.04Zm-.168.323q-.04-.1-.1-.04t0,.1q.061.04.081-.061Zm-.034-.249q.121-.04.081.04t0,.04h.04v-.061a.067.067,0,0,0,0-.081q-.061-.04-.141.061Zm2.354,1.883h0c0-.087,0-.128.081-.128v.148h0V91.3Zm-.04,0h-.034v.04s.04,0,.04-.061Zm.484-.33h0Zm.108-.141h0v-.067a.1.1,0,0,1,.1,0,.04.04,0,0,1-.04.04.061.061,0,0,0-.04,0Zm.121-.067h0Zm.081.3h-.04v-.04h.04Zm.283-.363h-.1q-.061.1-.1.1v.04h.1V90.78a.034.034,0,0,1,.04-.04h0a.034.034,0,0,0,0,.034v.061q-.04.061-.061.061h-.141c-.04,0,0,.04,0,.04a.061.061,0,0,1,.04,0h0a.034.034,0,0,1-.04.04h-.04a.061.061,0,0,1-.04,0v-.047h-.061a.081.081,0,0,1,0,.061.114.114,0,0,1-.081.04v-.081H254.1v.04h-.04q-.061-.061-.081-.04h-.04a.04.04,0,0,0,.04.04c.04,0,0,0,0,.04V91.1h-.121l-.1.047a.45.45,0,0,0-.081.094h0s-.054-.1-.081-.1v.336h-.087c-.034,0,0-.047,0-.054a.087.087,0,0,0,.054-.047.128.128,0,0,0-.087,0c0,.04-.034.067,0,.087l.04.074-.061.04a.04.04,0,0,1-.04.04.06.06,0,0,0-.04,0h-.04a.222.222,0,0,0,0-.1h.081a.135.135,0,0,1,0-.061l-.034-.04c-.034-.04-.047,0-.1,0a.215.215,0,0,1-.061.087h-.141a.464.464,0,0,1-.175.114l-.2.067-.323.121h-.141a.356.356,0,0,1-.168,0,.182.182,0,0,1-.081,0,.168.168,0,0,1-.067-.081.356.356,0,0,1,0-.182,1.117,1.117,0,0,1,.108-.343,8.489,8.489,0,0,1,.41-.747c.121-.2.168-.283.141-.256a2.462,2.462,0,0,0,.141-.357c.04-.128.074-.249.1-.357a1.138,1.138,0,0,0,0-.222l-.161-.229a.161.161,0,0,0-.121-.04h-.141a.067.067,0,0,0-.061,0h-.061s-.047.04-.061.04h-.067a.054.054,0,0,1-.067,0h-.074a.135.135,0,0,0,.121,0,.054.054,0,0,1,.054,0h.054c.054,0,.081-.04.081,0s.067,0,.04.04h-.04l-.148.047h-.141q.1.1,0,.1h0a.1.1,0,0,1,0,.074h.054s0,.081.061.081l-.04.061q.081.081.061.121l-.383.713a2.286,2.286,0,0,0-.141.289,3.2,3.2,0,0,1-.168.323l-.061.141a.841.841,0,0,0-.087.316,1.594,1.594,0,0,1,0,.2.673.673,0,0,0,.04.235l.081.215a1.117,1.117,0,0,0,.33.3.673.673,0,0,0,.182.04.861.861,0,0,0,.37,0h-.02a.081.081,0,0,1,.081,0,.087.087,0,0,0,.081-.034h.161a.9.9,0,0,0,.269-.081l.242-.121a.484.484,0,0,1,.135-.061.175.175,0,0,0,.108-.1h.04a.087.087,0,0,1,0-.047c.1,0,.161,0,.188-.067s.047-.061.067-.067l.074-.034h.067a.175.175,0,0,0,.074-.054.558.558,0,0,1,.114-.081.114.114,0,0,0,.047-.141h-.121a.067.067,0,0,0-.061,0,.074.074,0,0,1-.061,0,.182.182,0,0,1,.074-.114l.087-.067a.06.06,0,0,1,.04,0,.047.047,0,0,0,.061,0,.054.054,0,0,1,.061,0h.067l.141-.141c.04,0,.047-.047,0-.108s-.047,0,0-.04a.067.067,0,0,1,.081,0,.178.178,0,0,0,.1.04c.054,0,0,0,0-.04v-.081c0-.04,0-.061.061,0h0q.1-.061.061-.222a.081.081,0,0,1,0-.061s.04-.047.04-.061a.094.094,0,0,1,0-.04h-.034Zm-2.179-1.513v.04l-.04.047h0l.04-.067Zm-.41.229h0v-.04a.081.081,0,0,0,0-.061h0a.034.034,0,0,0,.034,0,.081.081,0,0,1,.04.121h-.04c.034,0,0-.04,0-.034h0Zm1.8,2.179Zm.982-1.144h0q-.061,0,0-.04Zm.161-.061q0-.1-.04,0s-.04,0,0,.04a.067.067,0,0,1,0,.061q.081-.04.121,0h0a.081.081,0,0,1,0-.061h-.034Zm.323-.2h.02c.061,0,.034.04,0,.04s0,.047,0,.061v.04h0s-.054.047-.081,0h-.04a.343.343,0,0,1,.242-.2.114.114,0,0,1-.04.081Zm.1-.141h0v.04h-.047v-.04Zm.128.081v.04l-.04.04v-.081Zm-1.776,1.117a.081.081,0,0,0,.074,0s0,0,0,.054-.047,0-.067,0a.094.094,0,0,1-.074.04.2.2,0,0,1,0-.148v-.061c0-.013.061,0,.061,0l.04.04v.04Zm.471-.262v.1h-.061l-.04-.061h0l.1-.081h0Zm.572-.343q.04.081.121,0v.081a.148.148,0,0,0-.061.047.074.074,0,0,1-.061.034.034.034,0,0,1-.04-.04h.081a.034.034,0,0,0-.04-.04v-.081Zm0-.108h-.047c-.047,0,0,0,0,.047l.047.04V90.51Zm.161,0H255v.054a.087.087,0,0,1,0,.054.081.081,0,0,0,.067,0h.074c0-.04,0-.061-.054-.054s-.054-.02-.054-.067Z" transform="translate(-81.46 -28.784)" fill="#fff" fill-rule="evenodd"/>
        <path id="Path_8325" data-name="Path 8325" d="M259.553,91.188h.04Zm-2.1,1.224Zm-.108-.35a.047.047,0,1,0,.04.04h-.04Zm-7.4,6.175Zm7.4-5.886Zm.37-.309.061-.061Q257.676,91.981,257.717,92.042Zm-1.648.632v.04h0s.034,0,0-.061Zm-.047.081a.087.087,0,0,1,.067,0,.042.042,0,0,1-.047.04h0Zm1.756-.774v-.061h.034a.067.067,0,0,0,.047,0h-.1Zm-1.8.955.04-.061C256.062,92.815,255.954,92.876,255.981,92.936Zm.209-.424q.061,0,.061-.081h0Zm1.076-.161h-.04v.04h.04Zm0-.168h.04S257.306,92.217,257.266,92.183Zm2.078-.854h0v-.04h0Zm-.895.35h.04Zm-.121.061Zm.283-.081h.04v-.047h-.061Zm-.383.121a.042.042,0,1,0-.02.081.081.081,0,0,0,0-.061Zm-.188.04H258a.034.034,0,0,0,.04.04h.047A.042.042,0,0,0,258.039,91.82Zm.673-.249Zm0,.061a.054.054,0,0,0,.047,0h-.047Zm-1.2.511h0V92.1Zm-.168-2.57h-.04Zm.04.168h-.04a.053.053,0,0,0,.047-.04Zm-.182.081h0l.04-.04h-.04Zm.552-.733q-.061,0,0,.04v.061h0v-.121Zm-.323.484Zm-1.917,3.363h0Zm-6.283,5.1h0Zm6.605-5.24q0,.061.04,0h-.04Zm1.426-3.323a.16.16,0,0,1-.121.148.168.168,0,0,0-.047.081.094.094,0,0,1-.054.061.121.121,0,0,0-.061.1.081.081,0,0,1-.061.081v.04a.06.06,0,0,1,0,.04H256.8a.249.249,0,0,0,0,.074h-.067c-.067,0,0,.061-.067.1l-.444.552a1.137,1.137,0,0,1-.309.35l-.161.128-.141.135a.215.215,0,0,1-.121.04.135.135,0,0,0-.1.04h0a.309.309,0,0,1-.047-.262.552.552,0,0,0,.047-.2.712.712,0,0,1,.04-.229,1.18,1.18,0,0,1,.047-.182,1.714,1.714,0,0,1,.074-.161,1.3,1.3,0,0,0,.128-.256,1.851,1.851,0,0,1,.135-.256c.094-.121.188-.242.276-.37s.191-.247.3-.363l.283-.289a3.756,3.756,0,0,1,.309-.262,2.538,2.538,0,0,1,.323-.175,1.3,1.3,0,0,1,.37-.087.2.2,0,0,1,.2.061.134.134,0,0,1,.04.1v.1q0,.1.081.061h.067l-.067.081h-.081a.114.114,0,0,0-.04-.081.188.188,0,0,1-.081.054s-.04,0-.04.087a.184.184,0,0,1-.061.168c-.061.074,0,.047-.04,0h-.061a.067.067,0,0,0,0,.081v.04h-.081l-.04.054a1.3,1.3,0,0,1-.087.141l-.081.121Zm-8.072,8.7h.04a.061.061,0,0,1,.04,0q0-.061-.061,0Zm7.628-7.884Zm.222-.289Zm5.139-.121Zm-.128.121h.02Zm.108-.061h0v.04h0a.081.081,0,0,0,0-.061Zm.182,0h0l.04.04h0a.034.034,0,0,0-.04-.04Zm.061-.141h-.04l.04.04h0Zm-.632.444Zm.141.067v.04a.061.061,0,0,0,.04,0v.027h-.04Zm.531-.35h0v-.04Zm.531-.531a.114.114,0,0,0-.081,0q0,.061-.081.081v.04c0,.04,0,0,.04,0h.04s0-.04.061,0a.074.074,0,0,0,.081-.081q-.061.061-.061,0Zm.161-.04h0v-.04l-.04.04Zm-.323.209h-.067s0,.04-.061.081.061,0,.108-.04.034-.047,0-.061Zm.484-.39h0a.114.114,0,0,1,.081-.04.067.067,0,0,1-.04.061Zm-.814.592h0v.04h0Zm0-.1v.061c0,.061.04,0,.034,0h0a.061.061,0,0,0,0-.04h-.1Zm.552-.37h.04a.088.088,0,0,0,0,.04.134.134,0,0,1,0,.061h-.061v-.04h0v-.054Zm-2.206,1.251h0Zm-.249.531v.013Zm-.814,0h0c-.04,0,0,0,0-.047h0l-.04.061Zm1.8-.774a.094.094,0,0,0,.081-.067C261.679,90.205,261.571,90.273,261.571,90.34Zm0-.128h-.02c.04,0,.034,0,0-.04a.06.06,0,0,1,0-.04q.06,0,.061.04a.081.081,0,0,1-.04.081Zm-.081.33Zm-.229-.249h-.04a.074.074,0,0,0,0,.047h.04Zm-.1.108-.04-.04h0v.04h0Zm.289-.061h.121q0,.061-.061,0h-.04Zm1.238-.982h-.02v-.04Zm.9-.188v.1h-.04c0,.04-.054.061-.087.061h0a.04.04,0,0,0-.04.04.06.06,0,0,0-.04,0,.034.034,0,0,1-.04-.04h-.081l.074.074v.087a.061.061,0,0,1-.04,0,.054.054,0,0,0-.081,0v.04c0,.04,0,.087-.061.087l-.222.04h0q.061,0,0,.04h0s-.04-.054-.04-.04a.155.155,0,0,1,0,.061h0c0,.054,0,.061-.067,0h-.061v.054c0,.054,0,.034-.081.061s-.04,0-.04,0h-.02a.081.081,0,0,1-.081.04h-.04l-.37.229q-.061.061-.081.061h-.081l-.04.04v.081a.168.168,0,0,0-.141.047.363.363,0,0,1-.121.094.081.081,0,0,1-.061,0v-.061q.081-.04,0-.04c-.047.04-.061.061-.047.061s0,.081-.061.081h-.04a.242.242,0,0,1-.128.141l-.2.081a.074.074,0,0,0-.061,0h-.061a.061.061,0,0,1,0,.047.31.31,0,0,1-.209.141h-.04a.5.5,0,0,0-.175.067,1.1,1.1,0,0,1-.148.094l-.081.04h0l-.087.04-.081.054-.081.047-.067.034a.188.188,0,0,0-.074.047s0,.04-.054.04a.067.067,0,0,0-.067.047.2.2,0,0,0-.175.04.384.384,0,0,1-.155.081.45.45,0,0,0-.141.061l-.141.081a.128.128,0,0,0-.081,0H259a.065.065,0,0,1-.094,0c-.054-.047-.04,0-.047,0a.121.121,0,0,1-.054.04l-.067.04a.135.135,0,0,1-.074,0,.249.249,0,0,0-.155.04.323.323,0,0,1-.128.061.531.531,0,0,1-.155.054.336.336,0,0,0-.135.054,1.15,1.15,0,0,1-.2.061.444.444,0,0,0-.182.081c0,.04-.047,0-.054,0s0-.047-.034,0,0,0-.047,0H257.5a.081.081,0,0,1-.067,0h-.074q-.061,0-.1.081h-.081l-.121.081-.061.081-.229.39-.2.363a.625.625,0,0,1-.1.175.766.766,0,0,0-.1.155l-.209.316-.2.316v.1a.215.215,0,0,0-.1.081l-.061.1a4.034,4.034,0,0,1-.249.377c-.081.114-.168.235-.262.356a6.635,6.635,0,0,1-.471.585l-.5.558c-.209.215-.4.417-.592.592a3.545,3.545,0,0,1-.35.3l-.363.256-.235.148-.235.155-.2.094-.208.087-.2.087a1.15,1.15,0,0,1-.2.061l-.168.081a.276.276,0,0,1-.182,0,.417.417,0,0,1-.3.081.6.6,0,0,0-.309.04h-.067a.108.108,0,0,1-.074,0h-.3a.39.39,0,0,0-.148,0,.673.673,0,0,1-.2-.04l-.155-.061-.168-.04a.1.1,0,0,1-.108-.081.069.069,0,0,0-.1-.061.108.108,0,0,1-.1-.047.06.06,0,0,0,.04,0h.02q.04-.081,0-.1v-.04q0-.081-.061-.04h-.061q-.1.081-.1,0v-.081h0v.02h.061l-.04-.061a.034.034,0,0,0,.034,0h.047V97.6h.061a.081.081,0,0,0,0-.061.4.4,0,0,1,.188.061q.061.061.061.081t.04,0h.034a.094.094,0,0,0,.087,0,.148.148,0,0,1,.094,0h.061a.081.081,0,0,1,.061,0q0,.081.04.04a.161.161,0,0,1,.135,0,.161.161,0,0,0,.135,0h-.128a.377.377,0,0,0,.182,0,.767.767,0,0,0,.182-.054h.081a.135.135,0,0,1,.114,0h.094a.081.081,0,0,1,.081,0,.114.114,0,0,0,.081,0,2.015,2.015,0,0,0,.3-.1l.289-.121a3.518,3.518,0,0,0,.471-.249,4.823,4.823,0,0,0,.424-.3,2.582,2.582,0,0,0,.3-.215l.256-.235a2.98,2.98,0,0,0,.256-.242c.074-.081.161-.161.256-.249s.209-.215.3-.323.2-.222.289-.343l.262-.316.242-.316.309-.451.323-.531a2.018,2.018,0,0,0,.276-.4c.074-.141.155-.283.235-.417l.161-.242a.1.1,0,0,0,0-.067h-.1c-.04,0-.054.047-.081,0s0-.04-.04-.04,0,0,0,.04,0,.047-.061.047h.007v-.04a.222.222,0,0,0-.1,0l.061-.061v-.081h0V92.5h.061v-.1c0-.054.061,0,.061,0h.04a.128.128,0,0,1,.141-.121h.061c.061,0,.047,0,.047-.061s.061,0,.061-.04a.146.146,0,0,1,.1-.121.39.39,0,0,0,.155-.114,1.153,1.153,0,0,0,.087-.155q.1-.2.2-.383l.208-.37a4.707,4.707,0,0,0,.256-.572,1.813,1.813,0,0,1,.087-.242l-.141.161a.93.93,0,0,0-.155.2.773.773,0,0,1-.128.175,2.585,2.585,0,0,0-.188.2,2.456,2.456,0,0,1-.182.2,1.594,1.594,0,0,1-.673.471.854.854,0,0,1-.242.081.417.417,0,0,1-.269-.061.135.135,0,0,0-.1-.04.222.222,0,0,1-.1,0,.37.37,0,0,1-.2-.2.283.283,0,0,0-.061-.108.121.121,0,0,1,0-.121.155.155,0,0,0,0-.121.263.263,0,0,1,0-.121,1.964,1.964,0,0,1,.061-.471,3.658,3.658,0,0,1,.1-.363,3.483,3.483,0,0,1,.141-.37,3.933,3.933,0,0,1,.37-.632l.283-.383a3.05,3.05,0,0,1,.3-.35,3.4,3.4,0,0,1,.982-.713l.256-.094a.766.766,0,0,1,.276-.047.242.242,0,0,1,.182-.04.753.753,0,0,0,.182,0,.182.182,0,0,1,.081,0,.5.5,0,0,0,.188.121.8.8,0,0,1,.2.121h0l.061.2v.108l.04.141v.121l.121-.262a1.607,1.607,0,0,0,.188-.35q0-.081.121-.061a.31.31,0,0,0,.121-.04q.1,0,.081.081t.04.061c.067,0,.1,0,.094.04a.337.337,0,0,0,0,.081v.061a.3.3,0,0,1-.061.289.933.933,0,0,0-.141.182,1.415,1.415,0,0,0-.1.2q-.044.07-.094.135a1.806,1.806,0,0,1-.114.155.673.673,0,0,0-.067.141.323.323,0,0,1-.114.141.417.417,0,0,1-.087.209.356.356,0,0,0-.094.2.182.182,0,0,0-.1.121,1.434,1.434,0,0,1-.061.182.592.592,0,0,0-.148.289l-.182.3-.121.256a2.54,2.54,0,0,1-.121.235s-.034.054,0,.074,0,0,0,.047a.121.121,0,0,0-.054.04.242.242,0,0,1-.047.061.364.364,0,0,0-.067.168.236.236,0,0,1-.04.061.236.236,0,0,0-.04.061.236.236,0,0,1-.04.061.234.234,0,0,0-.04.061v.061h.04l.121-.04a.276.276,0,0,1,.148,0h0v-.04c0-.04.034,0,0,0h0a.41.41,0,0,1,.222-.081h.04a.179.179,0,0,1,.148-.1.283.283,0,0,0,.108-.074.108.108,0,0,1,.135,0,.121.121,0,0,1,.114-.081.33.33,0,0,0,.148-.04.5.5,0,0,1,.289-.1.888.888,0,0,0,.182-.1.114.114,0,0,1,.081,0,.121.121,0,0,1,.04-.054h.04a1.842,1.842,0,0,0,.269-.1l.222-.121h.061a.087.087,0,0,0,.061,0h.04l.081-.04h0l.061-.04h.087a.094.094,0,0,1,.087-.067.168.168,0,0,0,.114-.074.04.04,0,0,1,.061,0h.061c0-.04,0,0,.047,0h0a.234.234,0,0,0,.04-.061h0a.067.067,0,0,0-.04.061h-.04q0-.081.04-.1t.04,0h-.04a.316.316,0,0,0,.061-.081h.168a.209.209,0,0,1,.067-.054h.074a.162.162,0,0,0,.061-.054.148.148,0,0,1,.061-.047.074.074,0,0,1,.081,0,.114.114,0,0,0,.081,0q0-.061.04-.061l.04-.04h.209a.034.034,0,0,1,.04-.04.034.034,0,0,0,.04-.04h.04q.061.061.061,0s-.034-.04,0-.04h.114a.061.061,0,0,1-.04,0h0a.114.114,0,0,0,.081,0s.04,0,.04-.061,0,0,.04,0,.047.047.108,0,.047-.034.061,0a.081.081,0,0,0,.061,0,.235.235,0,0,1,.04-.061v-.061c0-.061-.034-.1.061-.128h.04a.155.155,0,0,1,.141,0h.074v-.04h0a.094.094,0,0,0,.148,0V89.5h.04q.182-.161.3-.04h.04q.081-.04,0-.04t0-.061l.182-.081a.034.034,0,0,1,.04.04h0a.04.04,0,0,1,0,.047s0,0,0-.047h0a.081.081,0,0,0,.061,0h.061Zm-6.323.673-.04.04h0v-.04Zm.061-.209h.02Zm.04.188h.04a.042.042,0,0,1-.047.04Zm.108-.209Zm.283-.444v.081h0Zm-.895,1.17h-.02Zm.182-.269Zm-1.164,2.771Zm-6.666,5.22h0Zm.04.161a.081.081,0,0,0-.061,0h-.04q.061-.061.081,0Zm.76.04h.02Zm5.946-5.3q-.04-.061.04-.061Q255.941,92.963,255.961,92.963Zm.061-.161h0a.087.087,0,0,1,.067,0,.042.042,0,0,1-.047.04Zm.047-.04h0v-.04h.04v.061Zm.121-.229.061-.081h0Q256.25,92.533,256.19,92.533Zm1.076-.35h.04S257.306,92.217,257.266,92.183Zm0,.168h0l-.061.04V92.4h.04Zm.081,0Zm.061-.289h0a.047.047,0,1,1-.04-.04h.04Zm.087.309Zm.04-.209h0v.04Zm.182-.141q-.04-.061.061-.061Zm.161-.1h-.1V91.86h.034a.067.067,0,0,0,.047,0Zm.229-.081h-.047a.034.034,0,0,1-.04-.04q0-.061.04,0C258.093,91.8,258.107,91.8,258.107,91.84Zm.161,0a.034.034,0,0,1-.061.02h.04a.081.081,0,0,1,0,.061Zm.081-.081Zm.161-.061h-.02Zm.182-.067v.047h-.04Zm.087,0Zm0-.061h0Zm.605-.222h0v.04Zm.168-.161Zm.242-.061h0l.04-.061h0v.047h0Zm.814,0v.02h0Zm.289-.552h0Zm.242-.161v-.04h0l.04.04h0Zm.161-.1h-.04a.074.074,0,0,1,0-.047h.04Zm.269-.148h.02a.081.081,0,0,0,.04-.081s0-.04-.061-.04a.061.061,0,0,0,0,.04v.04Zm0,.37Zm-.04-.182h.04q0,.061-.061,0Zm.061,0c0-.047,0-.067.081-.067S261.618,90.353,261.591,90.353Zm.182-.047h0v-.047h0Zm.161.087v.04a.06.06,0,0,1-.04,0v-.04Zm.1-.33h-.061q0-.061.04,0Zm.128,0h0c-.04,0-.054,0,0-.04h0a.081.081,0,0,1,0,.061Zm0-.081h0Zm.182.061h0L262.3,90h0a.034.034,0,0,1,.04.04Zm0-.141-.04-.04h.04Zm.061.141v.04h0Zm0-.121v-.081h0v.04h0Zm.1-.141h-.034c-.034,0-.034-.047,0-.061s0,0,.061,0h.04a.061.061,0,0,1,0,.04Zm.229-.061c-.047.04-.081.054-.108.04s.061-.067.061-.081,0-.04.067,0,0,.034,0,.061Zm.161-.128q-.061-.061-.061,0h-.081v-.04s.081-.04.081-.081a.114.114,0,0,1,.081,0q0,.081.061,0a.074.074,0,0,1-.081.081Zm.141-.081h-.061v-.04h0v-.054h.04a.087.087,0,0,0,0,.04.135.135,0,0,1,0,.061Zm.081-.1v.04h0l.04-.04Zm.161-.141a.067.067,0,0,0,.04-.061.114.114,0,0,0-.081.04h0Zm.39-.37-.1.087c-.04,0-.061,0-.061-.047h0s0,.047-.034.047h0a.135.135,0,0,0,.1.04l.061-.061h.1c.054,0,0,0,0-.04V88.84Zm-.289.188h-.04c-.04,0,0,0-.061.04h.04a.054.054,0,0,0,.061-.061Zm-.363.061h.04l.061-.04h0a.067.067,0,0,0-.081,0Zm-.935.673h-.074l-.034.04a.141.141,0,0,0,.087,0Zm1.487-.491-.04-.04v.1h.04v-.04Zm-.1.081h-.027Zm-.128.081v-.1h-.04v.1Zm.249-.323s0,.04.061.04l-.04-.081q-.061,0,0,.04Zm-.572.081h0Zm-.41.2h0a.061.061,0,0,0,.04,0Zm-.673.491v0Zm-6.727,3.013c-.04,0-.061,0-.061.108s-.074,0-.061-.067a.087.087,0,0,0,0-.047h.04a.571.571,0,0,1,.121-.1.182.182,0,0,1,.188.061.209.209,0,0,0,.081.04l.061.061h0q-.04.081-.1.081h0s-.061-.054-.047-.081-.034-.1-.1-.087Zm.148.061h.121c.027,0-.094.04-.121,0Zm-.8.35h.081c.04-.094.1-.108.168-.04h.161a.034.034,0,0,1,.04-.04s0-.04-.04,0h-.1s0,.04-.061.04,0-.047-.04,0l-.087.081a.04.04,0,0,1-.04-.04h-.087a.277.277,0,0,0,0,.114.04.04,0,0,0,.04-.04c0-.04,0,0,.04,0Zm.39-.141a.108.108,0,0,0,.161,0v-.04a.067.067,0,0,0,.094,0,.061.061,0,0,1,.087,0h0v-.04a.081.081,0,0,0-.061,0h-.04a.034.034,0,0,0-.04-.04q0,.081-.04.061h-.061a.134.134,0,0,1-.061.061.034.034,0,0,1-.04.04Zm.632-.673a.061.061,0,0,1-.061-.02h-.108a.114.114,0,0,0,.04.081h.061a.08.08,0,0,0,.061-.04h.04q.061,0,.04-.04a.081.081,0,0,0-.081-.04Zm.04.2-.182.061h0a.081.081,0,0,1,.061,0,.081.081,0,0,0,.061,0h0a.034.034,0,0,1,.04-.04h.141a.1.1,0,0,0-.121-.04Zm.283-.283a.1.1,0,0,0-.081.04c-.027.04-.1,0-.1.061h.1a.182.182,0,0,1,.081,0,.087.087,0,0,0,.081,0l-.04-.04h-.04S255.941,92.472,255.9,92.472Zm.1.121h.047a.249.249,0,0,1,0-.074.081.081,0,0,0,0-.067.094.094,0,0,0-.087.1.034.034,0,0,1,.04.04Zm-1,.363q0-.081-.04-.04s-.034.04-.054,0a.04.04,0,0,0-.047,0h0s.034,0,0,.04,0,0,.034,0,0-.081.04-.067a.084.084,0,0,0,.061,0l-.04-.04Zm-.37.148v.04l.074-.061c.034,0,.047-.04.034-.04h-.04a.084.084,0,0,0-.087.087Zm-5.6,5.173a.175.175,0,0,0-.121.061.081.081,0,0,0,.081.04q-.04-.081,0-.081Zm5.563-5.112v-.04s-.04,0-.04.061,0,0,.04.061,0,0,0-.081Zm.632-.41v-.04a.114.114,0,0,1-.081,0h0a.222.222,0,0,0,.1,0Zm-.161.061v-.04a.034.034,0,0,0-.04-.04.081.081,0,0,0,0,.061q0,.061.04,0Zm-.673.592v.04h.061c.027,0,.047,0,0-.04Zm-.161-.141v-.081h0l-.061.02h.034Zm.1,0c0-.04-.047-.054-.054-.034a.087.087,0,0,1-.047.054c0,.04.04.047.047,0a.054.054,0,0,1,.054-.04Zm-.491.222.04-.061h0q-.081,0-.081.04l.04.04Zm-.612.37v-.114q0-.061-.04,0h0l.061.081ZM248.36,97.4h.034v.04a.081.081,0,0,1,0-.061h0Zm5.623-3.834c.047,0,.067,0,.067-.04h0v.04Zm-.04-.222h0s-.04.047-.04.061h.061v-.04Zm.76-.451h-.047v.061l.047-.04Zm.585-.222.04.04h0v-.04Zm-1.386.774v.081Q254.024,93.488,253.9,93.448Zm-5.038,4.466h.04l-.04-.04h0ZM254.817,93h0a.034.034,0,1,0,.04-.04Zm-.733.343v-.061h0v.04Zm.262-.061Zm-.2,0h-.013Zm-.471.081v.04h0v-.04Zm.673-.161h0a.061.061,0,0,0,0,.04Zm.612-.2h0a.061.061,0,0,0,0,.04Zm.774-.471Zm-6.807,5.7h0v0h.04Zm4.406-4.581Zm-4.588,4.3v-.04h0Zm-.04-.222h0Zm0,.081h0v0Zm.2,0h0Zm5.381-4.487.04.04h0v-.04h0a.061.061,0,0,1-.04,0Zm-.491.081v.04h0Z" transform="translate(-81.3 -28.539)" fill="#fff" fill-rule="evenodd"/>
      </g>
    </g>
  </g>
</svg>
