<svg xmlns="http://www.w3.org/2000/svg" width="180.62" height="72.6" viewBox="0 0 180.62 72.6">
  <g id="Mask_Group_22052" data-name="Mask Group 22052" transform="translate(-99 -23)">
    <g id="Group_22051" data-name="Group 22051" transform="translate(98 10)">
      <g id="ALL_LOGO_1_-02" data-name="ALL LOGO (1)-02" transform="translate(1 13)">
        <path id="Path_8309" data-name="Path 8309" d="M7.79,23.53h.22l-.8,2.91H0V26.2H.35a.88.88,0,0,0,.84-.44,2.78,2.78,0,0,0,.15-1.16v-7a2.39,2.39,0,0,0-.2-1.25A.9.9,0,0,0,.35,16H0v-.29H4.22V16a2.14,2.14,0,0,0-1,.16.8.8,0,0,0-.4.41,3.69,3.69,0,0,0-.11,1.2v6.78a2.42,2.42,0,0,0,.11.91.49.49,0,0,0,.25.24,3.55,3.55,0,0,0,1.07.08h.68a4.38,4.38,0,0,0,1.51-.18,2,2,0,0,0,.74-.6,5.62,5.62,0,0,0,.72-1.46Zm7-.62H11.13l-.62,1.68a3.17,3.17,0,0,0-.23.94.55.55,0,0,0,.2.43,1.56,1.56,0,0,0,.87.24v.29H8.42V26.2a1.43,1.43,0,0,0,.75-.31A5.26,5.26,0,0,0,10,24.35l3.27-8.86h.23l3.24,9a4.22,4.22,0,0,0,.71,1.4,1.29,1.29,0,0,0,.89.36v.29H14.62V26.2a1.24,1.24,0,0,0,.75-.21.59.59,0,0,0,.2-.45,3.53,3.53,0,0,0-.28-1.1l-.55-1.53Zm-.21-.59L13,18l-1.61,4.34Zm3.74-6.58V16a1.85,1.85,0,0,1,.6.07,2,2,0,0,1,.61.33,4,4,0,0,1,.62.72V24.6a2.57,2.57,0,0,1-.16,1.16.92.92,0,0,1-.85.41h-.33v.29H22V26.2h-.3a1,1,0,0,1-.81-.33,2.41,2.41,0,0,1-.19-1.24V18l6.13,8.67h.25V17.6a2.78,2.78,0,0,1,.15-1.16.93.93,0,0,1,.85-.41h.34v-.29H25.14V16h.33a1,1,0,0,1,.81.33,2.4,2.4,0,0,1,.2,1.24v6.21l-5.71-8.07Zm18.79-.25.21,3.65h-.21a4.71,4.71,0,0,0-1.21-2.36,2.69,2.69,0,0,0-1.9-.72,2.75,2.75,0,0,0-1.66.54,3.6,3.6,0,0,0-1.18,1.74,9,9,0,0,0-.42,3,7.19,7.19,0,0,0,.4,2.53,3.42,3.42,0,0,0,1.21,1.64,3.14,3.14,0,0,0,1.85.57,2.85,2.85,0,0,0,1.59-.45,5.65,5.65,0,0,0,1.52-1.77l.21.16a5.48,5.48,0,0,1-1.63,2.1,3.7,3.7,0,0,1-2.21.66,4,4,0,0,1-3.57-2,6.34,6.34,0,0,1-.95-3.48,6.92,6.92,0,0,1,.63-3,4.94,4.94,0,0,1,1.71-2.09,4.18,4.18,0,0,1,2.38-.74,4,4,0,0,1,2,.57.92.92,0,0,0,.41.18.42.42,0,0,0,.32-.15,1.33,1.33,0,0,0,.25-.6Zm6,0a4,4,0,0,1,3.14,1.59,6,6,0,0,1,1.32,4,6.17,6.17,0,0,1-1.33,4.07,4.06,4.06,0,0,1-6.46,0,6.14,6.14,0,0,1-1.31-4.09A5.86,5.86,0,0,1,40,16.9a4.13,4.13,0,0,1,3.13-1.41Zm-.13.57a2.34,2.34,0,0,0-2,1.07A6.82,6.82,0,0,0,40,21a7.21,7.21,0,0,0,1,4.05,2.31,2.31,0,0,0,2,1.08A2.57,2.57,0,0,0,45.15,25,6.44,6.44,0,0,0,46,21.26a7.25,7.25,0,0,0-.94-4.12A2.39,2.39,0,0,0,43,16.06Z" fill="#fff" fill-rule="evenodd"/>
        <path id="Path_8310" data-name="Path 8310" d="M2,54.46V34.6H9.48a9.29,9.29,0,0,1,3.65.6,4.69,4.69,0,0,1,2.15,1.86,4.88,4.88,0,0,1,.78,2.62,4.51,4.51,0,0,1-.69,2.4,5,5,0,0,1-2.08,1.81,5.11,5.11,0,0,1,2.77,1.81,4.75,4.75,0,0,1,1,3,5.87,5.87,0,0,1-.59,2.6A5,5,0,0,1,15,53.15a6.12,6.12,0,0,1-2.17,1,13.31,13.31,0,0,1-3.21.33ZM4.66,43H9a9.72,9.72,0,0,0,2.51-.23,2.75,2.75,0,0,0,1.51-1A2.84,2.84,0,0,0,13.48,40,3.17,3.17,0,0,0,13,38.24a2.34,2.34,0,0,0-1.35-1,11.13,11.13,0,0,0-3-.28h-4v6Zm0,9.18H9.61A10.51,10.51,0,0,0,11.4,52a4.07,4.07,0,0,0,1.52-.54,2.86,2.86,0,0,0,1-1.11,3.47,3.47,0,0,0,.39-1.68,3.3,3.3,0,0,0-.57-1.93,3,3,0,0,0-1.58-1.16,9.83,9.83,0,0,0-2.91-.33H4.66V52.1Zm16,2.33V34.6h8.8a11.64,11.64,0,0,1,4,.54A4.36,4.36,0,0,1,35.73,37a5.63,5.63,0,0,1,.83,3,5,5,0,0,1-1.37,3.57A7,7,0,0,1,31,45.42a6.37,6.37,0,0,1,1.58,1,13.11,13.11,0,0,1,2.18,2.64l3.43,5.41H34.88l-2.63-4.13a33.06,33.06,0,0,0-1.89-2.74A5.88,5.88,0,0,0,29,46.26a4,4,0,0,0-1.2-.53,8.26,8.26,0,0,0-1.46-.09h-3v8.82ZM23.3,43.42H29A8.37,8.37,0,0,0,31.78,43a2.88,2.88,0,0,0,1.53-1.19A3.25,3.25,0,0,0,33.84,40a3,3,0,0,0-1-2.32,4.73,4.73,0,0,0-3.22-.91H23.33v6.58Zm16.53,1.42a10.77,10.77,0,0,1,2.66-7.73,9.05,9.05,0,0,1,6.86-2.79,9.6,9.6,0,0,1,5,1.31,8.5,8.5,0,0,1,3.36,3.66,11.88,11.88,0,0,1,1.16,5.32A11.58,11.58,0,0,1,57.64,50a8.31,8.31,0,0,1-3.45,3.61,9.85,9.85,0,0,1-4.83,1.22,9.4,9.4,0,0,1-5-1.35A8.69,8.69,0,0,1,41,49.74a11.1,11.1,0,0,1-1.14-5Zm2.72.05a7.9,7.9,0,0,0,1.93,5.64,6.73,6.73,0,0,0,9.72,0,8.41,8.41,0,0,0,1.91-5.91,10.23,10.23,0,0,0-.81-4.23,6.31,6.31,0,0,0-2.4-2.79,6.52,6.52,0,0,0-3.54-1,6.71,6.71,0,0,0-4.8,1.92q-2,1.9-2,6.38ZM87.2,54.46V34.6h14.34v2.33H89.84V43h11v2.33h-11V52.1H102v2.33Zm18.5,0V34.6h8.81a11.57,11.57,0,0,1,4,.54A4.38,4.38,0,0,1,120.75,37a5.63,5.63,0,0,1,.82,3,5,5,0,0,1-1.37,3.57,7,7,0,0,1-4.2,1.85,6.45,6.45,0,0,1,1.59,1,13.43,13.43,0,0,1,2.17,2.64l3.43,5.41h-3.28l-2.62-4.13c-.77-1.2-1.4-2.11-1.89-2.74a5.88,5.88,0,0,0-1.4-1.34,4,4,0,0,0-1.2-.53,8.19,8.19,0,0,0-1.46-.09h-3v8.82Zm2.64-11.09H114a8.37,8.37,0,0,0,2.81-.38,2.88,2.88,0,0,0,1.53-1.19,3.17,3.17,0,0,0,.53-1.78,3,3,0,0,0-1-2.32,4.7,4.7,0,0,0-3.21-.91h-6.28v6.58ZM123.5,54.46l7.62-19.86H134l8.09,19.86h-3l-2.29-6h-8.37l-2.15,6Zm5.72-8.15H136l-2.07-5.51c-.62-1.67-1.09-3.06-1.42-4.15a27.373,27.373,0,0,1-1.1,3.83l-2.17,5.83Zm24.25.36V44.34h8.41V51.7a15,15,0,0,1-4,2.32,12,12,0,0,1-4.22.77,11.25,11.25,0,0,1-5.32-1.25,8.18,8.18,0,0,1-3.6-3.62,11.33,11.33,0,0,1-1.23-5.29,12.3,12.3,0,0,1,1.22-5.42,8,8,0,0,1,3.48-3.72,10.87,10.87,0,0,1,5.24-1.22,10.3,10.3,0,0,1,3.9.7,6.33,6.33,0,0,1,2.72,1.94,8.76,8.76,0,0,1,1.51,3.25l-2.38.65a7.61,7.61,0,0,0-1.11-2.39A4.52,4.52,0,0,0,156.2,37a6.89,6.89,0,0,0-2.73-.53,8.12,8.12,0,0,0-3.11.55,5.82,5.82,0,0,0-2.12,1.45,6.85,6.85,0,0,0-1.25,2,10.511,10.511,0,0,0-.76,4,9.92,9.92,0,0,0,.91,4.46,5.83,5.83,0,0,0,2.66,2.65,8.22,8.22,0,0,0,3.71.87,8.75,8.75,0,0,0,3.33-.66,8.58,8.58,0,0,0,2.46-1.41V46.67Zm12.34,7.79V34.6h14.34v2.33h-11.7V43h11v2.33h-11V52.1h12.17v2.33Z" fill="#fff" fill-rule="evenodd"/>
        <path id="Path_8311" data-name="Path 8311" d="M49.76,2.14,61.17,0V41.61L49.76,25.73Z" fill="#fff" fill-rule="evenodd"/>
        <path id="Path_8312" data-name="Path 8312" d="M78.34,21.11H92.86L75.52,40.57,95.91,72.6H81.81L61.17,41.61Z" fill="#fff" fill-rule="evenodd"/>
      </g>
    </g>
  </g>
</svg>
