<svg xmlns="http://www.w3.org/2000/svg" width="212.756" height="32" viewBox="0 0 212.756 32">
  <g id="_1-02" data-name="1-02" transform="translate(0 5.624)">
    <path id="Path_8335" data-name="Path 8335" d="M16.363,15.764l.475.105L15.16,21.144H0v-.538H.738a1.973,1.973,0,0,0,1.772-.8,4.652,4.652,0,0,0,.3-2.11V5.035a4.072,4.072,0,0,0-.4-2.289A2.11,2.11,0,0,0,.738,2.123H0V1.585H8.862v.538a5.349,5.349,0,0,0-2.194.285,1.783,1.783,0,0,0-.855.749A6.33,6.33,0,0,0,5.581,5.34V17.684a4.22,4.22,0,0,0,.232,1.656,1.055,1.055,0,0,0,.538.454,10.3,10.3,0,0,0,2.258.19h1.424a10.36,10.36,0,0,0,3.165-.327,4.22,4.22,0,0,0,1.667-1.182A9.495,9.495,0,0,0,16.363,15.764ZM31,14.645H23.4l-1.308,3.07a4.885,4.885,0,0,0-.5,1.7,1.055,1.055,0,0,0,.433.791,3.745,3.745,0,0,0,1.836.433v.538H17.692v-.538a3.249,3.249,0,0,0,1.582-.559,8.883,8.883,0,0,0,1.635-2.817L27.8,1.142h.485l6.8,16.289a7.258,7.258,0,0,0,1.5,2.553,2.986,2.986,0,0,0,1.867.654v.538H30.732v-.538a2.838,2.838,0,0,0,1.582-.39,1.055,1.055,0,0,0,.411-.812,5.9,5.9,0,0,0-.58-2L31,14.645Zm-.443-1.055-3.3-7.912-3.386,7.9ZM38.391,1.585v.538a4.79,4.79,0,0,1,1.277.127,4.621,4.621,0,0,1,1.287.591A8.44,8.44,0,0,1,42.2,4.159v13.62a4.431,4.431,0,0,1-.316,2.11,2.036,2.036,0,0,1-1.793.749h-.7v.538h6.889v-.538h-.7a2.226,2.226,0,0,1-1.72-.6,4.009,4.009,0,0,1-.39-2.258V5.71L56.368,21.534h.6V4.982a4.22,4.22,0,0,1,.327-2.11,1.994,1.994,0,0,1,1.783-.749h.7V1.585H52.855v.538h.686a2.184,2.184,0,0,1,1.709.6,3.84,3.84,0,0,1,.411,2.258V16.291L43.655,1.585Zm39.52-.443.443,6.646h-.443a8.44,8.44,0,0,0-2.543-4.294,6.2,6.2,0,0,0-3.977-1.319,6.393,6.393,0,0,0-3.5.992A6.52,6.52,0,0,0,65.42,6.332a14.285,14.285,0,0,0-.9,5.391,11.446,11.446,0,0,0,.886,4.6,6.33,6.33,0,0,0,2.543,2.986,7.311,7.311,0,0,0,3.893,1.055,6.657,6.657,0,0,0,3.344-.812,10.8,10.8,0,0,0,3.165-3.228l.454.3a10.244,10.244,0,0,1-3.429,3.808,9.59,9.59,0,0,1-12.164-2.395,10.4,10.4,0,0,1-1.983-6.33,11.214,11.214,0,0,1,1.3-5.433,9.358,9.358,0,0,1,3.6-3.808,9.727,9.727,0,0,1,5.011-1.35A9.094,9.094,0,0,1,75.3,2.165a2.279,2.279,0,0,0,.865.316.971.971,0,0,0,.675-.274,2.11,2.11,0,0,0,.527-1.055Zm12.713,0a8.862,8.862,0,0,1,6.594,2.9A9.991,9.991,0,0,1,100,11.269,10.3,10.3,0,0,1,97.2,18.654a9.379,9.379,0,0,1-13.588.063,10.318,10.318,0,0,1-2.743-7.385,9.938,9.938,0,0,1,3.165-7.606,9.41,9.41,0,0,1,6.594-2.585ZM90.349,2.2a5.148,5.148,0,0,0-4.22,1.952q-1.973,2.426-1.973,7.111a12.005,12.005,0,0,0,2.036,7.385,5.032,5.032,0,0,0,4.146,1.973,5.665,5.665,0,0,0,4.547-2.11c1.192-1.445,1.793-3.7,1.793-6.794,0-3.355-.665-5.855-1.973-7.5a5.275,5.275,0,0,0-4.357-2.036Z" transform="translate(0 0)" fill="#fff" fill-rule="evenodd"/>
    <text id="Easy_Term" data-name="Easy Term" transform="translate(107.756 20.376)" fill="#fff" font-size="24" font-family="SegoeUI, Segoe UI"><tspan x="0" y="0" letter-spacing="-0.03em">E</tspan><tspan y="0">asy T</tspan><tspan y="0" letter-spacing="-0.02em">e</tspan><tspan y="0" letter-spacing="0.04em">r</tspan><tspan y="0">m</tspan></text>
  </g>
</svg>
