<svg id="ALL_LOGO_1_-01" data-name="ALL LOGO (1)-01" xmlns="http://www.w3.org/2000/svg" width="183.994" height="58.143" viewBox="0 0 183.994 58.143">
  <path id="Path_8332" data-name="Path 8332" d="M124.13,12.408a3.237,3.237,0,1,1,3.281-3.237,3.237,3.237,0,0,1-3.281,3.237Zm3.793-4.833a4.159,4.159,0,0,0-2.2-2.153,3.984,3.984,0,0,0-1.6-.322,3.94,3.94,0,0,0-1.6.322,4.2,4.2,0,0,0-1.318.864,4.027,4.027,0,0,0-.879,1.289,3.984,3.984,0,0,0-.337,1.6,3.867,3.867,0,0,0,.337,1.64,3.94,3.94,0,0,0,.879,1.3,4.2,4.2,0,0,0,1.318.864,3.94,3.94,0,0,0,1.6.322,3.984,3.984,0,0,0,1.6-.322,4.306,4.306,0,0,0,1.3-.864,4.218,4.218,0,0,0,.893-1.3,4.13,4.13,0,0,0,.322-1.582,4.262,4.262,0,0,0-.322-1.655Z" transform="translate(55.748 2.369)" fill="#fff" fill-rule="evenodd"/>
  <path id="Path_8333" data-name="Path 8333" d="M123.242,8.329h-.732V6.865h.615c.82,0,1.23.234,1.23.718s-.366.732-1.113.732Zm1.7,1.04a1.816,1.816,0,0,0-.513-.659,1.216,1.216,0,0,0,.732-1.142,1.157,1.157,0,0,0-.571-1.025,2.68,2.68,0,0,0-1.465-.352,10.076,10.076,0,0,0-1.465.117h0V10.98h.835V8.988h.762a.923.923,0,0,1,.776.469,3.925,3.925,0,0,1,.454,1.465v.073h.835v-.1a6.282,6.282,0,0,0-.381-1.523Z" transform="translate(56.52 2.875)" fill="#fff" fill-rule="evenodd"/>
  <text id="LANCO" transform="translate(51.582 38.909)" fill="#fff" font-size="35" font-family="TimesNewRomanPSMT, Times New Roman"><tspan x="0" y="0">LANCO</tspan></text>
  <text id="ROPERTY_MANAGEMENT" data-name="ROPERTY MANAGEMENT" transform="translate(42.18 54.084)" fill="#fff" font-size="11" font-family="Arial-BoldMT, Arial" font-weight="700"><tspan x="0" y="0">ROPERT</tspan><tspan y="0" letter-spacing="-0.019em">Y</tspan><tspan y="0" xml:space="preserve"> MANAGEMENT</tspan></text>
  <path id="Path_8334" data-name="Path 8334" d="M27.08,0H5.126A5.126,5.126,0,0,0,0,5.126V58.143H7.586a5.126,5.126,0,0,0,5.126-5.126V23.858L21.5,15.07l9.593,8.963v20.65A22.379,22.379,0,0,0,48.228,22.935V21.163A21.148,21.148,0,0,0,27.08,0Z" transform="translate(0 0)" fill="#fff"/>
  <rect id="Rectangle_5905" data-name="Rectangle 5905" width="5.36" height="12.464" transform="translate(19.186 32.85)" fill="#fff"/>
</svg>
