<svg id="ALL_LOGO_1_-02" data-name="ALL LOGO (1)-02" xmlns="http://www.w3.org/2000/svg" width="66.35" height="94.691" viewBox="0 0 66.35 94.691">
  <path id="Path_8326" data-name="Path 8326" d="M15.27,45.5A3.368,3.368,0,0,0,11.622,42a3.5,3.5,0,1,0,0,7,3.368,3.368,0,0,0,3.648-3.5ZM8.448,52.229V76.878h6.542V52.229Z" transform="translate(1.754 9.071)" fill="#fff" fill-rule="evenodd"/>
  <path id="Path_8327" data-name="Path 8327" d="M58.146,64.525a15.115,15.115,0,0,0,.17-2.614c0-7.965-3.891-12.16-9.862-12.16-7.211,0-11.285,6.08-11.285,13.182,0,7.661,4.329,12.44,11.941,12.44a21.1,21.1,0,0,0,7.977-1.411l-.936-4.524a17.729,17.729,0,0,1-6.08,1.021c-3.539,0-6.554-1.678-6.725-5.886Zm-14.738-4.56c.17-2.432,1.508-5.7,4.645-5.7s4.256,3.137,4.207,5.7Z" transform="translate(8.029 10.747)" fill="#fff" fill-rule="evenodd"/>
  <path id="Path_8328" data-name="Path 8328" d="M23.563,53.877l-.316-3.32H17.58c.1,2.177.182,4.524.182,7.406V75.206h6.554V60.54c0-3.745,2.432-5.119,4.2-5.119,2.8,0,3.77,2.432,3.77,5.4V75.206h6.542V60.115c0-6.907-3.49-10.044-8-10.044A8.172,8.172,0,0,0,23.7,53.877Z" transform="translate(3.798 10.816)" fill="#fff" fill-rule="evenodd"/>
  <rect id="Rectangle_5902" data-name="Rectangle 5902" width="6.554" height="86.046" fill="#fff"/>
  <path id="Path_8329" data-name="Path 8329" d="M3.035,78.3a2.882,2.882,0,0,1-.693.523,1.836,1.836,0,0,1-.754.17,1.3,1.3,0,0,1-.973-.365,1.374,1.374,0,0,1-.365-1,1.484,1.484,0,0,1,.17-.742,1.3,1.3,0,0,1,.462-.5,2.553,2.553,0,0,1,.9-.268A5.35,5.35,0,0,0,3,75.859v-.268a1.034,1.034,0,0,0-.182-.693.961.961,0,0,0-.754-.28,1.046,1.046,0,0,0-.693.195,1.216,1.216,0,0,0-.353.778L.36,75.47a1.751,1.751,0,0,1,.559-1.094,1.921,1.921,0,0,1,1.216-.353,1.7,1.7,0,0,1,.961.231,1.009,1.009,0,0,1,.45.572,4.232,4.232,0,0,1,.085,1.009v1.07a14.349,14.349,0,0,0,0,1.435,1.933,1.933,0,0,0,.17.572H3.169a1.715,1.715,0,0,1-.134-.584Zm0-1.812a4.1,4.1,0,0,1-1.143.316,2.092,2.092,0,0,0-.584.158.681.681,0,0,0-.255.268.8.8,0,0,0-.1.389.742.742,0,0,0,.207.547.839.839,0,0,0,.6.207,1.217,1.217,0,0,0,1.058-.693,2.189,2.189,0,0,0,.158-.876v-.292Zm3.4,2.432V74.1h.6v.742a1.982,1.982,0,0,1,.413-.669A.681.681,0,0,1,7.887,74a1.216,1.216,0,0,1,.572.255l-.219.766a.839.839,0,0,0-.486-.182.6.6,0,0,0-.389.146.717.717,0,0,0-.243.413,3.77,3.77,0,0,0-.134.985v2.5Zm6.773-1.739.657.1a2.189,2.189,0,0,1-.559,1.3,1.484,1.484,0,0,1-1.094.45A1.532,1.532,0,0,1,11,78.4a3.77,3.77,0,0,1-.109-3.782A1.593,1.593,0,0,1,12.179,74a1.459,1.459,0,0,1,1.034.377,1.909,1.909,0,0,1,.535,1.131l-.644.122a1.362,1.362,0,0,0-.328-.717.742.742,0,0,0-.572-.243,1,1,0,0,0-.815.426,3.308,3.308,0,0,0,0,2.8.949.949,0,0,0,.79.45.839.839,0,0,0,.644-.292,1.666,1.666,0,0,0,.34-.9Zm2.906,1.739V72.284h.669v2.432a1.52,1.52,0,0,1,.523-.486,1.313,1.313,0,0,1,.644-.17,1.216,1.216,0,0,1,1,.4,2.213,2.213,0,0,1,.353,1.459v3.028h-.657V75.859a1.423,1.423,0,0,0-.219-.888.742.742,0,0,0-.608-.268.912.912,0,0,0-.73.34,1.873,1.873,0,0,0-.3,1.216v2.614Zm5.9-5.667v-.936h.669v.936Zm0,5.667V74.1h.669v4.791Zm4.864-.73.1.717a1.97,1.97,0,0,1-.5.073.985.985,0,0,1-.559-.134.681.681,0,0,1-.292-.377,3.915,3.915,0,0,1-.073-.948v-2.8h-.5V74.1h.426V72.88l.657-.486V74.06h.669v.632h-.669v2.845a1.35,1.35,0,0,0,.061.5.316.316,0,0,0,.316.158h.292Zm5-.8.681.1a2.006,2.006,0,0,1-.62,1.216,1.763,1.763,0,0,1-2.432-.243A2.858,2.858,0,0,1,29,76.638a2.979,2.979,0,0,1,.511-1.885,1.63,1.63,0,0,1,1.325-.657,1.556,1.556,0,0,1,1.216.645,2.882,2.882,0,0,1,.511,1.848V76.8H29.581a2.1,2.1,0,0,0,.365,1.216,1.058,1.058,0,0,0,.815.413c.5,0,.851-.328,1.046-.985ZM29.69,76.078h2.189a1.824,1.824,0,0,0-.316-.973.961.961,0,0,0-.815-.438,1,1,0,0,0-.766.365,1.7,1.7,0,0,0-.34,1.009Zm7.965,1.107.669.1a2.128,2.128,0,0,1-.681,1.265,1.459,1.459,0,0,1-1.082.45,1.532,1.532,0,0,1-1.216-.632,3.77,3.77,0,0,1,0-3.745A1.593,1.593,0,0,1,36.634,74a1.459,1.459,0,0,1,1.009.377,1.982,1.982,0,0,1,.535,1.131l-.657.122a1.362,1.362,0,0,0-.328-.717.705.705,0,0,0-.559-.243,1,1,0,0,0-.815.426,3.308,3.308,0,0,0,0,2.8.936.936,0,0,0,.79.45.815.815,0,0,0,.632-.292,1.569,1.569,0,0,0,.34-.9Zm4.4,1.009.085.717a1.9,1.9,0,0,1-.5.073.985.985,0,0,1-.559-.134.815.815,0,0,1-.292-.377,3.915,3.915,0,0,1-.073-.949v-2.8h-.486V74.1h.486V72.88l.657-.486V74.06h.681v.632h-.766v2.845a1.35,1.35,0,0,0,.061.5.34.34,0,0,0,.328.158h.292Zm2.055-.705.657-.109a1.216,1.216,0,0,0,.316.742.961.961,0,0,0,.693.255.949.949,0,0,0,.669-.219.705.705,0,0,0,.231-.547.511.511,0,0,0-.195-.438,2.529,2.529,0,0,0-.669-.28,5.2,5.2,0,0,1-1.046-.4,1.216,1.216,0,0,1-.4-.438,1.4,1.4,0,0,1-.146-.644,1.289,1.289,0,0,1,.389-.985,1.471,1.471,0,0,1,1.082-.389,1.69,1.69,0,0,1,.766.158,1.216,1.216,0,0,1,.511.426,1.9,1.9,0,0,1,.243.766l-.644.122a.778.778,0,0,0-.851-.8,1.082,1.082,0,0,0-.657.17.559.559,0,0,0-.207.438.523.523,0,0,0,.207.426,3.77,3.77,0,0,0,.73.292,5.436,5.436,0,0,1,1.07.4,1.034,1.034,0,0,1,.365.426,1.325,1.325,0,0,1,.134.645,1.508,1.508,0,0,1-.426,1.107,1.666,1.666,0,0,1-1.216.426,1.544,1.544,0,0,1-1.629-1.544Zm10.129,1.435V72.284H54.9v6.6Zm4.864-.73.085.717a1.97,1.97,0,0,1-.5.073.985.985,0,0,1-.559-.134.742.742,0,0,1-.292-.377,3.916,3.916,0,0,1-.073-.949v-2.8h-.5V74.1h.5V72.88l.657-.486V74.06h.681v.632h-.79v2.845a1.35,1.35,0,0,0,.061.5.328.328,0,0,0,.316.158h.413Zm4.864.73v-.6a1.4,1.4,0,0,1-.462.523,1.216,1.216,0,0,1-.62.182,1.459,1.459,0,0,1-1.216-.657,2.918,2.918,0,0,1-.511-1.836,3.648,3.648,0,0,1,.231-1.386,1.775,1.775,0,0,1,.6-.839,1.386,1.386,0,0,1,.839-.28,1.216,1.216,0,0,1,.608.17,1.484,1.484,0,0,1,.462.486V72.26h.669v6.6Zm-2.1-2.432a2.432,2.432,0,0,0,.316,1.374.948.948,0,0,0,.754.462.924.924,0,0,0,.742-.438,2.274,2.274,0,0,0,.3-1.313,2.663,2.663,0,0,0-.3-1.459.924.924,0,0,0-.79-.462.851.851,0,0,0-.717.438,2.517,2.517,0,0,0-.377,1.411Z" transform="translate(0.054 15.61)" fill="#fff" fill-rule="evenodd"/>
</svg>
