<svg xmlns="http://www.w3.org/2000/svg" width="110.161" height="121.697" viewBox="0 0 110.161 121.697">
  <g id="Group_22998" data-name="Group 22998" transform="translate(-78 770.697)">
    <g id="Group_22739" data-name="Group 22739" transform="translate(88.825 -769)">
      <circle id="Ellipse_623" data-name="Ellipse 623" cx="31.335" cy="31.335" r="31.335" transform="translate(0 44.314) rotate(-45)" fill="none" stroke="#fff" stroke-miterlimit="2.61" stroke-width="1"/>
      <circle id="Ellipse_624" data-name="Ellipse 624" cx="31.335" cy="31.335" r="31.335" transform="translate(0 44.314) rotate(-45)" fill="#fff" stroke="#000002" stroke-miterlimit="2.61" stroke-width="2.4"/>
      <circle id="Ellipse_625" data-name="Ellipse 625" cx="29.09" cy="29.09" r="29.09" transform="translate(15.221 15.222)" fill="#000002" stroke="#231f20" stroke-miterlimit="2.61" stroke-width="0.5"/>
      <path id="Path_9532" data-name="Path 9532" d="M62.507,70.352l.182.034-.638,2.005H56.32v-.2h.273a.758.758,0,0,0,.684-.3,1.766,1.766,0,0,0,.114-.8V66.3a1.51,1.51,0,0,0-.154-.866.786.786,0,0,0-.632-.245h-.273v-.2H59.67v.2a2.16,2.16,0,0,0-.826.108.649.649,0,0,0-.325.285,2.359,2.359,0,0,0-.1.826v4.672a1.55,1.55,0,0,0,.091.627.4.4,0,0,0,.2.171,3.789,3.789,0,0,0,.855.051h.564a3.851,3.851,0,0,0,1.2-.125,1.59,1.59,0,0,0,.627-.444,3.618,3.618,0,0,0,.57-1Zm5.532-.427H65.191l-.5,1.139a1.9,1.9,0,0,0-.205.7.376.376,0,0,0,.16.3,1.39,1.39,0,0,0,.7.165v.2H63.009v-.2a1.242,1.242,0,0,0,.57-.211,3.264,3.264,0,0,0,.615-1.065l2.609-6.1h.182l2.575,6.159a2.975,2.975,0,0,0,.57.969,1.179,1.179,0,0,0,.706.245v.2H67.942v-.2a1.048,1.048,0,0,0,.57-.148.37.37,0,0,0,.16-.313A2.336,2.336,0,0,0,68.455,71l-.439-1.054Zm-.165-.4-1.248-2.985L65.344,69.52Zm2.968-4.558v.2a1.709,1.709,0,0,1,.479.051,1.9,1.9,0,0,1,.49.222,3.79,3.79,0,0,1,.484.5v5.127a1.658,1.658,0,0,1-.12.8.781.781,0,0,1-.678.285h-.262v.2h2.6v-.2h-.268a.82.82,0,0,1-.644-.228,1.476,1.476,0,0,1-.154-.855V66.506l4.877,5.965h.2v-6.2a1.709,1.709,0,0,1,.12-.781.781.781,0,0,1,.678-.285h.279v-.2H76.306v.2h.262a.809.809,0,0,1,.644.234,1.458,1.458,0,0,1,.16.855v4.279l-4.558-5.566Zm14.921-.142.165,2.512h-.165a3.168,3.168,0,0,0-.963-1.624,2.324,2.324,0,0,0-1.5-.5,2.416,2.416,0,0,0-1.322.376,2.444,2.444,0,0,0-.934,1.2,5.282,5.282,0,0,0-.342,2.034,4.387,4.387,0,0,0,.319,1.743,2.49,2.49,0,0,0,.969,1.139,2.752,2.752,0,0,0,1.47.393,2.535,2.535,0,0,0,1.265-.308,4.216,4.216,0,0,0,1.208-1.225l.171.108a3.92,3.92,0,0,1-1.3,1.447,3.629,3.629,0,0,1-4.575-.923,3.908,3.908,0,0,1-.729-2.381,4.25,4.25,0,0,1,.5-2.04,3.561,3.561,0,0,1,1.356-1.441,3.669,3.669,0,0,1,1.9-.507,3.458,3.458,0,0,1,1.578.393.877.877,0,0,0,.325.12.365.365,0,0,0,.256-.1.821.821,0,0,0,.2-.41Zm4.808,0a3.344,3.344,0,0,1,2.49,1.094,3.771,3.771,0,0,1,1.06,2.735,3.874,3.874,0,0,1-1.065,2.8,3.544,3.544,0,0,1-5.127,0A3.92,3.92,0,0,1,86.9,68.66a3.76,3.76,0,0,1,1.2-2.849,3.544,3.544,0,0,1,2.5-.963Zm-.108.387a1.948,1.948,0,0,0-1.584.741,4.159,4.159,0,0,0-.752,2.689,4.438,4.438,0,0,0,.775,2.792,1.909,1.909,0,0,0,1.567.741,2.148,2.148,0,0,0,1.709-.815,3.988,3.988,0,0,0,.678-2.564,4.5,4.5,0,0,0-.746-2.849,2.011,2.011,0,0,0-1.624-.735Z" transform="translate(-31.243 -15.597)" fill="#fff" fill-rule="evenodd"/>
      <path id="Path_9533" data-name="Path 9533" d="M84.723,88.713h-.3a.605.605,0,0,0-.074.1l-.085.154c-.034.057-.068.125-.1.194l-.114.222h.433a1.526,1.526,0,0,0,.268-.068,1.451,1.451,0,0,0,.211-.108.41.41,0,0,0,.131-.131.285.285,0,0,0,.046-.154.245.245,0,0,0-.114-.211.7.7,0,0,0-.342-.068Zm-.6,1.008a.353.353,0,0,1-.108-.08l-.137.291c-.04.091-.08.182-.108.262l-.085.211c0,.063,0,.1-.034.131a.3.3,0,0,0,.108.034.569.569,0,0,0,.148,0,1.572,1.572,0,0,0,.4-.051,1.4,1.4,0,0,0,.336-.154.781.781,0,0,0,.234-.217.427.427,0,0,0,.085-.251.285.285,0,0,0-.177-.279,1.487,1.487,0,0,1-.57.1H84.1Zm1.179-.7a.518.518,0,0,1-.1.319.752.752,0,0,1-.291.234.638.638,0,0,1,.188.182.45.45,0,0,1,.068.239.57.57,0,0,1-.1.313,1.19,1.19,0,0,1-.268.268,1.4,1.4,0,0,1-.382.188,1.293,1.293,0,0,1-.439.074.979.979,0,0,1-.422-.085.689.689,0,0,1-.285-.239l.085-.216a.829.829,0,0,1,.108-.273c.04-.1.085-.194.125-.285l.12-.256c.08-.165.148-.3.211-.41a1.982,1.982,0,0,1,.171-.256,1.938,1.938,0,0,0-.308.108,1.406,1.406,0,0,0-.205.12A.234.234,0,0,1,83.521,89a.363.363,0,0,1-.057-.074.622.622,0,0,1-.046-.085.222.222,0,0,1,0-.08,1.215,1.215,0,0,1,.211-.1,2.759,2.759,0,0,1,.279-.08l.313-.057h.3a1.043,1.043,0,0,1,.57.137A.433.433,0,0,1,85.3,89.026Z" transform="translate(-42.839 -25.793)" fill="#39b54a" fill-rule="evenodd"/>
      <path id="Path_9534" data-name="Path 9534" d="M88.891,90.059a.628.628,0,0,0-.177.068.729.729,0,0,0-.165.137.945.945,0,0,0-.148.205,1.578,1.578,0,0,0-.1.245,1.31,1.31,0,0,0,.416-.285.57.57,0,0,0,.177-.37Zm.211-.091a.815.815,0,0,1-.068.308.615.615,0,0,1-.16.222,1.037,1.037,0,0,1-.251.177,2.525,2.525,0,0,1-.348.154V90.9a.376.376,0,0,0,0,.08.284.284,0,0,0,0,.074.222.222,0,0,0,.046.057.125.125,0,0,0,.074,0,.4.4,0,0,0,.16-.034.667.667,0,0,0,.154-.085.907.907,0,0,0,.137-.114l.114-.108a.216.216,0,0,1,.051.051,1.611,1.611,0,0,1-.3.291.883.883,0,0,1-.313.142.524.524,0,0,1-.336-.142.422.422,0,0,1-.12-.3.866.866,0,0,1,.034-.239,1.14,1.14,0,0,1,.1-.239,1.282,1.282,0,0,1,.33-.393.8.8,0,0,1,.2-.12.569.569,0,0,1,.211-.04.4.4,0,0,1,.3.188Z" transform="translate(-44.849 -26.336)" fill="#39b54a" fill-rule="evenodd"/>
      <path id="Path_9535" data-name="Path 9535" d="M91.507,89.748a.222.222,0,0,1,0-.074.313.313,0,0,1,0-.1.783.783,0,0,0,.16,0H91.8c0-.057.063-.114.1-.171a1.8,1.8,0,0,1,.108-.154,1.1,1.1,0,0,1,.1-.12l.068-.063h.262l.057.034c-.063.074-.114.142-.16.205s-.091.137-.142.217h.245a.091.091,0,0,1,0,.04.108.108,0,0,1,0,.046,1.184,1.184,0,0,1-.37.051c-.051.1-.1.188-.137.279s-.074.182-.1.268-.051.165-.068.239a1.408,1.408,0,0,0-.023.291c0,.085.034.131.1.142a.621.621,0,0,0,.177-.046.41.41,0,0,0,.148-.08.114.114,0,0,1,0,.046.324.324,0,0,1-.063.057l-.1.068-.1.057h-.074a.49.49,0,0,1-.154,0,.667.667,0,0,1-.142-.074.336.336,0,0,1-.1-.1.183.183,0,0,1-.04-.108,1.2,1.2,0,0,1,0-.177,2.215,2.215,0,0,1,.057-.228l.085-.262c.034-.091.068-.182.108-.273Z" transform="translate(-46.331 -26.031)" fill="#39b54a" fill-rule="evenodd"/>
      <path id="Path_9536" data-name="Path 9536" d="M94.517,89.748a.131.131,0,0,1,0-.074.3.3,0,0,1,0-.1.7.7,0,0,0,.154,0h.137c0-.057.063-.114.1-.171l.108-.154a1.1,1.1,0,0,1,.1-.12l.068-.063h.268l.051.034c-.057.074-.114.142-.154.205l-.148.217h.245a.091.091,0,0,1,0,.04.108.108,0,0,1,0,.046,1.139,1.139,0,0,1-.37.051c-.051.1-.1.188-.137.279s-.074.182-.1.268-.051.165-.068.239a1.408,1.408,0,0,0-.023.291c0,.085.034.131.1.142a.57.57,0,0,0,.177-.046.5.5,0,0,0,.154-.08.091.091,0,0,1,0,.046.326.326,0,0,1-.063.057l-.1.068-.1.057h-.074a.49.49,0,0,1-.154,0,.83.83,0,0,1-.142-.074.569.569,0,0,1-.1-.1.182.182,0,0,1-.04-.108,1.2,1.2,0,0,1,0-.177.952.952,0,0,1,.057-.228c.023-.08.057-.171.091-.262a2.725,2.725,0,0,1,.108-.273Z" transform="translate(-47.626 -26.031)" fill="#39b54a" fill-rule="evenodd"/>
      <path id="Path_9537" data-name="Path 9537" d="M98.137,90.059a.627.627,0,0,0-.177.068.729.729,0,0,0-.165.137,1.225,1.225,0,0,0-.245.45,1.281,1.281,0,0,0,.41-.285A.57.57,0,0,0,98.137,90.059Zm.216-.091a1.139,1.139,0,0,1-.068.308.69.69,0,0,1-.16.222,1.071,1.071,0,0,1-.256.177,2.524,2.524,0,0,1-.348.154V90.9a.379.379,0,0,0,0,.08.284.284,0,0,0,0,.074.131.131,0,0,0,.04.057.142.142,0,0,0,.074,0,.427.427,0,0,0,.165-.034,1.038,1.038,0,0,0,.154-.085l.131-.114a1.07,1.07,0,0,0,.114-.108l.057.051a1.828,1.828,0,0,1-.308.291.843.843,0,0,1-.313.142.524.524,0,0,1-.336-.142.422.422,0,0,1-.12-.3.7.7,0,0,1,.04-.239,1.1,1.1,0,0,1,.1-.239,1.282,1.282,0,0,1,.33-.393.838.838,0,0,1,.205-.12.524.524,0,0,1,.205-.04.422.422,0,0,1,.3.188Z" transform="translate(-48.824 -26.336)" fill="#39b54a" fill-rule="evenodd"/>
      <path id="Path_9538" data-name="Path 9538" d="M100.44,91.1a2.142,2.142,0,0,1,.057-.222,1.061,1.061,0,0,1,.091-.291c.034-.1.068-.211.108-.313L100.81,90a1.05,1.05,0,0,1,.074-.142.571.571,0,0,1,.068-.085h.091l.091.04.074.04.051.04a1.185,1.185,0,0,0-.142.216,1.976,1.976,0,0,0-.131.3,3.572,3.572,0,0,0,.3-.268,1.976,1.976,0,0,0,.239-.285h.063a.205.205,0,0,1,.085,0,.166.166,0,0,1,.057.034.718.718,0,0,0-.057.279.388.388,0,0,0,.04.188.148.148,0,0,1-.04.068l-.085.091a.4.4,0,0,1-.148-.108.57.57,0,0,1-.1-.154,2.626,2.626,0,0,0-.251.182,1.141,1.141,0,0,0-.171.205,1.071,1.071,0,0,0-.125.256,2.664,2.664,0,0,0-.1.348h-.068l-.08-.034-.068-.051A.16.16,0,0,1,100.44,91.1Z" transform="translate(-50.227 -26.332)" fill="#39b54a" fill-rule="evenodd"/>
      <path id="Path_9539" data-name="Path 9539" d="M106.224,90.19a1.579,1.579,0,0,1,.063-.359c.046-.154.108-.336.188-.57a7.9,7.9,0,0,1,.359-.815,2.518,2.518,0,0,1,.33-.507.233.233,0,0,1,.068.034l.108.051.091.057a.279.279,0,0,1,.057.046,3.5,3.5,0,0,0-.427.57,5.027,5.027,0,0,0-.336.7,5.738,5.738,0,0,0-.194.621,1.919,1.919,0,0,0-.068.456v.085h-.074a.125.125,0,0,1-.04-.034l-.034-.04a.183.183,0,0,0-.051-.046.148.148,0,0,1-.046-.091A.735.735,0,0,1,106.224,90.19Z" transform="translate(-52.713 -25.545)" fill="#39b54a" fill-rule="evenodd"/>
      <path id="Path_9540" data-name="Path 9540" d="M109.2,89.264a.286.286,0,0,1,0-.051.091.091,0,0,1,0-.046.165.165,0,0,1,0-.051v-.165a.4.4,0,0,1,.034-.108l.034-.1h.091a.468.468,0,0,1,.108.051.444.444,0,0,1,.1.063.291.291,0,0,1,.074.068l-.091.091a.736.736,0,0,0-.108.12l-.1.114-.057.08a.125.125,0,0,1-.063,0,.08.08,0,0,1,0-.051Zm-.57,1.259a.256.256,0,0,1,0-.063v-.108a1.322,1.322,0,0,1,.034-.154,1.128,1.128,0,0,1,.051-.228.366.366,0,0,1,0-.091.507.507,0,0,1,.057-.131.729.729,0,0,1,.085-.142.387.387,0,0,1,.12-.1.61.61,0,0,1,.142.057.485.485,0,0,1,.148.137.972.972,0,0,0-.12.148.859.859,0,0,0-.085.16,1.45,1.45,0,0,0-.074.165.535.535,0,0,1-.074.182,1.2,1.2,0,0,0-.057.171.57.57,0,0,0-.034.148v.074h-.051a.262.262,0,0,1-.074-.046.211.211,0,0,1-.068-.074.194.194,0,0,1-.023-.108Z" transform="translate(-53.742 -25.889)" fill="#39b54a" fill-rule="evenodd"/>
      <path id="Path_9541" data-name="Path 9541" d="M111.187,90.113a.521.521,0,0,1,0-.1.171.171,0,0,1,.034-.08.154.154,0,0,1,.068-.051.228.228,0,0,1,.114,0h.1a.217.217,0,0,1,.1-.006.707.707,0,0,0,0,.091v.188a1.294,1.294,0,0,0,0,.16v.353a1.276,1.276,0,0,1-.063.313h0l.1-.1.125-.137.131-.165.12-.171c.051-.08.1-.182.165-.3a2.942,2.942,0,0,0,.148-.393h.194a.781.781,0,0,1-.068.256,1.2,1.2,0,0,1-.137.251,2.158,2.158,0,0,1-.171.228c-.057.074-.114.131-.16.188a3.569,3.569,0,0,1-.387.376,2.627,2.627,0,0,1-.359.245.279.279,0,0,1-.125-.08.12.12,0,0,1-.046-.1.222.222,0,0,1,0-.08.172.172,0,0,1,.04-.12c.04-.051,0-.1.034-.177a1.711,1.711,0,0,0,0-.273v-.194A.168.168,0,0,0,111.187,90.113Z" transform="translate(-54.798 -26.311)" fill="#39b54a" fill-rule="evenodd"/>
      <path id="Path_9542" data-name="Path 9542" d="M115.1,89.264a.194.194,0,0,1,0-.051.085.085,0,0,1,0-.046.086.086,0,0,1,0-.051.326.326,0,0,1,0-.068.78.78,0,0,1,0-.1.763.763,0,0,1,0-.108.428.428,0,0,1,.04-.1h.091l.108.051a.444.444,0,0,1,.1.063.256.256,0,0,1,.068.068l-.085.091a.735.735,0,0,0-.108.12,1.49,1.49,0,0,0-.1.114.569.569,0,0,0-.057.08.126.126,0,0,1-.063,0,.063.063,0,0,1,0-.051Zm-.57,1.259a.256.256,0,0,1,0-.063.461.461,0,0,1,0-.108V90.2a1.73,1.73,0,0,1,.051-.228q0-.046,0-.091a.367.367,0,0,1,.057-.131.728.728,0,0,1,.085-.142.409.409,0,0,1,.125-.1.57.57,0,0,1,.137.057.427.427,0,0,1,.148.137.688.688,0,0,0-.114.148,1.442,1.442,0,0,0-.091.16l-.068.165a.535.535,0,0,1-.074.182,1.262,1.262,0,0,0-.063.171.517.517,0,0,0,0,.148.257.257,0,0,1,0,.074h-.046a.285.285,0,0,1-.08-.046.437.437,0,0,1-.068-.074.239.239,0,0,1-.023-.108Z" transform="translate(-56.281 -25.889)" fill="#39b54a" fill-rule="evenodd"/>
      <path id="Path_9543" data-name="Path 9543" d="M117.284,89.74a.348.348,0,0,1,.148.1.644.644,0,0,1,.108.177,1.392,1.392,0,0,1-.108.188c-.046.074-.1.148-.142.228l-.131.216a.571.571,0,0,0-.063.171l.108-.114.12-.131.1-.12.074-.08.142-.137a1.98,1.98,0,0,1,.165-.142,1.666,1.666,0,0,1,.182-.12.382.382,0,0,1,.16-.046.182.182,0,0,1,.137.051.512.512,0,0,1,.085.108h0a.25.25,0,0,0-.068.057c0,.034-.057.085-.1.142l-.1.2a1.712,1.712,0,0,0-.085.216.7.7,0,0,0-.034.2.183.183,0,0,0,0,.1.1.1,0,0,0,.057,0h.131a.074.074,0,0,1,0,.034l-.057.04-.074.04H117.9a.389.389,0,0,1-.148,0,.205.205,0,0,1-.085-.068.194.194,0,0,1-.046-.1.386.386,0,0,1,0-.12.4.4,0,0,1,0-.08.421.421,0,0,1,0-.1.183.183,0,0,1,.051-.142l.085-.2-.08.04a.918.918,0,0,0-.171.125,3.63,3.63,0,0,0-.256.262,3.139,3.139,0,0,0-.239.285l-.12.148a.245.245,0,0,1-.091.085.211.211,0,0,1-.091-.1.522.522,0,0,1-.051-.131.732.732,0,0,1,0-.137,1.582,1.582,0,0,1,.051-.188,1.88,1.88,0,0,1,.068-.216c.028-.074.063-.154.1-.228a3.335,3.335,0,0,1,.216-.4A.712.712,0,0,1,117.284,89.74Z" transform="translate(-57.204 -26.319)" fill="#39b54a" fill-rule="evenodd"/>
      <path id="Path_9544" data-name="Path 9544" d="M119.8,92.03l.028-.034.063.051.051.028h.108a.569.569,0,0,0,.3-.08.946.946,0,0,0,.279-.228,1.88,1.88,0,0,0,.234-.37,3.039,3.039,0,0,0,.182-.49l-.091.074-.114.08a.752.752,0,0,1-.114.068.359.359,0,0,1-.1.046.2.2,0,0,1-.1-.04.381.381,0,0,1-.051-.091.319.319,0,0,1-.051-.108.484.484,0,0,1,0-.131.707.707,0,0,1,.046-.234,1.807,1.807,0,0,1,.12-.234,1.55,1.55,0,0,1,.177-.216,1.277,1.277,0,0,1,.216-.177.975.975,0,0,1,.228-.12.649.649,0,0,1,.228-.046.256.256,0,0,1,.16.04.245.245,0,0,1,.08.148.137.137,0,0,0-.085,0,.365.365,0,0,0-.171.051,1.441,1.441,0,0,0-.2.142,2.28,2.28,0,0,0-.2.205,1.676,1.676,0,0,0-.177.234,1.892,1.892,0,0,0-.125.234.57.57,0,0,0-.046.2h0a.12.12,0,0,0,.074,0,.523.523,0,0,0,.108-.074.705.705,0,0,0,.125-.1l.125-.12a1.92,1.92,0,0,0,.245-.313,2.132,2.132,0,0,0,.177-.336h.148a.228.228,0,0,1,.091.046q-.108.222-.171.376c-.046.1-.08.194-.108.273s-.108.268-.16.382a3.336,3.336,0,0,1-.148.319,2.174,2.174,0,0,1-.165.273,1.977,1.977,0,0,1-.2.245.683.683,0,0,1-.12.1.761.761,0,0,1-.137.068l-.137.046a.446.446,0,0,1-.12,0h-.154l-.142-.046a.569.569,0,0,1-.12-.063A.3.3,0,0,1,119.8,92.03Z" transform="translate(-58.557 -26.336)" fill="#39b54a" fill-rule="evenodd"/>
      <rect id="Rectangle_6035" data-name="Rectangle 6035" width="0.746" height="14.499" transform="translate(38.123 32.234)" fill="#e6e7e8"/>
      <rect id="Rectangle_6036" data-name="Rectangle 6036" width="0.746" height="14.499" transform="translate(50.259 32.234)" fill="#e6e7e8"/>
      <rect id="Rectangle_6037" data-name="Rectangle 6037" width="12.847" height="0.746" transform="translate(38.123 45.982)" fill="#e6e7e8"/>
      <rect id="Rectangle_6038" data-name="Rectangle 6038" width="0.746" height="16.619" transform="translate(40.169 28.144)" fill="#e6e7e8"/>
      <rect id="Rectangle_6039" data-name="Rectangle 6039" width="0.746" height="16.619" transform="translate(48.333 28.144)" fill="#e6e7e8"/>
      <rect id="Rectangle_6040" data-name="Rectangle 6040" width="8.905" height="0.746" transform="translate(40.169 44.022)" fill="#e6e7e8"/>
      <rect id="Rectangle_6041" data-name="Rectangle 6041" width="0.746" height="19.291" transform="translate(42.112 23.535)" fill="#e6e7e8"/>
      <rect id="Rectangle_6042" data-name="Rectangle 6042" width="0.746" height="19.291" transform="translate(46.407 23.518)" fill="#e6e7e8"/>
      <rect id="Rectangle_6043" data-name="Rectangle 6043" width="5.042" height="0.746" transform="translate(42.112 42.079)" fill="#e6e7e8"/>
      <rect id="Rectangle_6044" data-name="Rectangle 6044" width="0.746" height="21.199" transform="translate(44.214 19.193)" fill="#e6e7e8"/>
      <path id="Path_9545" data-name="Path 9545" d="M56.83,84.307v-2.6h.894a1.944,1.944,0,0,1,.461.04.951.951,0,0,1,.382.182,1.049,1.049,0,0,1,.3.444,1.755,1.755,0,0,1,.1.621,1.858,1.858,0,0,1-.068.524,1.276,1.276,0,0,1-.177.376,1.009,1.009,0,0,1-.234.234.98.98,0,0,1-.313.131,1.782,1.782,0,0,1-.416.046ZM57.172,84h.57a1.293,1.293,0,0,0,.4-.046.57.57,0,0,0,.234-.137.815.815,0,0,0,.188-.325,1.641,1.641,0,0,0,.068-.5,1.276,1.276,0,0,0-.131-.632.712.712,0,0,0-.325-.291,1.43,1.43,0,0,0-.444-.051h-.57v1.983Zm2.279.308v-2.6h1.88v.308H59.775v.8h1.43v.3h-1.43V84h1.59v.308Zm3.156,0-1.008-2.6h.376l.649,1.886a4.212,4.212,0,0,1,.137.427,4.166,4.166,0,0,1,.142-.427l.7-1.886h.353l-.991,2.6Zm1.709,0v-2.6h1.874v.308H64.635v.8h1.407v.3H64.635V84h1.59v.308Zm2.393,0v-2.6h.348v2.279h1.265V84.3Zm1.926-1.265a1.413,1.413,0,0,1,.348-1.008,1.179,1.179,0,0,1,.9-.365,1.225,1.225,0,0,1,.644.171,1.14,1.14,0,0,1,.444.479A1.6,1.6,0,0,1,71.1,83a1.515,1.515,0,0,1-.16.706,1.048,1.048,0,0,1-.45.467,1.276,1.276,0,0,1-.632.165,1.219,1.219,0,0,1-.655-.182,1.139,1.139,0,0,1-.439-.479,1.5,1.5,0,0,1-.148-.649Zm.359,0a1.031,1.031,0,0,0,.251.741.883.883,0,0,0,1.27,0A1.105,1.105,0,0,0,70.743,83a1.276,1.276,0,0,0-.108-.57.786.786,0,0,0-.313-.365.809.809,0,0,0-.461-.131.86.86,0,0,0-.627.251,1.105,1.105,0,0,0-.262.832ZM71.563,84.3V81.709h.98a3.167,3.167,0,0,1,.393,0,.792.792,0,0,1,.325.125.6.6,0,0,1,.205.251.837.837,0,0,1-.131.912,1.008,1.008,0,0,1-.763.228h-.689v1.082ZM71.9,82.94h.672a.723.723,0,0,0,.473-.125.456.456,0,0,0,.142-.353.433.433,0,0,0-.085-.273.353.353,0,0,0-.216-.154,1.357,1.357,0,0,0-.319,0h-.689v.929ZM73.973,84.3V81.709h.513l.593,1.857.125.382a2,2,0,0,1,.137-.416l.627-1.806h.461v2.581H76.1V82.136l-.758,2.171h-.308L74.281,82.1v2.211Zm3.037,0V81.709h1.852v.308H77.329v.8h1.436v.3H77.329V84h1.6v.308Zm2.4,0V81.709h.353l1.362,2.04v-2.04h.3v2.6h-.342l-1.367-2.04v2.04Zm3.287,0V82.023h-.86v-.308H83.9v.308h-.855V84.3Zm1.441-.837h.319a.752.752,0,0,0,.108.325.6.6,0,0,0,.262.2,1,1,0,0,0,.4.08.946.946,0,0,0,.348-.057.519.519,0,0,0,.222-.165.359.359,0,0,0,.074-.222.348.348,0,0,0-.068-.211.57.57,0,0,0-.234-.154c-.074,0-.228-.068-.467-.125a2.481,2.481,0,0,1-.5-.16.769.769,0,0,1-.273-.245.57.57,0,0,1-.091-.325.655.655,0,0,1,.114-.365.684.684,0,0,1,.325-.262,1.271,1.271,0,0,1,.473-.085,1.3,1.3,0,0,1,.513.091.763.763,0,0,1,.336.273.832.832,0,0,1,.131.41H85.8a.524.524,0,0,0-.182-.37.684.684,0,0,0-.45-.125.741.741,0,0,0-.456.114.336.336,0,0,0-.142.273.3.3,0,0,0,.1.234,1.367,1.367,0,0,0,.518.182,3.419,3.419,0,0,1,.57.165.815.815,0,0,1,.336.268.61.61,0,0,1,.108.365.706.706,0,0,1-.12.393.809.809,0,0,1-.342.285,1.168,1.168,0,0,1-.5.1,1.509,1.509,0,0,1-.57-.108.82.82,0,0,1-.37-.308.866.866,0,0,1-.142-.467Zm3.521.837V81.709h.348v2.279h1.276V84.3Zm2.421,0h.348V82.023h.855v-.308H89.23v.308h.855Zm1.555,0V81.709h.894a1.967,1.967,0,0,1,.467.04.9.9,0,0,1,.376.182,1.14,1.14,0,0,1,.308.444,1.755,1.755,0,0,1,.1.621,1.857,1.857,0,0,1-.068.524,1.276,1.276,0,0,1-.177.376.929.929,0,0,1-.239.234.9.9,0,0,1-.308.131,1.823,1.823,0,0,1-.416.046Zm.348-.308h.57a1.293,1.293,0,0,0,.4-.046.569.569,0,0,0,.234-.137.815.815,0,0,0,.188-.325,1.641,1.641,0,0,0,.006-.49,1.214,1.214,0,0,0-.137-.632.661.661,0,0,0-.325-.291,1.378,1.378,0,0,0-.444-.051h-.57v1.983Zm2.324.308v-.365h.365V84.3Z" transform="translate(-31.463 -22.846)" fill="#fff" fill-rule="evenodd"/>
      <path id="Path_9546" data-name="Path 9546" d="M121.71,62.216a.838.838,0,1,1,.6-.241.837.837,0,0,1-.6.241Zm.98-1.242a1.139,1.139,0,0,0-.228-.336,1.019,1.019,0,0,0-.336-.222,1.043,1.043,0,0,0-.416-.085,1.094,1.094,0,0,0-.746.308,1.031,1.031,0,0,0-.228.336.974.974,0,0,0-.085.4,1.02,1.02,0,0,0,.085.41,1.031,1.031,0,0,0,.228.336,1.094,1.094,0,0,0,.746.308,1.043,1.043,0,0,0,.416-.085,1.02,1.02,0,0,0,.336-.222,1.027,1.027,0,0,0,.308-.746,1.066,1.066,0,0,0-.08-.4Z" transform="translate(-58.923 -13.665)" fill="#fff" fill-rule="evenodd"/>
      <path id="Path_9547" data-name="Path 9547" d="M122.167,61.582h-.188v-.365h.16c.211,0,.313.057.313.182s-.091.188-.285.188Zm.439.268a.57.57,0,0,0-.131-.171.308.308,0,0,0,.188-.3.3.3,0,0,0-.148-.256.667.667,0,0,0-.376-.1,2.109,2.109,0,0,0-.359.034h0v1.2H122v-.513h.194a.228.228,0,0,1,.2.12.883.883,0,0,1,.12.376h.216a2.055,2.055,0,0,0-.12-.382Z" transform="translate(-59.409 -13.965)" fill="#fff" fill-rule="evenodd"/>
    </g>
    <g id="Group_22738" data-name="Group 22738" transform="translate(78 -689.552)">
      <path id="Path_9548" data-name="Path 9548" d="M17.451,143.862l.5.114-1.795,5.652H0v-.57H.781a2.085,2.085,0,0,0,1.891-.855,4.949,4.949,0,0,0,.319-2.279v-13.5a4.3,4.3,0,0,0-.427-2.438,2.245,2.245,0,0,0-1.783-.678H0v-.57H9.452v.57a5.879,5.879,0,0,0-2.336.3,1.88,1.88,0,0,0-.917.781,6.706,6.706,0,0,0-.245,2.324V145.89a4.347,4.347,0,0,0,.245,1.755,1.083,1.083,0,0,0,.57.484,9.958,9.958,0,0,0,2.4.154h1.521a10.921,10.921,0,0,0,3.373-.353,4.4,4.4,0,0,0,1.778-1.253,10.368,10.368,0,0,0,1.6-2.849Zm15.593-1.2h-8.09l-1.4,3.27a5.253,5.253,0,0,0-.524,1.817,1.043,1.043,0,0,0,.456.837,3.9,3.9,0,0,0,1.954.467v.57h-6.58v-.57a3.458,3.458,0,0,0,1.709-.57,9.412,9.412,0,0,0,1.738-3l7.315-17.217h.518L37.4,145.645a7.976,7.976,0,0,0,1.6,2.718,3.23,3.23,0,0,0,1.994.7v.57H32.77v-.57a3.133,3.133,0,0,0,1.709-.41,1.077,1.077,0,0,0,.433-.866,6.364,6.364,0,0,0-.615-2.142Zm-.473-1.139-3.515-8.42-3.612,8.426Zm8.369-12.785v.57a4.933,4.933,0,0,1,1.35.137,5.35,5.35,0,0,1,1.379.632,9.975,9.975,0,0,1,1.373,1.4V146a4.863,4.863,0,0,1-.342,2.279,2.182,2.182,0,0,1-1.914.8h-.735v.57h7.338v-.57h-.746a2.347,2.347,0,0,1-1.823-.644,4.3,4.3,0,0,1-.422-2.41V133.146l13.747,16.818h.57v-17.6a4.88,4.88,0,0,1,.342-2.279,2.165,2.165,0,0,1,1.909-.8h.741v-.57H56.351v.57h.735a2.336,2.336,0,0,1,1.823.644,4.175,4.175,0,0,1,.433,2.41V144.4l-12.79-15.656Zm42.159-.473.473,7.087H83.1a8.747,8.747,0,0,0-2.718-4.558,6.574,6.574,0,0,0-4.227-1.4,6.9,6.9,0,0,0-3.743,1.054,6.985,6.985,0,0,0-2.626,3.367,15.046,15.046,0,0,0-.957,5.743,12.209,12.209,0,0,0,.906,4.911,6.837,6.837,0,0,0,2.718,3.19,7.783,7.783,0,0,0,4.142,1.105,7.11,7.11,0,0,0,3.566-.866,11.686,11.686,0,0,0,3.418-3.447l.479.313a11,11,0,0,1-3.658,4.068,9.281,9.281,0,0,1-4.957,1.288,9.376,9.376,0,0,1-8.01-3.851,11.013,11.013,0,0,1-2.159-6.763,12.027,12.027,0,0,1,1.384-5.743,10.067,10.067,0,0,1,3.84-4.056,10.3,10.3,0,0,1,5.344-1.441,9.754,9.754,0,0,1,4.444,1.111,2.484,2.484,0,0,0,.917.342,1.031,1.031,0,0,0,.724-.3,2.347,2.347,0,0,0,.57-1.139Zm13.554,0a9.458,9.458,0,0,1,7.03,3.088,10.665,10.665,0,0,1,2.974,7.708,10.973,10.973,0,0,1-3,7.9,10,10,0,0,1-14.482.074,11.02,11.02,0,0,1-2.928-7.93A10.574,10.574,0,0,1,89.629,131a9.976,9.976,0,0,1,7.025-2.729Zm-.3,1.105a5.492,5.492,0,0,0-4.478,2.079q-2.1,2.587-2.1,7.577,0,5.128,2.176,7.874A5.378,5.378,0,0,0,96.374,149a6.045,6.045,0,0,0,4.848-2.279q1.914-2.279,1.909-7.241,0-5.367-2.1-7.976a5.652,5.652,0,0,0-4.7-2.125Z" transform="translate(0 -122.345)" fill="#fff" fill-rule="evenodd"/>
      <path id="Path_9549" data-name="Path 9549" d="M1.44,183.209V175.9H3.958a6.266,6.266,0,0,1,1.3.1,2.518,2.518,0,0,1,1.071.524,2.923,2.923,0,0,1,.866,1.248,4.865,4.865,0,0,1,.291,1.743,5.264,5.264,0,0,1-.194,1.476,3.5,3.5,0,0,1-.5,1.065,2.638,2.638,0,0,1-.667.678,2.644,2.644,0,0,1-.872.365,4.893,4.893,0,0,1-1.179.125Zm.969-.86H3.97a3.74,3.74,0,0,0,1.139-.131,1.6,1.6,0,0,0,.638-.382,2.279,2.279,0,0,0,.536-.929,4.455,4.455,0,0,0,.194-1.413,3.418,3.418,0,0,0-.376-1.766,1.886,1.886,0,0,0-.923-.826,3.664,3.664,0,0,0-1.253-.154H2.409Zm6.432.86V175.9h5.287v.855H9.809V179h4.039v.883H9.809v2.49h4.484v.86Zm8.882,0-2.849-7.315h1.071l1.9,5.315c.148.427.279.826.382,1.2q.171-.57.393-1.2l1.971-5.31h.991l-2.849,7.315Zm4.757,0V175.9h5.281v.855H23.448V179h4.039v.883H23.448v2.49h4.518v.86Zm6.757,0V175.9h.969v6.455h3.6v.86Zm5.429-3.561a3.948,3.948,0,0,1,.98-2.849,3.31,3.31,0,0,1,2.524-1.031,3.481,3.481,0,0,1,1.829.484,3.133,3.133,0,0,1,1.242,1.356,4.66,4.66,0,0,1,0,3.948,3.071,3.071,0,0,1-1.31,1.327,3.681,3.681,0,0,1-1.778.45,3.475,3.475,0,0,1-1.846-.5,3.213,3.213,0,0,1-1.236-1.362,4.108,4.108,0,0,1-.416-1.823Zm1,0a2.934,2.934,0,0,0,.712,2.079,2.49,2.49,0,0,0,3.584,0,3.088,3.088,0,0,0,.706-2.176,3.777,3.777,0,0,0-.3-1.561,2.336,2.336,0,0,0-.883-1.031,2.541,2.541,0,0,0-3.071.342,3.132,3.132,0,0,0-.746,2.353Zm7.247,3.544V175.9h2.763a6.841,6.841,0,0,1,1.139.068,2.148,2.148,0,0,1,.906.342,1.749,1.749,0,0,1,.57.7,2.37,2.37,0,0,1-.376,2.575,2.881,2.881,0,0,1-2.148.644h-1.88v2.985Zm.974-3.84h1.891A2,2,0,0,0,47.109,179a1.248,1.248,0,0,0,.393-.986,1.282,1.282,0,0,0-.234-.781,1.06,1.06,0,0,0-.61-.433,3.986,3.986,0,0,0-.906-.068H43.884v2.621Zm5.828,3.84V175.9H51.16l1.709,5.179c.16.484.279.843.348,1.082.085-.268.216-.655.393-1.174l1.783-5.088h1.3v7.315h-.929v-6.13L53.6,183.209h-.849l-2.114-6.233v6.233Zm8.546,0V175.9h5.287v.855H59.232V179h4.056v.883H59.25v2.49h4.484v.86Zm6.791,0V175.9h.991l3.84,5.743V175.9h.934v7.315h-1l-3.84-5.743v5.743Zm9.252,0v-6.444h-2.41V175.9h5.8v.855H75.253v6.461Zm4.068-2.347.906-.085a2.1,2.1,0,0,0,.3.906,1.652,1.652,0,0,0,.741.57,2.814,2.814,0,0,0,1.139.216,2.682,2.682,0,0,0,.974-.165,1.321,1.321,0,0,0,.632-.456,1.06,1.06,0,0,0,.205-.627.923.923,0,0,0-.2-.57,1.476,1.476,0,0,0-.655-.433c-.2-.074-.632-.194-1.3-.353a6.905,6.905,0,0,1-1.413-.456,2.063,2.063,0,0,1-.781-.684,1.709,1.709,0,0,1-.256-.912,1.88,1.88,0,0,1,.313-1.037,1.937,1.937,0,0,1,.923-.735,3.48,3.48,0,0,1,1.339-.251,3.646,3.646,0,0,1,1.436.262,2.062,2.062,0,0,1,.957.775,2.216,2.216,0,0,1,.359,1.139l-.929.074a1.5,1.5,0,0,0-.507-1.048,1.96,1.96,0,0,0-1.276-.353,2.074,2.074,0,0,0-1.282.319.974.974,0,0,0-.4.781.843.843,0,0,0,.285.649,3.988,3.988,0,0,0,1.464.518,9.628,9.628,0,0,1,1.618.467,2.154,2.154,0,0,1,.94.746,1.783,1.783,0,0,1,.308,1.037,2.005,2.005,0,0,1-.336,1.1,2.228,2.228,0,0,1-.957.8,3.419,3.419,0,0,1-1.413.285,4.153,4.153,0,0,1-1.658-.291,2.336,2.336,0,0,1-1.054-.872,2.433,2.433,0,0,1-.4-1.31Zm9.93,2.347V175.9h.974v6.455h3.6v.86Zm6.837,0h.974v-6.444h2.41V175.9H92.726v.855h2.41v6.461Zm4.387,0V175.9h2.507a6.266,6.266,0,0,1,1.3.1,2.518,2.518,0,0,1,1.071.524,2.923,2.923,0,0,1,.866,1.248,4.865,4.865,0,0,1,.291,1.743,5.264,5.264,0,0,1-.194,1.476,3.5,3.5,0,0,1-.5,1.065,2.639,2.639,0,0,1-.667.667,2.7,2.7,0,0,1-.872.365,4.893,4.893,0,0,1-1.179.125Zm.969-.86h1.538a3.742,3.742,0,0,0,1.139-.131,1.635,1.635,0,0,0,.655-.382,2.279,2.279,0,0,0,.536-.929,4.454,4.454,0,0,0,.194-1.413,3.418,3.418,0,0,0-.376-1.766,1.886,1.886,0,0,0-.917-.826,3.686,3.686,0,0,0-1.253-.154h-1.515v5.6Zm6.552.86v-1.026h1.025v1.02Z" transform="translate(-0.62 -142.783)" fill="#fff" fill-rule="evenodd"/>
      <path id="Path_9550" data-name="Path 9550" d="M186.613,122.645a2.114,2.114,0,1,1,2.148-2.114A2.114,2.114,0,0,1,186.613,122.645Zm2.478-3.151a2.7,2.7,0,0,0-4.375-.843,2.644,2.644,0,0,0-.57.843,2.6,2.6,0,0,0-.216,1.037,2.563,2.563,0,0,0,.216,1.037,2.6,2.6,0,0,0,.57.849,2.723,2.723,0,0,0,2.94.57,2.655,2.655,0,0,0,1.646-2.455,2.7,2.7,0,0,0-.205-1.037Z" transform="translate(-79.141 -117.873)" fill="#fff" fill-rule="evenodd"/>
      <path id="Path_9551" data-name="Path 9551" d="M187.73,121.1h-.473v-.923a3.879,3.879,0,0,1,.4,0c.541,0,.8.154.8.467s-.239.473-.729.473Zm1.111.678a1.037,1.037,0,0,0-.336-.422.8.8,0,0,0,.484-.752.752.752,0,0,0-.37-.661,1.709,1.709,0,0,0-.963-.234,5.408,5.408,0,0,0-.9.08h-.046v3.042h.57v-1.3h.5a.57.57,0,0,1,.507.3,2.336,2.336,0,0,1,.3.951v.046h.57v-.063A4.072,4.072,0,0,0,188.841,121.776Z" transform="translate(-80.337 -118.661)" fill="#fff" fill-rule="evenodd"/>
    </g>
  </g>
</svg>
