<svg xmlns="http://www.w3.org/2000/svg" width="85.759" height="95.115" viewBox="0 0 85.759 95.115">
  <g id="Group_22740" data-name="Group 22740" transform="translate(-78 770.697)">
    <g id="Group_22739" data-name="Group 22739" transform="translate(86.427 -769)">
      <circle id="Ellipse_623" data-name="Ellipse 623" cx="24.394" cy="24.394" r="24.394" transform="translate(0 34.498) rotate(-45)" fill="none" stroke="#fff" stroke-miterlimit="2.61" stroke-width="1"/>
      <circle id="Ellipse_624" data-name="Ellipse 624" cx="24.394" cy="24.394" r="24.394" transform="translate(0 34.498) rotate(-45)" fill="#fff" stroke="#000002" stroke-miterlimit="2.61" stroke-width="2.4"/>
      <circle id="Ellipse_625" data-name="Ellipse 625" cx="22.646" cy="22.646" r="22.646" transform="translate(11.849 11.85)" fill="#000002" stroke="#231f20" stroke-miterlimit="2.61" stroke-width="0.5"/>
      <path id="Path_9532" data-name="Path 9532" d="M61.137,69.126l.142.027-.5,1.561H56.32v-.155h.213a.59.59,0,0,0,.532-.235,1.375,1.375,0,0,0,.089-.625v-3.73a1.175,1.175,0,0,0-.12-.674.612.612,0,0,0-.492-.191h-.213v-.155h2.6V65.1a1.681,1.681,0,0,0-.643.084.506.506,0,0,0-.253.222,1.836,1.836,0,0,0-.08.643V69.69a1.206,1.206,0,0,0,.071.488.31.31,0,0,0,.155.133,2.95,2.95,0,0,0,.665.04h.439a3,3,0,0,0,.931-.1,1.237,1.237,0,0,0,.488-.346,2.816,2.816,0,0,0,.444-.781Zm4.307-.333H63.226l-.386.887a1.481,1.481,0,0,0-.16.541.293.293,0,0,0,.124.231,1.082,1.082,0,0,0,.541.129v.155H61.527v-.155a.967.967,0,0,0,.444-.164,2.541,2.541,0,0,0,.479-.829l2.031-4.746h.142l2,4.794a2.316,2.316,0,0,0,.444.754.918.918,0,0,0,.55.191v.155H65.368v-.155a.816.816,0,0,0,.444-.115.288.288,0,0,0,.124-.244,1.819,1.819,0,0,0-.169-.59l-.342-.821Zm-.129-.315-.971-2.324-1,2.324Zm2.311-3.548v.155a1.33,1.33,0,0,1,.373.04,1.477,1.477,0,0,1,.381.173,2.951,2.951,0,0,1,.377.39v3.992a1.291,1.291,0,0,1-.093.621.608.608,0,0,1-.528.222h-.2v.155h2.027v-.155H69.75a.639.639,0,0,1-.5-.177,1.149,1.149,0,0,1-.12-.665V66.133l3.8,4.644h.155V65.951a1.331,1.331,0,0,1,.093-.608.608.608,0,0,1,.528-.222h.217v-.155h-2.04v.155h.2a.63.63,0,0,1,.5.182,1.135,1.135,0,0,1,.124.665V69.3L69.16,64.966Zm11.616-.111.129,1.956h-.129a2.466,2.466,0,0,0-.75-1.264,1.81,1.81,0,0,0-1.171-.39,1.88,1.88,0,0,0-1.029.293,1.9,1.9,0,0,0-.727.931,4.112,4.112,0,0,0-.266,1.583,3.415,3.415,0,0,0,.248,1.357,1.938,1.938,0,0,0,.754.887,2.142,2.142,0,0,0,1.144.306,1.973,1.973,0,0,0,.985-.24,3.282,3.282,0,0,0,.94-.954l.133.084A3.052,3.052,0,0,1,78.492,70.5a2.825,2.825,0,0,1-3.562-.719,3.043,3.043,0,0,1-.568-1.854,3.309,3.309,0,0,1,.386-1.588A2.772,2.772,0,0,1,75.8,65.215a2.856,2.856,0,0,1,1.477-.395,2.692,2.692,0,0,1,1.229.306.683.683,0,0,0,.253.093.284.284,0,0,0,.2-.08.639.639,0,0,0,.155-.319Zm3.743,0a2.6,2.6,0,0,1,1.938.852,2.936,2.936,0,0,1,.825,2.129,3.016,3.016,0,0,1-.829,2.178,2.759,2.759,0,0,1-3.992,0,3.051,3.051,0,0,1-.8-2.169,2.927,2.927,0,0,1,.931-2.218A2.759,2.759,0,0,1,83,64.842Zm-.084.3a1.517,1.517,0,0,0-1.233.577,3.238,3.238,0,0,0-.585,2.093,3.455,3.455,0,0,0,.6,2.173,1.486,1.486,0,0,0,1.22.577,1.672,1.672,0,0,0,1.331-.634,3.1,3.1,0,0,0,.528-2,3.5,3.5,0,0,0-.581-2.218,1.566,1.566,0,0,0-1.264-.572Z" transform="translate(-36.798 -26.5)" fill="#fff" fill-rule="evenodd"/>
      <path id="Path_9533" data-name="Path 9533" d="M84.4,88.67H84.17a.471.471,0,0,0-.058.08l-.067.12c-.027.044-.053.1-.08.151l-.089.173h.337a1.188,1.188,0,0,0,.208-.053,1.13,1.13,0,0,0,.164-.084.319.319,0,0,0,.1-.1.222.222,0,0,0,.035-.12.191.191,0,0,0-.089-.164.541.541,0,0,0-.266-.053Zm-.47.785a.275.275,0,0,1-.084-.062l-.106.226c-.031.071-.062.142-.084.2l-.067.164c0,.049,0,.08-.027.1a.235.235,0,0,0,.084.027.443.443,0,0,0,.115,0,1.223,1.223,0,0,0,.315-.04,1.092,1.092,0,0,0,.262-.12.608.608,0,0,0,.182-.169.332.332,0,0,0,.067-.2.222.222,0,0,0-.137-.217,1.157,1.157,0,0,1-.444.075h-.093Zm.918-.541a.4.4,0,0,1-.08.248.586.586,0,0,1-.226.182.5.5,0,0,1,.146.142.351.351,0,0,1,.053.186.444.444,0,0,1-.075.244.927.927,0,0,1-.208.208,1.091,1.091,0,0,1-.3.146,1.006,1.006,0,0,1-.341.058.762.762,0,0,1-.328-.067.537.537,0,0,1-.222-.186l.067-.169a.645.645,0,0,1,.084-.213c.031-.075.067-.151.1-.222l.093-.2c.062-.129.115-.235.164-.319a1.543,1.543,0,0,1,.133-.2,1.509,1.509,0,0,0-.239.084,1.094,1.094,0,0,0-.16.093.182.182,0,0,1-.044-.04.283.283,0,0,1-.044-.058.485.485,0,0,1-.035-.067.173.173,0,0,1,0-.062.946.946,0,0,1,.164-.08,2.149,2.149,0,0,1,.217-.062l.244-.044h.235a.812.812,0,0,1,.444.106A.337.337,0,0,1,84.849,88.914Z" transform="translate(-51.795 -39.688)" fill="#39b54a" fill-rule="evenodd"/>
      <path id="Path_9534" data-name="Path 9534" d="M88.681,90a.488.488,0,0,0-.137.053.568.568,0,0,0-.129.106.735.735,0,0,0-.115.16,1.228,1.228,0,0,0-.08.191,1.02,1.02,0,0,0,.324-.222A.443.443,0,0,0,88.681,90Zm.164-.071a.634.634,0,0,1-.053.24.479.479,0,0,1-.124.173.807.807,0,0,1-.2.137,1.967,1.967,0,0,1-.271.12v.058a.292.292,0,0,0,0,.062.221.221,0,0,0,0,.058.173.173,0,0,0,.035.044.1.1,0,0,0,.058,0,.315.315,0,0,0,.124-.027.519.519,0,0,0,.12-.067.707.707,0,0,0,.106-.089l.089-.084a.168.168,0,0,1,.04.04,1.254,1.254,0,0,1-.235.226.687.687,0,0,1-.244.111.408.408,0,0,1-.262-.111.328.328,0,0,1-.093-.235.674.674,0,0,1,.027-.186.888.888,0,0,1,.08-.186A1,1,0,0,1,88.3,89.9a.626.626,0,0,1,.155-.093.443.443,0,0,1,.164-.031.31.31,0,0,1,.231.146Z" transform="translate(-54.394 -40.39)" fill="#39b54a" fill-rule="evenodd"/>
      <path id="Path_9535" data-name="Path 9535" d="M91.48,89.6a.173.173,0,0,1,0-.058.244.244,0,0,1,0-.075.61.61,0,0,0,.124,0h.106c0-.044.049-.089.075-.133a1.4,1.4,0,0,1,.084-.12.857.857,0,0,1,.075-.093L92,89.07h.2l.044.027c-.049.058-.089.111-.124.16s-.071.106-.111.169H92.2a.071.071,0,0,1,0,.031.084.084,0,0,1,0,.035.921.921,0,0,1-.288.04c-.04.075-.075.146-.106.217s-.058.142-.08.208-.04.129-.053.186a1.1,1.1,0,0,0-.018.226c0,.067.027.1.08.111a.483.483,0,0,0,.137-.035.319.319,0,0,0,.115-.062.088.088,0,0,1,0,.035.252.252,0,0,1-.049.044l-.075.053-.08.044h-.058a.382.382,0,0,1-.12,0A.519.519,0,0,1,91.5,90.5a.262.262,0,0,1-.08-.075.142.142,0,0,1-.031-.084.938.938,0,0,1,0-.137,1.724,1.724,0,0,1,.044-.177l.067-.2c.027-.071.053-.142.084-.213Z" transform="translate(-56.311 -39.995)" fill="#39b54a" fill-rule="evenodd"/>
      <path id="Path_9536" data-name="Path 9536" d="M94.49,89.6a.1.1,0,0,1,0-.058.231.231,0,0,1,0-.075.546.546,0,0,0,.12,0h.106c0-.044.049-.089.075-.133l.084-.12a.855.855,0,0,1,.075-.093L95,89.07h.208l.04.027c-.044.058-.089.111-.12.16l-.115.169h.191a.071.071,0,0,1,0,.031.084.084,0,0,1,0,.035.887.887,0,0,1-.288.04c-.04.075-.075.146-.106.217s-.058.142-.08.208-.04.129-.053.186a1.1,1.1,0,0,0-.018.226c0,.067.027.1.08.111a.444.444,0,0,0,.137-.035.386.386,0,0,0,.12-.062.071.071,0,0,1,0,.035.254.254,0,0,1-.049.044l-.075.053-.08.044h-.058a.382.382,0,0,1-.12,0,.646.646,0,0,1-.111-.058.443.443,0,0,1-.08-.075.142.142,0,0,1-.031-.084.936.936,0,0,1,0-.137.741.741,0,0,1,.044-.177c.018-.062.044-.133.071-.2a2.122,2.122,0,0,1,.084-.213Z" transform="translate(-57.986 -39.995)" fill="#39b54a" fill-rule="evenodd"/>
      <path id="Path_9537" data-name="Path 9537" d="M97.925,90a.488.488,0,0,0-.137.053.567.567,0,0,0-.129.106.953.953,0,0,0-.191.35,1,1,0,0,0,.319-.222A.444.444,0,0,0,97.925,90Zm.169-.071a.886.886,0,0,1-.053.24.537.537,0,0,1-.124.173.834.834,0,0,1-.2.137,1.964,1.964,0,0,1-.271.12v.058a.3.3,0,0,0,0,.062.221.221,0,0,0,0,.058.1.1,0,0,0,.031.044.111.111,0,0,0,.058,0,.333.333,0,0,0,.129-.027.807.807,0,0,0,.12-.067l.1-.089a.833.833,0,0,0,.089-.084l.044.04a1.423,1.423,0,0,1-.24.226.657.657,0,0,1-.244.111.408.408,0,0,1-.262-.111.328.328,0,0,1-.093-.235.546.546,0,0,1,.031-.186.859.859,0,0,1,.075-.186,1,1,0,0,1,.257-.306.652.652,0,0,1,.16-.093.408.408,0,0,1,.16-.031.328.328,0,0,1,.231.146Z" transform="translate(-59.536 -40.39)" fill="#39b54a" fill-rule="evenodd"/>
      <path id="Path_9538" data-name="Path 9538" d="M100.44,90.808a1.666,1.666,0,0,1,.044-.173.826.826,0,0,1,.071-.226c.027-.08.053-.164.084-.244l.089-.217a.818.818,0,0,1,.058-.111.445.445,0,0,1,.053-.067h.071l.071.031.058.031.04.031a.922.922,0,0,0-.111.169,1.538,1.538,0,0,0-.1.235,2.781,2.781,0,0,0,.231-.208,1.538,1.538,0,0,0,.186-.222h.049a.16.16,0,0,1,.067,0,.129.129,0,0,1,.044.027.559.559,0,0,0-.044.217.3.3,0,0,0,.031.146.115.115,0,0,1-.031.053l-.067.071a.31.31,0,0,1-.115-.084.444.444,0,0,1-.075-.12,2.044,2.044,0,0,0-.2.142.888.888,0,0,0-.133.16.834.834,0,0,0-.1.2,2.074,2.074,0,0,0-.075.271h-.053l-.062-.027-.053-.04A.124.124,0,0,1,100.44,90.808Z" transform="translate(-61.35 -40.384)" fill="#39b54a" fill-rule="evenodd"/>
      <path id="Path_9539" data-name="Path 9539" d="M106.223,89.692a1.229,1.229,0,0,1,.049-.279c.035-.12.084-.262.146-.444a6.149,6.149,0,0,1,.279-.634,1.96,1.96,0,0,1,.257-.395.182.182,0,0,1,.053.027l.084.04.071.044a.217.217,0,0,1,.044.035,2.727,2.727,0,0,0-.333.444,3.913,3.913,0,0,0-.262.546,4.467,4.467,0,0,0-.151.483,1.494,1.494,0,0,0-.053.355v.067h-.058a.1.1,0,0,1-.031-.027l-.027-.031a.142.142,0,0,0-.04-.035.115.115,0,0,1-.035-.071A.572.572,0,0,1,106.223,89.692Z" transform="translate(-64.564 -39.366)" fill="#39b54a" fill-rule="evenodd"/>
      <path id="Path_9540" data-name="Path 9540" d="M109.071,89.148a.222.222,0,0,1,0-.04.071.071,0,0,1,0-.035.128.128,0,0,1,0-.04V88.9a.311.311,0,0,1,.027-.084l.027-.08h.071a.364.364,0,0,1,.084.04.346.346,0,0,1,.08.049.226.226,0,0,1,.058.053l-.071.071a.573.573,0,0,0-.084.093l-.075.089-.044.062a.1.1,0,0,1-.049,0,.062.062,0,0,1,0-.04Zm-.444.98a.2.2,0,0,1,0-.049V90a1.03,1.03,0,0,1,.027-.12.878.878,0,0,1,.04-.177.285.285,0,0,1,0-.071.4.4,0,0,1,.044-.1.567.567,0,0,1,.067-.111.3.3,0,0,1,.093-.075.474.474,0,0,1,.111.044.377.377,0,0,1,.115.106.757.757,0,0,0-.093.115.669.669,0,0,0-.067.124,1.129,1.129,0,0,0-.058.129.417.417,0,0,1-.058.142.933.933,0,0,0-.044.133.444.444,0,0,0-.027.115v.058h-.04a.2.2,0,0,1-.058-.035.164.164,0,0,1-.053-.058.151.151,0,0,1-.018-.084Z" transform="translate(-65.896 -39.811)" fill="#39b54a" fill-rule="evenodd"/>
      <path id="Path_9541" data-name="Path 9541" d="M111.16,90.026a.405.405,0,0,1,0-.075.133.133,0,0,1,.027-.062.12.12,0,0,1,.053-.04.178.178,0,0,1,.089,0h.075a.168.168,0,0,1,.075,0,.551.551,0,0,0,0,.071v.146a1.006,1.006,0,0,0,0,.124v.275a.993.993,0,0,1-.049.244h0l.08-.075.1-.106.1-.129.093-.133c.04-.062.08-.142.129-.235a2.289,2.289,0,0,0,.115-.306h.151a.608.608,0,0,1-.053.2.935.935,0,0,1-.106.2,1.678,1.678,0,0,1-.133.177c-.044.058-.089.1-.124.146a2.778,2.778,0,0,1-.3.293,2.046,2.046,0,0,1-.279.191.217.217,0,0,1-.1-.062.093.093,0,0,1-.035-.075.173.173,0,0,1,0-.062.134.134,0,0,1,.031-.093c.031-.04,0-.08.027-.137a1.333,1.333,0,0,0,0-.213v-.151A.131.131,0,0,0,111.16,90.026Z" transform="translate(-67.262 -40.357)" fill="#39b54a" fill-rule="evenodd"/>
      <path id="Path_9542" data-name="Path 9542" d="M114.971,89.148a.151.151,0,0,1,0-.04.067.067,0,0,1,0-.035.067.067,0,0,1,0-.04.253.253,0,0,1,0-.053.606.606,0,0,1,0-.075.593.593,0,0,1,0-.084.333.333,0,0,1,.031-.08h.071l.084.04a.346.346,0,0,1,.08.049.2.2,0,0,1,.053.053l-.067.071a.572.572,0,0,0-.084.093,1.158,1.158,0,0,0-.075.089.443.443,0,0,0-.044.062.1.1,0,0,1-.049,0,.049.049,0,0,1,0-.04Zm-.444.98a.2.2,0,0,1,0-.049.359.359,0,0,1,0-.084v-.12a1.347,1.347,0,0,1,.04-.177q0-.035,0-.071a.285.285,0,0,1,.044-.1.567.567,0,0,1,.067-.111.319.319,0,0,1,.1-.075.443.443,0,0,1,.106.044.333.333,0,0,1,.115.106.535.535,0,0,0-.089.115,1.122,1.122,0,0,0-.071.124l-.053.129a.417.417,0,0,1-.058.142.983.983,0,0,0-.049.133.4.4,0,0,0,0,.115.2.2,0,0,1,0,.058h-.035a.222.222,0,0,1-.062-.035.341.341,0,0,1-.053-.058.186.186,0,0,1-.018-.084Z" transform="translate(-69.179 -39.811)" fill="#39b54a" fill-rule="evenodd"/>
      <path id="Path_9543" data-name="Path 9543" d="M117.145,89.74a.271.271,0,0,1,.115.08.5.5,0,0,1,.084.138,1.083,1.083,0,0,1-.084.146c-.035.058-.075.115-.111.177l-.1.169a.444.444,0,0,0-.049.133l.084-.089.093-.1.075-.093.058-.062.111-.106a1.544,1.544,0,0,1,.129-.111,1.3,1.3,0,0,1,.142-.093.3.3,0,0,1,.124-.035.142.142,0,0,1,.106.04.4.4,0,0,1,.067.084h0a.2.2,0,0,0-.053.044c0,.027-.044.067-.075.111l-.08.155a1.332,1.332,0,0,0-.067.169.542.542,0,0,0-.027.155.142.142,0,0,0,0,.075.076.076,0,0,0,.044,0h.1a.057.057,0,0,1,0,.027l-.044.031-.058.031h-.106a.3.3,0,0,1-.115,0,.16.16,0,0,1-.067-.053.151.151,0,0,1-.035-.075.3.3,0,0,1,0-.093.312.312,0,0,1,0-.062.328.328,0,0,1,0-.08.143.143,0,0,1,.04-.111l.067-.155-.062.031a.715.715,0,0,0-.133.1,2.826,2.826,0,0,0-.2.2,2.444,2.444,0,0,0-.186.222l-.093.115a.191.191,0,0,1-.071.067.164.164,0,0,1-.071-.075.407.407,0,0,1-.04-.1.57.57,0,0,1,0-.106,1.229,1.229,0,0,1,.04-.146,1.463,1.463,0,0,1,.053-.169c.022-.058.049-.12.075-.177a2.6,2.6,0,0,1,.169-.31A.555.555,0,0,1,117.145,89.74Z" transform="translate(-70.373 -40.368)" fill="#39b54a" fill-rule="evenodd"/>
      <path id="Path_9544" data-name="Path 9544" d="M119.8,91.531l.022-.027.049.04.04.022H120a.443.443,0,0,0,.235-.062.736.736,0,0,0,.217-.177,1.463,1.463,0,0,0,.182-.288,2.366,2.366,0,0,0,.142-.381l-.071.058-.089.062a.585.585,0,0,1-.089.053.279.279,0,0,1-.075.035.159.159,0,0,1-.075-.031.3.3,0,0,1-.04-.071.249.249,0,0,1-.04-.084.377.377,0,0,1,0-.1.551.551,0,0,1,.035-.182,1.408,1.408,0,0,1,.093-.182,1.207,1.207,0,0,1,.137-.169.994.994,0,0,1,.169-.137.759.759,0,0,1,.177-.093.505.505,0,0,1,.177-.035.2.2,0,0,1,.124.031.191.191,0,0,1,.062.115.107.107,0,0,0-.067,0,.284.284,0,0,0-.133.04,1.122,1.122,0,0,0-.155.111,1.774,1.774,0,0,0-.155.16,1.3,1.3,0,0,0-.138.182,1.473,1.473,0,0,0-.1.182.444.444,0,0,0-.035.155h0a.093.093,0,0,0,.058,0,.407.407,0,0,0,.084-.058.55.55,0,0,0,.1-.08l.1-.093a1.5,1.5,0,0,0,.191-.244,1.66,1.66,0,0,0,.137-.262h.115a.177.177,0,0,1,.071.035q-.084.173-.133.293c-.035.08-.062.151-.084.213s-.084.208-.124.3a2.6,2.6,0,0,1-.115.248,1.693,1.693,0,0,1-.129.213,1.539,1.539,0,0,1-.155.191.532.532,0,0,1-.093.075.593.593,0,0,1-.106.053l-.106.035a.347.347,0,0,1-.093,0h-.12l-.111-.035a.442.442,0,0,1-.093-.049A.235.235,0,0,1,119.8,91.531Z" transform="translate(-72.123 -40.389)" fill="#39b54a" fill-rule="evenodd"/>
      <rect id="Rectangle_6035" data-name="Rectangle 6035" width="0.581" height="11.288" transform="translate(29.679 25.094)" fill="#e6e7e8"/>
      <rect id="Rectangle_6036" data-name="Rectangle 6036" width="0.581" height="11.288" transform="translate(39.126 25.094)" fill="#e6e7e8"/>
      <rect id="Rectangle_6037" data-name="Rectangle 6037" width="10.001" height="0.581" transform="translate(29.679 35.796)" fill="#e6e7e8"/>
      <rect id="Rectangle_6038" data-name="Rectangle 6038" width="0.581" height="12.937" transform="translate(31.271 21.909)" fill="#e6e7e8"/>
      <rect id="Rectangle_6039" data-name="Rectangle 6039" width="0.581" height="12.937" transform="translate(37.626 21.909)" fill="#e6e7e8"/>
      <rect id="Rectangle_6040" data-name="Rectangle 6040" width="6.932" height="0.581" transform="translate(31.271 34.27)" fill="#e6e7e8"/>
      <rect id="Rectangle_6041" data-name="Rectangle 6041" width="0.581" height="15.018" transform="translate(32.783 18.321)" fill="#e6e7e8"/>
      <rect id="Rectangle_6042" data-name="Rectangle 6042" width="0.581" height="15.018" transform="translate(36.127 18.308)" fill="#e6e7e8"/>
      <rect id="Rectangle_6043" data-name="Rectangle 6043" width="3.925" height="0.581" transform="translate(32.783 32.758)" fill="#e6e7e8"/>
      <rect id="Rectangle_6044" data-name="Rectangle 6044" width="0.581" height="16.503" transform="translate(34.42 14.942)" fill="#e6e7e8"/>
      <path id="Path_9545" data-name="Path 9545" d="M56.83,83.723V81.7h.7a1.513,1.513,0,0,1,.359.031.741.741,0,0,1,.3.142.816.816,0,0,1,.235.346,1.366,1.366,0,0,1,.08.483,1.446,1.446,0,0,1-.053.408.994.994,0,0,1-.137.293.785.785,0,0,1-.182.182.763.763,0,0,1-.244.1,1.387,1.387,0,0,1-.324.035Zm.266-.239h.444a1.007,1.007,0,0,0,.315-.035.444.444,0,0,0,.182-.106.634.634,0,0,0,.146-.253,1.277,1.277,0,0,0,.053-.386.994.994,0,0,0-.1-.492.554.554,0,0,0-.253-.226,1.113,1.113,0,0,0-.346-.04h-.444v1.543Zm1.774.239V81.7h1.464v.24H59.123v.621h1.113V82.8H59.123v.687H60.36v.239Zm2.457,0L60.542,81.7h.293l.506,1.468a3.28,3.28,0,0,1,.106.333,3.243,3.243,0,0,1,.111-.333L62.1,81.7h.275L61.6,83.723Zm1.331,0V81.7h1.459v.24H62.906v.621H64V82.8h-1.1v.687h1.237v.239Zm1.863,0V81.7h.271v1.774h.985v.24Zm1.5-.985a1.1,1.1,0,0,1,.271-.785.918.918,0,0,1,.7-.284.954.954,0,0,1,.5.133.887.887,0,0,1,.346.373,1.242,1.242,0,0,1,.1.528,1.18,1.18,0,0,1-.124.55.816.816,0,0,1-.35.364.994.994,0,0,1-.492.129.949.949,0,0,1-.51-.142.887.887,0,0,1-.342-.373A1.171,1.171,0,0,1,66,82.725Zm.279,0a.8.8,0,0,0,.2.577.687.687,0,0,0,.989,0,.86.86,0,0,0,.177-.612.993.993,0,0,0-.084-.444.612.612,0,0,0-.244-.284.63.63,0,0,0-.359-.1.67.67,0,0,0-.488.2.86.86,0,0,0-.2.648Zm2,.98V81.7h.763a2.467,2.467,0,0,1,.306,0,.617.617,0,0,1,.253.1.47.47,0,0,1,.16.2.652.652,0,0,1-.1.71.785.785,0,0,1-.594.177h-.537v.843Zm.266-1.06h.523a.563.563,0,0,0,.368-.1.355.355,0,0,0,.111-.275.337.337,0,0,0-.067-.213.275.275,0,0,0-.169-.12,1.057,1.057,0,0,0-.248,0h-.537v.723Zm1.61,1.06V81.7h.4l.461,1.446.1.3a1.553,1.553,0,0,1,.106-.324l.488-1.406h.359v2.009H71.83v-1.69l-.59,1.69H71L70.415,82v1.721Zm2.364,0V81.7h1.441v.24H72.788v.621h1.118V82.8H72.788v.687H74.03v.239Zm1.872,0V81.7h.275l1.06,1.588V81.7h.231v2.022h-.266l-1.064-1.588v1.588Zm2.559,0V81.944H76.3V81.7h1.6v.24h-.665v1.774Zm1.122-.652h.248a.585.585,0,0,0,.084.253.47.47,0,0,0,.2.155.776.776,0,0,0,.31.062.736.736,0,0,0,.271-.044.4.4,0,0,0,.173-.129.279.279,0,0,0,.058-.173.271.271,0,0,0-.053-.164.444.444,0,0,0-.182-.12c-.058,0-.177-.053-.364-.1a1.932,1.932,0,0,1-.39-.124.6.6,0,0,1-.213-.191.443.443,0,0,1-.071-.253.51.51,0,0,1,.089-.284.532.532,0,0,1,.253-.2.989.989,0,0,1,.368-.067,1.015,1.015,0,0,1,.4.071.594.594,0,0,1,.262.213.648.648,0,0,1,.1.319h-.257A.408.408,0,0,0,79.241,82a.532.532,0,0,0-.35-.1.577.577,0,0,0-.355.089.262.262,0,0,0-.111.213.231.231,0,0,0,.08.182,1.064,1.064,0,0,0,.4.142,2.661,2.661,0,0,1,.444.129.634.634,0,0,1,.262.208.475.475,0,0,1,.084.284.55.55,0,0,1-.093.306.63.63,0,0,1-.266.222.909.909,0,0,1-.386.08,1.175,1.175,0,0,1-.444-.084.639.639,0,0,1-.288-.239.674.674,0,0,1-.111-.364Zm2.741.652V81.7H81.1v1.774H82.1v.24Zm1.885,0h.271V81.944h.665V81.7h-1.6v.24h.665Zm1.211,0V81.7h.7a1.532,1.532,0,0,1,.364.031.7.7,0,0,1,.293.142.887.887,0,0,1,.24.346,1.366,1.366,0,0,1,.08.483,1.445,1.445,0,0,1-.053.408.993.993,0,0,1-.137.293.723.723,0,0,1-.186.182.7.7,0,0,1-.24.1,1.419,1.419,0,0,1-.324.035Zm.271-.24h.444a1.006,1.006,0,0,0,.315-.035.443.443,0,0,0,.182-.106.634.634,0,0,0,.146-.253,1.277,1.277,0,0,0,0-.381.945.945,0,0,0-.106-.492.515.515,0,0,0-.253-.226,1.073,1.073,0,0,0-.346-.04h-.444v1.543Zm1.81.24v-.284h.284v.284Z" transform="translate(-37.082 -35.876)" fill="#fff" fill-rule="evenodd"/>
      <path id="Path_9546" data-name="Path 9546" d="M121.475,61.8a.652.652,0,1,1,.467-.188.652.652,0,0,1-.467.188Zm.763-.967a.887.887,0,0,0-.177-.262.794.794,0,0,0-.262-.173.812.812,0,0,0-.324-.067.852.852,0,0,0-.581.239.8.8,0,0,0-.177.262.759.759,0,0,0-.067.315.794.794,0,0,0,.067.319.8.8,0,0,0,.177.262.852.852,0,0,0,.581.24.812.812,0,0,0,.324-.067.794.794,0,0,0,.262-.173.8.8,0,0,0,.239-.581.83.83,0,0,0-.062-.315Z" transform="translate(-72.596 -24.002)" fill="#fff" fill-rule="evenodd"/>
      <path id="Path_9547" data-name="Path 9547" d="M122.082,61.46h-.146v-.284h.124c.164,0,.244.044.244.142s-.071.146-.222.146Zm.342.208a.443.443,0,0,0-.1-.133.24.24,0,0,0,.146-.231.231.231,0,0,0-.115-.2.519.519,0,0,0-.293-.075,1.641,1.641,0,0,0-.279.027h0v.931h.169v-.4h.151a.177.177,0,0,1,.155.093.687.687,0,0,1,.093.293h.169a1.6,1.6,0,0,0-.093-.3Z" transform="translate(-73.225 -24.391)" fill="#fff" fill-rule="evenodd"/>
    </g>
    <g id="Group_22738" data-name="Group 22738" transform="translate(78 -707.151)">
      <path id="Path_9548" data-name="Path 9548" d="M13.585,140.408l.39.089-1.4,4.4H0v-.443H.608a1.623,1.623,0,0,0,1.472-.665,3.853,3.853,0,0,0,.248-1.774V131.506a3.35,3.35,0,0,0-.333-1.9,1.747,1.747,0,0,0-1.388-.528H0v-.444H7.358v.444a4.577,4.577,0,0,0-1.818.235,1.464,1.464,0,0,0-.714.608,5.22,5.22,0,0,0-.191,1.81v10.254a3.384,3.384,0,0,0,.191,1.366.843.843,0,0,0,.444.377,7.752,7.752,0,0,0,1.872.12H8.325a8.5,8.5,0,0,0,2.626-.275,3.424,3.424,0,0,0,1.384-.976,8.071,8.071,0,0,0,1.246-2.218Zm12.139-.931h-6.3l-1.087,2.546a4.09,4.09,0,0,0-.408,1.415.812.812,0,0,0,.355.652,3.038,3.038,0,0,0,1.521.364v.444H14.685v-.444a2.692,2.692,0,0,0,1.331-.444,7.327,7.327,0,0,0,1.353-2.337l5.695-13.4h.4l5.65,13.527a6.209,6.209,0,0,0,1.242,2.116,2.515,2.515,0,0,0,1.552.541v.444h-6.4v-.444a2.44,2.44,0,0,0,1.331-.319.838.838,0,0,0,.337-.674,4.954,4.954,0,0,0-.479-1.668Zm-.368-.887-2.737-6.555-2.812,6.56Zm6.515-9.953v.444a3.841,3.841,0,0,1,1.051.106,4.165,4.165,0,0,1,1.073.492,7.764,7.764,0,0,1,1.069,1.091v11.305a3.786,3.786,0,0,1-.266,1.774,1.7,1.7,0,0,1-1.49.621h-.572v.443h5.713v-.443h-.581a1.827,1.827,0,0,1-1.419-.5,3.35,3.35,0,0,1-.328-1.876V132.065l10.7,13.093h.444v-13.7a3.8,3.8,0,0,1,.266-1.774,1.685,1.685,0,0,1,1.486-.625h.577v-.444H43.869v.444h.572a1.818,1.818,0,0,1,1.419.5,3.25,3.25,0,0,1,.337,1.876v9.389L36.24,128.637Zm32.82-.368.368,5.517h-.368a6.809,6.809,0,0,0-2.116-3.548,5.118,5.118,0,0,0-3.291-1.091,5.371,5.371,0,0,0-2.914.821,5.437,5.437,0,0,0-2.045,2.621,11.713,11.713,0,0,0-.745,4.471,9.5,9.5,0,0,0,.705,3.823,5.322,5.322,0,0,0,2.116,2.484,6.059,6.059,0,0,0,3.224.86,5.535,5.535,0,0,0,2.776-.674,9.1,9.1,0,0,0,2.661-2.683l.373.244a8.564,8.564,0,0,1-2.847,3.167,7.225,7.225,0,0,1-3.859,1,7.3,7.3,0,0,1-6.236-3,8.573,8.573,0,0,1-1.681-5.265,9.363,9.363,0,0,1,1.078-4.471,7.837,7.837,0,0,1,2.989-3.158,8.019,8.019,0,0,1,4.16-1.122,7.593,7.593,0,0,1,3.459.865,1.933,1.933,0,0,0,.714.266.8.8,0,0,0,.563-.231,1.827,1.827,0,0,0,.443-.887Zm10.551,0a7.363,7.363,0,0,1,5.473,2.4,8.3,8.3,0,0,1,2.315,6,8.542,8.542,0,0,1-2.333,6.147,7.788,7.788,0,0,1-11.274.058,8.579,8.579,0,0,1-2.28-6.174,8.232,8.232,0,0,1,2.63-6.311,7.766,7.766,0,0,1,5.469-2.124Zm-.231.86a4.276,4.276,0,0,0-3.486,1.619,9.173,9.173,0,0,0-1.637,5.9,9.673,9.673,0,0,0,1.694,6.129,4.187,4.187,0,0,0,3.442,1.628A4.706,4.706,0,0,0,78.8,142.63q1.49-1.774,1.486-5.637,0-4.178-1.637-6.209a4.4,4.4,0,0,0-3.659-1.654Z" transform="translate(0 -123.657)" fill="#fff" fill-rule="evenodd"/>
      <path id="Path_9549" data-name="Path 9549" d="M1.44,181.56v-5.69H3.4a4.879,4.879,0,0,1,1.016.08,1.96,1.96,0,0,1,.834.408,2.275,2.275,0,0,1,.674.971,3.788,3.788,0,0,1,.226,1.357A4.1,4.1,0,0,1,6,179.835a2.723,2.723,0,0,1-.39.829,2.054,2.054,0,0,1-.519.528,2.058,2.058,0,0,1-.679.284,3.81,3.81,0,0,1-.918.1Zm.754-.67H3.409a2.912,2.912,0,0,0,.887-.1,1.242,1.242,0,0,0,.5-.3,1.774,1.774,0,0,0,.417-.723,3.468,3.468,0,0,0,.151-1.1,2.661,2.661,0,0,0-.293-1.375,1.468,1.468,0,0,0-.719-.643,2.852,2.852,0,0,0-.976-.12H2.194Zm5.007.67v-5.69h4.116v.665H7.955v1.752H11.1v.687H7.955v1.938h3.491v.67Zm6.914,0L11.9,175.865h.834L14.213,180c.115.333.217.643.3.931q.133-.444.306-.931l1.535-4.134h.772l-2.218,5.695Zm3.7,0v-5.69h4.111v.665H18.573v1.752h3.145v.687H18.573v1.938H22.09v.67Zm5.26,0v-5.69h.754v5.025h2.8v.67Zm4.227-2.772a3.074,3.074,0,0,1,.763-2.218,2.577,2.577,0,0,1,1.965-.8,2.71,2.71,0,0,1,1.424.377,2.439,2.439,0,0,1,.967,1.056,3.628,3.628,0,0,1,0,3.074,2.391,2.391,0,0,1-1.02,1.033,2.865,2.865,0,0,1-1.384.35,2.706,2.706,0,0,1-1.437-.39,2.5,2.5,0,0,1-.962-1.06,3.2,3.2,0,0,1-.324-1.419Zm.776,0a2.284,2.284,0,0,0,.554,1.619,1.938,1.938,0,0,0,2.79,0,2.4,2.4,0,0,0,.55-1.694,2.941,2.941,0,0,0-.235-1.215,1.819,1.819,0,0,0-.687-.8,1.978,1.978,0,0,0-2.391.266,2.438,2.438,0,0,0-.581,1.832Zm5.642,2.759V175.87h2.151a5.327,5.327,0,0,1,.887.053,1.673,1.673,0,0,1,.705.266,1.362,1.362,0,0,1,.444.546,1.845,1.845,0,0,1-.293,2,2.243,2.243,0,0,1-1.672.5H34.482v2.324Zm.758-2.989h1.472a1.557,1.557,0,0,0,1.038-.275.971.971,0,0,0,.306-.767,1,1,0,0,0-.182-.608.825.825,0,0,0-.475-.337,3.105,3.105,0,0,0-.705-.053H34.482v2.04Zm4.537,2.989V175.87h1.127l1.331,4.032c.124.377.217.656.271.843.067-.208.169-.51.306-.914l1.388-3.961h1.011v5.695H43.73v-4.772l-1.681,4.768h-.661l-1.645-4.852v4.852Zm6.653,0V175.87h4.116v.665H46.431v1.752h3.158v.687H46.444v1.938h3.491v.67Zm5.287,0V175.87h.772l2.989,4.471V175.87h.727v5.695h-.776l-2.989-4.471v4.471Zm7.2,0v-5.016H56.286v-.661H60.8v.665H58.9v5.03Zm3.167-1.827.705-.066a1.632,1.632,0,0,0,.235.705,1.286,1.286,0,0,0,.577.444,2.191,2.191,0,0,0,.887.169,2.088,2.088,0,0,0,.758-.129,1.029,1.029,0,0,0,.492-.355.825.825,0,0,0,.16-.488.719.719,0,0,0-.155-.444,1.149,1.149,0,0,0-.51-.337c-.155-.058-.492-.151-1.016-.275a5.377,5.377,0,0,1-1.1-.355,1.606,1.606,0,0,1-.608-.532,1.33,1.33,0,0,1-.2-.71,1.464,1.464,0,0,1,.244-.807,1.508,1.508,0,0,1,.718-.572,2.709,2.709,0,0,1,1.042-.2,2.838,2.838,0,0,1,1.118.2,1.606,1.606,0,0,1,.745.6,1.725,1.725,0,0,1,.279.887l-.723.058a1.166,1.166,0,0,0-.395-.816,1.526,1.526,0,0,0-.993-.275,1.615,1.615,0,0,0-1,.248.758.758,0,0,0-.315.608.656.656,0,0,0,.222.506,3.1,3.1,0,0,0,1.14.4,7.5,7.5,0,0,1,1.26.364,1.677,1.677,0,0,1,.732.581,1.388,1.388,0,0,1,.239.807,1.561,1.561,0,0,1-.262.856,1.734,1.734,0,0,1-.745.625,2.661,2.661,0,0,1-1.1.222,3.233,3.233,0,0,1-1.291-.226,1.818,1.818,0,0,1-.821-.679,1.894,1.894,0,0,1-.31-1.02Zm7.731,1.827V175.87h.758v5.025h2.8v.67Zm5.322,0h.758v-5.016h1.876v-.661H72.505v.665h1.876v5.03Zm3.415,0V175.87h1.951a4.879,4.879,0,0,1,1.016.08,1.96,1.96,0,0,1,.834.408,2.275,2.275,0,0,1,.674.971,3.787,3.787,0,0,1,.226,1.357,4.1,4.1,0,0,1-.151,1.149,2.723,2.723,0,0,1-.39.829,2.054,2.054,0,0,1-.519.519,2.1,2.1,0,0,1-.679.284,3.81,3.81,0,0,1-.918.1Zm.754-.67h1.2a2.913,2.913,0,0,0,.887-.1,1.273,1.273,0,0,0,.51-.3,1.774,1.774,0,0,0,.417-.723,3.468,3.468,0,0,0,.151-1.1,2.661,2.661,0,0,0-.293-1.375,1.468,1.468,0,0,0-.714-.643,2.87,2.87,0,0,0-.976-.12H78.55v4.36Zm5.1.67v-.8h.8v.794Z" transform="translate(-0.801 -150.089)" fill="#fff" fill-rule="evenodd"/>
      <path id="Path_9550" data-name="Path 9550" d="M186.019,121.588a1.645,1.645,0,1,1,1.672-1.645A1.645,1.645,0,0,1,186.019,121.588Zm1.929-2.453a2.1,2.1,0,0,0-3.406-.656,2.058,2.058,0,0,0-.444.656,2.026,2.026,0,0,0-.169.807,2,2,0,0,0,.169.807,2.027,2.027,0,0,0,.444.661,2.12,2.12,0,0,0,2.289.444,2.067,2.067,0,0,0,1.282-1.912,2.1,2.1,0,0,0-.16-.807Z" transform="translate(-102.353 -117.873)" fill="#fff" fill-rule="evenodd"/>
      <path id="Path_9551" data-name="Path 9551" d="M187.5,120.79h-.368v-.719a3.018,3.018,0,0,1,.31,0c.421,0,.625.12.625.364s-.186.368-.568.368Zm.865.528a.808.808,0,0,0-.262-.328.621.621,0,0,0,.377-.585.585.585,0,0,0-.288-.514,1.33,1.33,0,0,0-.75-.182,4.209,4.209,0,0,0-.7.062h-.035v2.368h.444v-1.011h.386a.444.444,0,0,1,.395.235,1.819,1.819,0,0,1,.231.741v.035h.444v-.049A3.17,3.17,0,0,0,188.369,121.317Z" transform="translate(-103.9 -118.892)" fill="#fff" fill-rule="evenodd"/>
    </g>
  </g>
</svg>
