<svg id="Group_22899" data-name="Group 22899" xmlns="http://www.w3.org/2000/svg" width="110.161" height="40.552" viewBox="0 0 110.161 40.552">
  <path id="Path_9548" data-name="Path 9548" d="M17.451,143.862l.5.114-1.795,5.652H0v-.57H.781a2.085,2.085,0,0,0,1.891-.855,4.949,4.949,0,0,0,.319-2.279v-13.5a4.3,4.3,0,0,0-.427-2.438,2.245,2.245,0,0,0-1.783-.678H0v-.57H9.452v.57a5.879,5.879,0,0,0-2.336.3,1.88,1.88,0,0,0-.917.781,6.706,6.706,0,0,0-.245,2.324V145.89a4.347,4.347,0,0,0,.245,1.755,1.083,1.083,0,0,0,.57.484,9.958,9.958,0,0,0,2.4.154h1.521a10.921,10.921,0,0,0,3.373-.353,4.4,4.4,0,0,0,1.778-1.253,10.368,10.368,0,0,0,1.6-2.849Zm15.593-1.2h-8.09l-1.4,3.27a5.253,5.253,0,0,0-.524,1.817,1.043,1.043,0,0,0,.456.837,3.9,3.9,0,0,0,1.954.467v.57h-6.58v-.57a3.458,3.458,0,0,0,1.709-.57,9.412,9.412,0,0,0,1.738-3l7.315-17.217h.518L37.4,145.645a7.976,7.976,0,0,0,1.6,2.718,3.23,3.23,0,0,0,1.994.7v.57H32.77v-.57a3.133,3.133,0,0,0,1.709-.41,1.077,1.077,0,0,0,.433-.866,6.364,6.364,0,0,0-.615-2.142Zm-.473-1.139-3.515-8.42-3.612,8.426Zm8.369-12.785v.57a4.933,4.933,0,0,1,1.35.137,5.35,5.35,0,0,1,1.379.632,9.975,9.975,0,0,1,1.373,1.4V146a4.863,4.863,0,0,1-.342,2.279,2.182,2.182,0,0,1-1.914.8h-.735v.57h7.338v-.57h-.746a2.347,2.347,0,0,1-1.823-.644,4.3,4.3,0,0,1-.422-2.41V133.146l13.747,16.818h.57v-17.6a4.88,4.88,0,0,1,.342-2.279,2.165,2.165,0,0,1,1.909-.8h.741v-.57H56.351v.57h.735a2.336,2.336,0,0,1,1.823.644,4.175,4.175,0,0,1,.433,2.41V144.4l-12.79-15.656Zm42.159-.473.473,7.087H83.1a8.747,8.747,0,0,0-2.718-4.558,6.574,6.574,0,0,0-4.227-1.4,6.9,6.9,0,0,0-3.743,1.054,6.985,6.985,0,0,0-2.626,3.367,15.046,15.046,0,0,0-.957,5.743,12.209,12.209,0,0,0,.906,4.911,6.837,6.837,0,0,0,2.718,3.19,7.783,7.783,0,0,0,4.142,1.105,7.11,7.11,0,0,0,3.566-.866,11.686,11.686,0,0,0,3.418-3.447l.479.313a11,11,0,0,1-3.658,4.068,9.281,9.281,0,0,1-4.957,1.288,9.376,9.376,0,0,1-8.01-3.851,11.013,11.013,0,0,1-2.159-6.763,12.027,12.027,0,0,1,1.384-5.743,10.067,10.067,0,0,1,3.84-4.056,10.3,10.3,0,0,1,5.344-1.441,9.754,9.754,0,0,1,4.444,1.111,2.484,2.484,0,0,0,.917.342,1.031,1.031,0,0,0,.724-.3,2.347,2.347,0,0,0,.57-1.139Zm13.554,0a9.458,9.458,0,0,1,7.03,3.088,10.665,10.665,0,0,1,2.974,7.708,10.973,10.973,0,0,1-3,7.9,10,10,0,0,1-14.482.074,11.02,11.02,0,0,1-2.928-7.93A10.574,10.574,0,0,1,89.629,131a9.976,9.976,0,0,1,7.025-2.729Zm-.3,1.105a5.492,5.492,0,0,0-4.478,2.079q-2.1,2.587-2.1,7.577,0,5.128,2.176,7.874A5.378,5.378,0,0,0,96.374,149a6.045,6.045,0,0,0,4.848-2.279q1.914-2.279,1.909-7.241,0-5.367-2.1-7.976a5.652,5.652,0,0,0-4.7-2.125Z" transform="translate(0 -122.345)" fill="#fff" fill-rule="evenodd"/>
  <path id="Path_9549" data-name="Path 9549" d="M1.44,183.209V175.9H3.958a6.266,6.266,0,0,1,1.3.1,2.518,2.518,0,0,1,1.071.524,2.923,2.923,0,0,1,.866,1.248,4.865,4.865,0,0,1,.291,1.743,5.264,5.264,0,0,1-.194,1.476,3.5,3.5,0,0,1-.5,1.065,2.638,2.638,0,0,1-.667.678,2.644,2.644,0,0,1-.872.365,4.893,4.893,0,0,1-1.179.125Zm.969-.86H3.97a3.74,3.74,0,0,0,1.139-.131,1.6,1.6,0,0,0,.638-.382,2.279,2.279,0,0,0,.536-.929,4.455,4.455,0,0,0,.194-1.413,3.418,3.418,0,0,0-.376-1.766,1.886,1.886,0,0,0-.923-.826,3.664,3.664,0,0,0-1.253-.154H2.409Zm6.432.86V175.9h5.287v.855H9.809V179h4.039v.883H9.809v2.49h4.484v.86Zm8.882,0-2.849-7.315h1.071l1.9,5.315c.148.427.279.826.382,1.2q.171-.57.393-1.2l1.971-5.31h.991l-2.849,7.315Zm4.757,0V175.9h5.281v.855H23.448V179h4.039v.883H23.448v2.49h4.518v.86Zm6.757,0V175.9h.969v6.455h3.6v.86Zm5.429-3.561a3.948,3.948,0,0,1,.98-2.849,3.31,3.31,0,0,1,2.524-1.031,3.481,3.481,0,0,1,1.829.484,3.133,3.133,0,0,1,1.242,1.356,4.66,4.66,0,0,1,0,3.948,3.071,3.071,0,0,1-1.31,1.327,3.681,3.681,0,0,1-1.778.45,3.475,3.475,0,0,1-1.846-.5,3.213,3.213,0,0,1-1.236-1.362,4.108,4.108,0,0,1-.416-1.823Zm1,0a2.934,2.934,0,0,0,.712,2.079,2.49,2.49,0,0,0,3.584,0,3.088,3.088,0,0,0,.706-2.176,3.777,3.777,0,0,0-.3-1.561,2.336,2.336,0,0,0-.883-1.031,2.541,2.541,0,0,0-3.071.342,3.132,3.132,0,0,0-.746,2.353Zm7.247,3.544V175.9h2.763a6.841,6.841,0,0,1,1.139.068,2.148,2.148,0,0,1,.906.342,1.749,1.749,0,0,1,.57.7,2.37,2.37,0,0,1-.376,2.575,2.881,2.881,0,0,1-2.148.644h-1.88v2.985Zm.974-3.84h1.891A2,2,0,0,0,47.109,179a1.248,1.248,0,0,0,.393-.986,1.282,1.282,0,0,0-.234-.781,1.06,1.06,0,0,0-.61-.433,3.986,3.986,0,0,0-.906-.068H43.884v2.621Zm5.828,3.84V175.9H51.16l1.709,5.179c.16.484.279.843.348,1.082.085-.268.216-.655.393-1.174l1.783-5.088h1.3v7.315h-.929v-6.13L53.6,183.209h-.849l-2.114-6.233v6.233Zm8.546,0V175.9h5.287v.855H59.232V179h4.056v.883H59.25v2.49h4.484v.86Zm6.791,0V175.9h.991l3.84,5.743V175.9h.934v7.315h-1l-3.84-5.743v5.743Zm9.252,0v-6.444h-2.41V175.9h5.8v.855H75.253v6.461Zm4.068-2.347.906-.085a2.1,2.1,0,0,0,.3.906,1.652,1.652,0,0,0,.741.57,2.814,2.814,0,0,0,1.139.216,2.682,2.682,0,0,0,.974-.165,1.321,1.321,0,0,0,.632-.456,1.06,1.06,0,0,0,.205-.627.923.923,0,0,0-.2-.57,1.476,1.476,0,0,0-.655-.433c-.2-.074-.632-.194-1.3-.353a6.905,6.905,0,0,1-1.413-.456,2.063,2.063,0,0,1-.781-.684,1.709,1.709,0,0,1-.256-.912,1.88,1.88,0,0,1,.313-1.037,1.937,1.937,0,0,1,.923-.735,3.48,3.48,0,0,1,1.339-.251,3.646,3.646,0,0,1,1.436.262,2.062,2.062,0,0,1,.957.775,2.216,2.216,0,0,1,.359,1.139l-.929.074a1.5,1.5,0,0,0-.507-1.048,1.96,1.96,0,0,0-1.276-.353,2.074,2.074,0,0,0-1.282.319.974.974,0,0,0-.4.781.843.843,0,0,0,.285.649,3.988,3.988,0,0,0,1.464.518,9.628,9.628,0,0,1,1.618.467,2.154,2.154,0,0,1,.94.746,1.783,1.783,0,0,1,.308,1.037,2.005,2.005,0,0,1-.336,1.1,2.228,2.228,0,0,1-.957.8,3.419,3.419,0,0,1-1.413.285,4.153,4.153,0,0,1-1.658-.291,2.336,2.336,0,0,1-1.054-.872,2.433,2.433,0,0,1-.4-1.31Zm9.93,2.347V175.9h.974v6.455h3.6v.86Zm6.837,0h.974v-6.444h2.41V175.9H92.726v.855h2.41v6.461Zm4.387,0V175.9h2.507a6.266,6.266,0,0,1,1.3.1,2.518,2.518,0,0,1,1.071.524,2.923,2.923,0,0,1,.866,1.248,4.865,4.865,0,0,1,.291,1.743,5.264,5.264,0,0,1-.194,1.476,3.5,3.5,0,0,1-.5,1.065,2.639,2.639,0,0,1-.667.667,2.7,2.7,0,0,1-.872.365,4.893,4.893,0,0,1-1.179.125Zm.969-.86h1.538a3.742,3.742,0,0,0,1.139-.131,1.635,1.635,0,0,0,.655-.382,2.279,2.279,0,0,0,.536-.929,4.454,4.454,0,0,0,.194-1.413,3.418,3.418,0,0,0-.376-1.766,1.886,1.886,0,0,0-.917-.826,3.686,3.686,0,0,0-1.253-.154h-1.515v5.6Zm6.552.86v-1.026h1.025v1.02Z" transform="translate(-0.62 -142.783)" fill="#fff" fill-rule="evenodd"/>
  <path id="Path_9550" data-name="Path 9550" d="M186.613,122.645a2.114,2.114,0,1,1,2.148-2.114A2.114,2.114,0,0,1,186.613,122.645Zm2.478-3.151a2.7,2.7,0,0,0-4.375-.843,2.644,2.644,0,0,0-.57.843,2.6,2.6,0,0,0-.216,1.037,2.563,2.563,0,0,0,.216,1.037,2.6,2.6,0,0,0,.57.849,2.723,2.723,0,0,0,2.94.57,2.655,2.655,0,0,0,1.646-2.455,2.7,2.7,0,0,0-.205-1.037Z" transform="translate(-79.141 -117.873)" fill="#fff" fill-rule="evenodd"/>
  <path id="Path_9551" data-name="Path 9551" d="M187.73,121.1h-.473v-.923a3.879,3.879,0,0,1,.4,0c.541,0,.8.154.8.467s-.239.473-.729.473Zm1.111.678a1.037,1.037,0,0,0-.336-.422.8.8,0,0,0,.484-.752.752.752,0,0,0-.37-.661,1.709,1.709,0,0,0-.963-.234,5.408,5.408,0,0,0-.9.08h-.046v3.042h.57v-1.3h.5a.57.57,0,0,1,.507.3,2.336,2.336,0,0,1,.3.951v.046h.57v-.063A4.072,4.072,0,0,0,188.841,121.776Z" transform="translate(-80.337 -118.661)" fill="#fff" fill-rule="evenodd"/>
</svg>
