<svg xmlns="http://www.w3.org/2000/svg" width="46" height="46" viewBox="0 0 46 46">
  <g id="Group_15981" data-name="Group 15981" transform="translate(-2734 -12448)">
    <g id="Animation_-_Social_Icons" data-name="Animation - Social Icons" transform="translate(2734 12448)">
      <circle id="Ellipse_17" data-name="Ellipse 17" cx="23" cy="23" r="23" fill="#191818"/>
      <circle id="Ellipse_13" data-name="Ellipse 13" cx="23" cy="23" r="23" fill="#565440"/>
    </g>
    <path id="Path_2114" data-name="Path 2114" d="M1155.323,114.98a4.663,4.663,0,0,0-4.663-4.663h-11.923a4.663,4.663,0,0,0-4.663,4.663v5.549a4.663,4.663,0,0,0,4.663,4.663h11.923a4.663,4.663,0,0,0,4.663-4.663Zm-7.011,3.19-5.347,2.645c-.209.113-.922-.038-.922-.277v-5.43c0-.241.718-.393.927-.273l5.118,2.784C1148.3,117.742,1148.529,118.052,1148.312,118.17Z" transform="translate(1612.301 12353.246)" fill="#fff"/>
  </g>
</svg>
